<svg xmlns="http://www.w3.org/2000/svg" xmlns:xlink="http://www.w3.org/1999/xlink" width="280" zoomAndPan="magnify" viewBox="0 0 210 37.5" height="50" preserveAspectRatio="xMidYMid meet" version="1.0"><defs><g/><clipPath id="3107098087"><path d="M 51.171875 2.765625 L 82.257812 2.765625 L 82.257812 33.851562 L 51.171875 33.851562 Z M 51.171875 2.765625 " clip-rule="nonzero"/></clipPath><clipPath id="05ec43c37c"><path d="M 61 22 L 73 22 L 73 33.851562 L 61 33.851562 Z M 61 22 " clip-rule="nonzero"/></clipPath><clipPath id="60e982a8ae"><path d="M 64 24 L 70 24 L 70 33.851562 L 64 33.851562 Z M 64 24 " clip-rule="nonzero"/></clipPath><clipPath id="eb47cb645b"><path d="M 67 4.84375 L 76.964844 4.84375 L 76.964844 10 L 67 10 Z M 67 4.84375 " clip-rule="nonzero"/></clipPath><clipPath id="f3a551e917"><path d="M 56.980469 4.84375 L 69 4.84375 L 69 10.765625 L 56.980469 10.765625 Z M 56.980469 4.84375 " clip-rule="nonzero"/></clipPath></defs><g fill="#ffffff" fill-opacity="1"><g transform="translate(5.879486, 31.266866)"><g><path d="M 6.609375 -6.6875 C 6.703125 -5.414062 7.019531 -4.472656 7.5625 -3.859375 C 8.101562 -3.253906 8.894531 -2.953125 9.9375 -2.953125 C 10.375 -2.953125 10.800781 -3.023438 11.21875 -3.171875 C 11.644531 -3.316406 12.148438 -3.570312 12.734375 -3.9375 C 13.054688 -4.144531 13.457031 -4.4375 13.9375 -4.8125 C 14.414062 -5.1875 14.738281 -5.375 14.90625 -5.375 C 15.207031 -5.375 15.5 -5.226562 15.78125 -4.9375 C 16.070312 -4.644531 16.21875 -4.332031 16.21875 -4 C 16.21875 -3.71875 16.125 -3.429688 15.9375 -3.140625 C 15.75 -2.847656 15.472656 -2.5625 15.109375 -2.28125 C 13.898438 -1.363281 12.648438 -0.671875 11.359375 -0.203125 C 10.066406 0.265625 8.742188 0.5 7.390625 0.5 C 5.179688 0.5 3.4375 -0.125 2.15625 -1.375 C 0.875 -2.625 0.234375 -4.328125 0.234375 -6.484375 C 0.234375 -8.160156 0.578125 -9.78125 1.265625 -11.34375 C 1.953125 -12.90625 2.914062 -14.25 4.15625 -15.375 C 5.1875 -16.3125 6.421875 -17.054688 7.859375 -17.609375 C 9.296875 -18.160156 10.738281 -18.4375 12.1875 -18.4375 C 13.90625 -18.4375 15.253906 -18.035156 16.234375 -17.234375 C 17.210938 -16.441406 17.703125 -15.351562 17.703125 -13.96875 C 17.703125 -11.90625 16.707031 -10.175781 14.71875 -8.78125 C 12.726562 -7.382812 10.191406 -6.6875 7.109375 -6.6875 Z M 10.578125 -15.65625 C 10.148438 -15.65625 9.742188 -15.53125 9.359375 -15.28125 C 8.972656 -15.03125 8.585938 -14.640625 8.203125 -14.109375 C 7.785156 -13.523438 7.429688 -12.8125 7.140625 -11.96875 C 6.859375 -11.132812 6.71875 -10.4375 6.71875 -9.875 C 6.71875 -9.726562 6.8125 -9.601562 7 -9.5 C 7.1875 -9.40625 7.425781 -9.359375 7.71875 -9.359375 C 8.789062 -9.359375 9.773438 -9.832031 10.671875 -10.78125 C 11.578125 -11.726562 12.03125 -12.789062 12.03125 -13.96875 C 12.03125 -14.53125 11.910156 -14.953125 11.671875 -15.234375 C 11.429688 -15.515625 11.066406 -15.65625 10.578125 -15.65625 Z M 10.578125 -15.65625 "/></g></g></g><g fill="#ffffff" fill-opacity="1"><g transform="translate(26.603028, 31.266866)"><g><path d="M 19.875 -1.78125 C 19.644531 -1.78125 19.285156 -1.625 18.796875 -1.3125 C 18.304688 -1 17.914062 -0.773438 17.625 -0.640625 C 16.726562 -0.203125 15.789062 0.125 14.8125 0.34375 C 13.84375 0.5625 12.859375 0.671875 11.859375 0.671875 C 8.515625 0.671875 5.851562 -0.351562 3.875 -2.40625 C 1.894531 -4.457031 0.90625 -7.222656 0.90625 -10.703125 C 0.90625 -12.898438 1.28125 -14.9375 2.03125 -16.8125 C 2.789062 -18.695312 3.90625 -20.367188 5.375 -21.828125 C 6.769531 -23.179688 8.375 -24.226562 10.1875 -24.96875 C 12.007812 -25.707031 13.894531 -26.078125 15.84375 -26.078125 C 17.582031 -26.078125 19.195312 -25.710938 20.6875 -24.984375 C 20.914062 -24.867188 21.054688 -24.8125 21.109375 -24.8125 C 21.203125 -24.8125 21.347656 -24.851562 21.546875 -24.9375 C 21.742188 -25.03125 21.894531 -25.078125 22 -25.078125 C 22.207031 -25.078125 22.414062 -24.992188 22.625 -24.828125 C 22.832031 -24.671875 23.054688 -24.40625 23.296875 -24.03125 C 23.679688 -23.414062 23.976562 -22.785156 24.1875 -22.140625 C 24.40625 -21.503906 24.515625 -20.925781 24.515625 -20.40625 C 24.515625 -19.71875 24.359375 -19.191406 24.046875 -18.828125 C 23.734375 -18.472656 23.269531 -18.296875 22.65625 -18.296875 C 22.3125 -18.296875 21.984375 -18.378906 21.671875 -18.546875 C 21.367188 -18.710938 21.097656 -18.960938 20.859375 -19.296875 C 20.785156 -19.390625 20.671875 -19.546875 20.515625 -19.765625 C 19.035156 -21.765625 17.46875 -22.765625 15.8125 -22.765625 C 13.445312 -22.765625 11.53125 -21.710938 10.0625 -19.609375 C 8.59375 -17.503906 7.859375 -14.757812 7.859375 -11.375 C 7.859375 -8.882812 8.40625 -6.882812 9.5 -5.375 C 10.601562 -3.875 12.046875 -3.125 13.828125 -3.125 C 14.628906 -3.125 15.441406 -3.300781 16.265625 -3.65625 C 17.097656 -4.019531 17.953125 -4.570312 18.828125 -5.3125 C 19.117188 -5.550781 19.476562 -5.914062 19.90625 -6.40625 C 20.582031 -7.175781 21.144531 -7.5625 21.59375 -7.5625 C 21.96875 -7.5625 22.265625 -7.414062 22.484375 -7.125 C 22.710938 -6.84375 22.828125 -6.460938 22.828125 -5.984375 C 22.828125 -5.003906 22.550781 -4.046875 22 -3.109375 C 21.445312 -2.179688 20.894531 -1.71875 20.34375 -1.71875 C 20.300781 -1.71875 20.226562 -1.726562 20.125 -1.75 C 20.019531 -1.769531 19.9375 -1.78125 19.875 -1.78125 Z M 19.875 -1.78125 "/></g></g></g><g fill="#ffffff" fill-opacity="1"><g transform="translate(53.132541, 31.266866)"><g><path d="M 13.203125 -2.71875 C 15.273438 -2.71875 16.976562 -3.804688 18.3125 -5.984375 C 19.644531 -8.160156 20.3125 -10.988281 20.3125 -14.46875 C 20.3125 -17.082031 19.828125 -19.109375 18.859375 -20.546875 C 17.898438 -21.984375 16.550781 -22.703125 14.8125 -22.703125 C 12.6875 -22.703125 10.988281 -21.601562 9.71875 -19.40625 C 8.445312 -17.207031 7.8125 -14.253906 7.8125 -10.546875 C 7.8125 -8.046875 8.28125 -6.113281 9.21875 -4.75 C 10.164062 -3.394531 11.492188 -2.71875 13.203125 -2.71875 Z M 12.453125 0.640625 C 8.929688 0.640625 6.125 -0.429688 4.03125 -2.578125 C 1.945312 -4.722656 0.90625 -7.601562 0.90625 -11.21875 C 0.90625 -13.488281 1.347656 -15.585938 2.234375 -17.515625 C 3.117188 -19.453125 4.398438 -21.132812 6.078125 -22.5625 C 7.441406 -23.707031 8.953125 -24.570312 10.609375 -25.15625 C 12.265625 -25.75 14.03125 -26.046875 15.90625 -26.046875 C 19.351562 -26.046875 22.097656 -25 24.140625 -22.90625 C 26.179688 -20.820312 27.203125 -18.019531 27.203125 -14.5 C 27.203125 -12.894531 26.976562 -11.359375 26.53125 -9.890625 C 26.082031 -8.429688 25.410156 -7.035156 24.515625 -5.703125 C 23.234375 -3.742188 21.507812 -2.195312 19.34375 -1.0625 C 17.1875 0.0703125 14.890625 0.640625 12.453125 0.640625 Z M 12.453125 0.640625 "/></g></g></g><g fill="#ffffff" fill-opacity="1"><g transform="translate(82.994476, 31.266866)"><g><path d="M 22.90625 -18.1875 L 15.203125 -4 C 14.585938 -2.851562 14.117188 -2.109375 13.796875 -1.765625 C 13.484375 -1.429688 13.171875 -1.265625 12.859375 -1.265625 C 12.171875 -1.265625 11.617188 -2.164062 11.203125 -3.96875 C 11.160156 -4.195312 11.117188 -4.375 11.078125 -4.5 L 7.71875 -19.140625 C 6.957031 -15.023438 6.359375 -11.628906 5.921875 -8.953125 C 5.492188 -6.285156 5.28125 -4.734375 5.28125 -4.296875 C 5.28125 -3.984375 5.304688 -3.742188 5.359375 -3.578125 C 5.421875 -3.421875 5.515625 -3.296875 5.640625 -3.203125 C 5.722656 -3.128906 5.875 -3.023438 6.09375 -2.890625 C 6.675781 -2.546875 6.96875 -2.132812 6.96875 -1.65625 C 6.96875 -1.007812 6.644531 -0.546875 6 -0.265625 C 5.351562 0.00390625 4.234375 0.140625 2.640625 0.140625 C 1.421875 0.140625 0.5 0.0078125 -0.125 -0.25 C -0.757812 -0.507812 -1.078125 -0.882812 -1.078125 -1.375 C -1.078125 -1.613281 -1.019531 -1.835938 -0.90625 -2.046875 C -0.800781 -2.265625 -0.648438 -2.429688 -0.453125 -2.546875 C -0.335938 -2.609375 -0.175781 -2.691406 0.03125 -2.796875 C 0.832031 -3.203125 1.375 -3.804688 1.65625 -4.609375 C 1.789062 -4.972656 1.972656 -5.691406 2.203125 -6.765625 C 2.429688 -7.847656 2.773438 -9.664062 3.234375 -12.21875 C 3.753906 -15.082031 4.09375 -17.070312 4.25 -18.1875 C 4.414062 -19.3125 4.5 -20.15625 4.5 -20.71875 C 4.5 -21.164062 4.4375 -21.53125 4.3125 -21.8125 C 4.1875 -22.09375 4 -22.300781 3.75 -22.4375 C 3.664062 -22.476562 3.550781 -22.539062 3.40625 -22.625 C 2.769531 -22.957031 2.453125 -23.34375 2.453125 -23.78125 C 2.453125 -24.476562 3.023438 -25.007812 4.171875 -25.375 C 5.328125 -25.738281 6.984375 -25.921875 9.140625 -25.921875 C 10.828125 -25.921875 11.914062 -24.863281 12.40625 -22.75 C 12.4375 -22.601562 12.460938 -22.484375 12.484375 -22.390625 L 14.671875 -12.90625 C 14.773438 -12.476562 14.90625 -12.109375 15.0625 -11.796875 C 15.226562 -11.484375 15.359375 -11.328125 15.453125 -11.328125 C 15.535156 -11.328125 15.742188 -11.5625 16.078125 -12.03125 C 16.410156 -12.507812 16.757812 -13.097656 17.125 -13.796875 L 21.6875 -22.296875 C 22.25 -23.367188 22.691406 -24.113281 23.015625 -24.53125 C 23.335938 -24.957031 23.664062 -25.265625 24 -25.453125 C 24.238281 -25.566406 24.585938 -25.648438 25.046875 -25.703125 C 25.515625 -25.765625 26.117188 -25.796875 26.859375 -25.796875 C 28.472656 -25.796875 29.660156 -25.660156 30.421875 -25.390625 C 31.179688 -25.117188 31.5625 -24.703125 31.5625 -24.140625 C 31.5625 -23.703125 31.285156 -23.304688 30.734375 -22.953125 C 30.679688 -22.921875 30.644531 -22.894531 30.625 -22.875 C 30.59375 -22.851562 30.550781 -22.828125 30.5 -22.796875 C 29.988281 -22.484375 29.613281 -22.035156 29.375 -21.453125 C 29.226562 -21.109375 29.09375 -20.644531 28.96875 -20.0625 C 28.851562 -19.476562 28.707031 -18.539062 28.53125 -17.25 C 28.269531 -15 28.070312 -12.972656 27.9375 -11.171875 C 27.800781 -9.367188 27.734375 -7.835938 27.734375 -6.578125 C 27.734375 -5.390625 27.765625 -4.609375 27.828125 -4.234375 C 27.890625 -3.867188 28 -3.601562 28.15625 -3.4375 C 28.25 -3.34375 28.421875 -3.21875 28.671875 -3.0625 C 29.304688 -2.664062 29.625 -2.21875 29.625 -1.71875 C 29.625 -0.988281 29.1875 -0.476562 28.3125 -0.1875 C 27.445312 0.09375 25.726562 0.234375 23.15625 0.234375 C 21.414062 0.234375 20.253906 0.128906 19.671875 -0.078125 C 19.085938 -0.296875 18.796875 -0.691406 18.796875 -1.265625 C 18.796875 -1.921875 19.132812 -2.421875 19.8125 -2.765625 C 20.488281 -3.117188 20.835938 -3.3125 20.859375 -3.34375 C 21.410156 -3.9375 21.972656 -7.492188 22.546875 -14.015625 C 22.691406 -15.796875 22.8125 -17.1875 22.90625 -18.1875 Z M 22.90625 -18.1875 "/></g></g></g><g clip-path="url(#3107098087)"><path fill="#ffc107" d="M 82.523438 18.441406 C 82.523438 27.097656 75.507812 34.117188 66.847656 34.117188 C 58.191406 34.117188 51.171875 27.097656 51.171875 18.441406 C 51.171875 9.785156 58.191406 2.765625 66.847656 2.765625 C 75.507812 2.765625 82.523438 9.785156 82.523438 18.441406 " fill-opacity="1" fill-rule="nonzero"/></g><path fill="#000000" d="M 57.269531 21.285156 C 57.269531 24.734375 61.273438 29.121094 66.847656 29.121094 C 72.425781 29.121094 76.429688 24.765625 76.429688 21.285156 C 76.429688 21.285156 67.429688 23.683594 57.269531 21.285156 Z M 57.269531 21.285156 " fill-opacity="1" fill-rule="nonzero"/><g clip-path="url(#05ec43c37c)"><path fill="#005ae0" d="M 61.625 22.800781 L 61.625 28.859375 C 61.625 31.472656 63.367188 34.085938 66.847656 34.085938 C 70.332031 34.085938 72.074219 31.472656 72.074219 28.859375 L 72.074219 22.835938 C 66.59375 23.960938 61.625 22.800781 61.625 22.800781 Z M 61.625 22.800781 " fill-opacity="1" fill-rule="nonzero"/></g><path fill="#000000" d="M 61.871094 13.503906 C 61.210938 13.25 60.589844 13.007812 60.589844 12.660156 C 60.589844 12.085938 61.359375 12.058594 61.515625 12.058594 C 62.058594 12.058594 62.328125 12.261719 62.566406 12.441406 C 62.75 12.578125 62.941406 12.722656 63.203125 12.722656 C 63.695312 12.722656 63.917969 12.378906 63.917969 12.054688 C 63.917969 11.414062 63.132812 10.960938 62.300781 10.773438 L 62.300781 10.429688 C 62.300781 9.980469 61.933594 9.613281 61.484375 9.613281 C 61.03125 9.613281 60.664062 9.980469 60.664062 10.429688 L 60.664062 10.800781 C 59.667969 11.089844 59.058594 11.824219 59.058594 12.746094 C 59.058594 13.890625 60.183594 14.359375 61.179688 14.769531 C 61.890625 15.066406 62.5625 15.347656 62.5625 15.78125 C 62.5625 16.101562 62.160156 16.445312 61.515625 16.445312 C 60.863281 16.445312 60.488281 16.183594 60.15625 15.953125 C 59.929688 15.796875 59.710938 15.644531 59.453125 15.644531 C 59.078125 15.644531 58.789062 15.960938 58.789062 16.363281 C 58.789062 16.953125 59.597656 17.542969 60.664062 17.75 L 60.664062 18.160156 C 60.664062 18.609375 61.03125 18.976562 61.484375 18.976562 C 61.933594 18.976562 62.300781 18.609375 62.300781 18.160156 L 62.296875 17.726562 C 63.425781 17.453125 64.09375 16.660156 64.09375 15.585938 C 64.09375 14.363281 62.863281 13.886719 61.871094 13.503906 Z M 74.421875 15.597656 C 74.421875 14.375 73.1875 13.902344 72.199219 13.519531 C 71.539062 13.265625 70.917969 13.023438 70.917969 12.675781 C 70.917969 12.101562 71.6875 12.074219 71.84375 12.074219 C 72.386719 12.074219 72.65625 12.277344 72.894531 12.457031 C 73.078125 12.59375 73.269531 12.738281 73.53125 12.738281 C 74.023438 12.738281 74.246094 12.390625 74.246094 12.070312 C 74.246094 11.429688 73.460938 10.976562 72.628906 10.785156 L 72.628906 10.445312 C 72.628906 9.996094 72.261719 9.628906 71.8125 9.628906 C 71.359375 9.628906 70.992188 9.996094 70.992188 10.445312 L 70.992188 10.816406 C 69.996094 11.105469 69.386719 11.839844 69.386719 12.761719 C 69.386719 13.90625 70.511719 14.375 71.503906 14.785156 C 72.21875 15.082031 72.890625 15.363281 72.890625 15.796875 C 72.890625 16.117188 72.488281 16.460938 71.84375 16.460938 C 71.191406 16.460938 70.816406 16.199219 70.484375 15.96875 C 70.257812 15.8125 70.039062 15.660156 69.78125 15.660156 C 69.40625 15.660156 69.113281 15.976562 69.113281 16.378906 C 69.113281 16.96875 69.925781 17.558594 70.992188 17.765625 L 70.992188 18.175781 C 70.992188 18.625 71.359375 18.992188 71.8125 18.992188 C 72.261719 18.992188 72.628906 18.625 72.628906 18.175781 L 72.625 17.742188 C 73.753906 17.464844 74.421875 16.675781 74.421875 15.597656 Z M 74.421875 15.597656 " fill-opacity="1" fill-rule="nonzero"/><g clip-path="url(#60e982a8ae)"><path fill="#ffffff" d="M 69.4375 29.824219 C 69.4375 28.632812 68.234375 28.167969 67.269531 27.796875 C 66.628906 27.546875 66.019531 27.3125 66.019531 26.972656 C 66.019531 26.414062 66.769531 26.386719 66.921875 26.386719 C 67.453125 26.386719 67.714844 26.585938 67.949219 26.761719 C 68.128906 26.894531 68.3125 27.035156 68.570312 27.035156 C 69.050781 27.035156 69.265625 26.695312 69.265625 26.382812 C 69.265625 25.761719 68.503906 25.316406 67.691406 25.132812 L 67.691406 24.800781 C 67.691406 24.359375 67.332031 24 66.890625 24 C 66.453125 24 66.09375 24.359375 66.09375 24.800781 L 66.09375 25.160156 C 65.121094 25.441406 64.527344 26.15625 64.527344 27.058594 C 64.527344 28.171875 65.625 28.628906 66.59375 29.03125 C 67.289062 29.320312 67.941406 29.589844 67.941406 30.015625 C 67.941406 30.328125 67.554688 30.664062 66.921875 30.664062 C 66.285156 30.664062 65.917969 30.410156 65.597656 30.183594 C 65.375 30.027344 65.164062 29.882812 64.914062 29.882812 C 64.550781 29.882812 64.261719 30.191406 64.261719 30.582031 C 64.261719 31.160156 65.050781 31.734375 66.09375 31.933594 L 66.09375 32.335938 C 66.09375 32.773438 66.449219 33.132812 66.890625 33.132812 C 67.332031 33.132812 67.6875 32.773438 67.6875 32.335938 L 67.6875 31.910156 C 68.785156 31.644531 69.4375 30.871094 69.4375 29.824219 Z M 69.4375 29.824219 " fill-opacity="1" fill-rule="nonzero"/></g><g clip-path="url(#eb47cb645b)"><path fill="#000000" d="M 73.441406 4.847656 C 74.261719 5.199219 74.742188 5.625 74.742188 6.078125 C 74.742188 7.226562 71.6875 8.175781 67.757812 8.300781 L 69.082031 9.066406 L 67.964844 9.710938 C 72.890625 9.550781 76.71875 8.367188 76.71875 6.929688 C 76.71875 6.101562 75.453125 5.359375 73.441406 4.847656 " fill-opacity="1" fill-rule="nonzero"/></g><g clip-path="url(#f3a551e917)"><path fill="#000000" d="M 66.792969 8.316406 L 66.179688 7.960938 L 65.191406 7.390625 L 65.449219 8.28125 C 61.757812 8.09375 58.957031 7.179688 58.957031 6.078125 C 58.957031 5.625 59.4375 5.199219 60.257812 4.847656 C 58.246094 5.359375 56.980469 6.101562 56.980469 6.929688 C 56.980469 8.34375 60.683594 9.511719 65.492188 9.699219 L 65.191406 10.742188 L 66.179688 10.167969 L 66.945312 9.726562 L 68.09375 9.066406 L 66.792969 8.316406 " fill-opacity="1" fill-rule="nonzero"/></g><g fill="#ffffff" fill-opacity="1"><g transform="translate(114.680973, 30.955017)"><g><path d="M 12.328125 0.453125 C 18.03125 0.453125 24.265625 -2.296875 24.265625 -8.5 C 24.265625 -11.21875 22.578125 -14.328125 19.421875 -15.125 C 22.140625 -16.46875 24.015625 -18.765625 24.015625 -22.078125 C 24.015625 -27.453125 18.921875 -30.0625 13.859375 -30.0625 C 8.796875 -30.0625 4.109375 -28.0625 1.4375 -25.578125 C 2.484375 -23.703125 3.375 -21.65625 4.109375 -19.421875 C 5.828125 -21.75 9.171875 -24.203125 13.09375 -24.203125 C 15.3125 -24.203125 17.078125 -23.1875 17.078125 -21.46875 C 17.078125 -18.5 14.359375 -17.453125 10.890625 -17.453125 C 9.71875 -17.453125 8.1875 -17.640625 7.265625 -17.96875 C 7.484375 -16.078125 7.265625 -12.765625 7.265625 -12.765625 C 8.375 -13 9.484375 -13.0625 11.25 -13.0625 C 13.859375 -13.0625 17.296875 -12.265625 17.296875 -9.421875 C 17.296875 -6.5 15.0625 -5.390625 11.84375 -5.390625 C 8 -5.390625 5 -7.90625 3.6875 -10.484375 C 2.859375 -8.53125 1.4375 -7.03125 0 -5.375 C 2.328125 -2.171875 6.8125 0.453125 12.328125 0.453125 Z M 12.328125 0.453125 "/></g></g></g><g fill="#ffffff" fill-opacity="1"><g transform="translate(139.851773, 30.955017)"><g><path d="M 0.921875 -14.84375 C 0.921875 -5.953125 6.71875 0.453125 14.90625 0.453125 C 21.1875 0.453125 25.359375 -3.71875 25.359375 -9.328125 C 25.359375 -15.453125 20.3125 -20.484375 14.265625 -20.484375 C 11.3125 -20.484375 8.21875 -18.859375 7.796875 -16.375 C 7.765625 -16.25 7.765625 -16.15625 7.734375 -16.046875 C 7.828125 -20.484375 10.953125 -24.203125 15.3125 -24.203125 C 17.828125 -24.203125 19.78125 -22.640625 21.28125 -21.46875 C 21.65625 -23.21875 22.671875 -25.703125 23.53125 -27.328125 C 21.5625 -29.015625 18.59375 -30.0625 15.3125 -30.0625 C 7.296875 -30.0625 0.921875 -23 0.921875 -14.84375 Z M 9.96875 -17.421875 C 13.3125 -17.421875 18.4375 -12.90625 18.4375 -8.375 C 18.4375 -7.109375 17.765625 -5.390625 15.484375 -5.390625 C 8.890625 -5.390625 5.21875 -17.421875 9.96875 -17.421875 Z M 9.96875 -17.421875 "/></g></g></g><g fill="#ffffff" fill-opacity="1"><g transform="translate(166.126295, 30.955017)"><g><path d="M 13.1875 0.453125 C 19.9375 0.453125 25.421875 -5.921875 25.421875 -14.8125 C 25.421875 -23.703125 19.9375 -30.0625 13.1875 -30.0625 C 6.40625 -30.0625 0.921875 -23.703125 0.921875 -14.8125 C 0.921875 -5.921875 6.40625 0.453125 13.1875 0.453125 Z M 7.9375 -14.8125 C 7.9375 -20.28125 10.3125 -24.203125 13.1875 -24.203125 C 16.078125 -24.203125 18.40625 -20.28125 18.40625 -14.8125 C 18.40625 -9.328125 16.078125 -5.375 13.1875 -5.375 C 10.3125 -5.375 7.9375 -9.328125 7.9375 -14.8125 Z M 7.9375 -14.8125 "/></g></g></g><g fill="#ffffff" fill-opacity="1"><g transform="translate(192.462116, 30.955017)"><g><path d="M 6.375 -21.46875 C 9.046875 -21.46875 11.1875 -23.625 11.1875 -26.28125 C 11.1875 -28.953125 9.046875 -31.125 6.375 -31.125 C 3.71875 -31.125 1.53125 -28.953125 1.53125 -26.28125 C 1.53125 -23.625 3.71875 -21.46875 6.375 -21.46875 Z M 3.0625 -26.3125 C 3.0625 -28.125 4.5625 -29.59375 6.375 -29.59375 C 8.21875 -29.59375 9.6875 -28.125 9.6875 -26.3125 C 9.6875 -24.46875 8.21875 -23 6.375 -23 C 4.5625 -23 3.0625 -24.46875 3.0625 -26.3125 Z M 3.0625 -26.3125 "/></g></g></g></svg>