<svg xmlns="http://www.w3.org/2000/svg" xmlns:xlink="http://www.w3.org/1999/xlink" width="700" zoomAndPan="magnify" viewBox="0 0 525 359.999987" height="480" preserveAspectRatio="xMidYMid meet" version="1.0"><defs><g/></defs><path fill="#ffffff" d="M 153.46875 150.238281 L 92.0625 149.726562 L 90.214844 239.070312 L 23.601562 285.074219 C 20.515625 287.207031 19.128906 291.070312 20.15625 294.679688 L 33.566406 341.765625 C 34.394531 344.667969 37.046875 346.667969 40.066406 346.667969 L 59.433594 346.667969 C 61.421875 346.667969 63.09375 345.179688 63.320312 343.203125 C 63.4375 342.164062 63.136719 341.125 62.484375 340.308594 L 56.507812 332.859375 L 86.972656 306.992188 L 74.164062 334.179688 C 71.425781 339.988281 75.664062 346.667969 82.082031 346.667969 L 161.441406 346.667969 C 163.566406 346.667969 165.304688 344.972656 165.351562 342.847656 L 165.351562 342.820312 C 165.375 341.777344 164.984375 340.765625 164.257812 340.011719 L 149.304688 324.53125 C 149.304688 324.53125 173.097656 247.199219 174.289062 244.820312 C 179.050781 214.484375 153.46875 150.238281 153.46875 150.238281 " fill-opacity="1" fill-rule="nonzero"/><path fill="#000000" d="M 86.972656 306.605469 C 87.054688 306.605469 87.140625 306.632812 87.210938 306.683594 C 87.355469 306.796875 87.402344 306.992188 87.324219 307.15625 L 74.511719 334.347656 C 73.285156 336.953125 73.472656 339.960938 75.015625 342.394531 C 76.558594 344.828125 79.203125 346.28125 82.085938 346.28125 L 161.441406 346.28125 C 163.339844 346.28125 164.917969 344.738281 164.964844 342.839844 C 164.988281 341.878906 164.628906 340.957031 163.976562 340.285156 L 149.027344 324.800781 C 148.925781 324.699219 148.894531 324.554688 148.933594 324.417969 C 149.898438 321.28125 172.4375 248.058594 173.914062 244.707031 C 178.417969 215.734375 154.910156 154.980469 153.203125 150.625 L 92.445312 150.117188 L 90.605469 239.078125 C 90.601562 239.203125 90.539062 239.320312 90.4375 239.390625 L 23.824219 285.394531 C 20.871094 287.433594 19.546875 291.125 20.53125 294.574219 L 33.941406 341.65625 C 34.714844 344.378906 37.234375 346.28125 40.066406 346.28125 L 59.433594 346.28125 C 61.226562 346.28125 62.730469 344.9375 62.933594 343.15625 C 63.039062 342.230469 62.765625 341.28125 62.179688 340.550781 L 56.203125 333.101562 C 56.074219 332.941406 56.097656 332.699219 56.257812 332.566406 L 86.722656 306.695312 C 86.792969 306.636719 86.882812 306.605469 86.972656 306.605469 Z M 161.441406 347.058594 L 82.085938 347.058594 C 78.933594 347.058594 76.046875 345.472656 74.359375 342.8125 C 72.675781 340.152344 72.46875 336.863281 73.8125 334.015625 L 85.855469 308.449219 L 57.046875 332.910156 L 62.785156 340.066406 C 63.5 340.953125 63.835938 342.113281 63.703125 343.246094 C 63.457031 345.421875 61.621094 347.058594 59.433594 347.058594 L 40.066406 347.058594 C 36.890625 347.058594 34.0625 344.925781 33.195312 341.871094 L 19.78125 294.785156 C 18.707031 291.015625 20.15625 286.984375 23.382812 284.753906 L 89.832031 238.863281 L 91.675781 149.71875 C 91.679688 149.503906 91.84375 149.347656 92.066406 149.339844 L 153.472656 149.851562 C 153.628906 149.855469 153.773438 149.949219 153.832031 150.097656 C 154.085938 150.738281 179.394531 214.789062 174.671875 244.882812 C 174.664062 244.921875 174.652344 244.960938 174.636719 244.996094 C 173.503906 247.257812 151.148438 319.859375 149.746094 324.425781 L 164.535156 339.742188 C 165.328125 340.566406 165.769531 341.691406 165.742188 342.832031 C 165.6875 345.175781 163.757812 347.058594 161.441406 347.058594 " fill-opacity="1" fill-rule="nonzero"/><path fill="#000000" d="M 86.945312 307.4375 C 86.890625 307.4375 86.835938 307.425781 86.78125 307.402344 C 86.585938 307.308594 86.503906 307.078125 86.59375 306.882812 L 120.339844 235.273438 C 118.757812 229.867188 108.621094 201.308594 100.351562 178.1875 C 100.277344 177.984375 100.382812 177.761719 100.585938 177.691406 C 100.789062 177.617188 101.007812 177.726562 101.082031 177.925781 C 109.429688 201.261719 119.679688 230.140625 121.125 235.199219 C 121.152344 235.289062 121.144531 235.382812 121.101562 235.46875 L 87.296875 307.214844 C 87.230469 307.355469 87.089844 307.4375 86.945312 307.4375 " fill-opacity="1" fill-rule="nonzero"/><path fill="#000000" d="M 149.304688 324.921875 C 149.300781 324.921875 149.300781 324.921875 149.300781 324.921875 L 83.53125 324.027344 C 83.316406 324.023438 83.144531 323.847656 83.148438 323.632812 C 83.152344 323.417969 83.34375 323.234375 83.542969 323.246094 L 149.308594 324.144531 C 149.523438 324.148438 149.695312 324.324219 149.695312 324.539062 C 149.691406 324.75 149.519531 324.921875 149.304688 324.921875 " fill-opacity="1" fill-rule="nonzero"/><path fill="#000000" d="M 56.507812 333.25 C 56.40625 333.25 56.304688 333.210938 56.230469 333.132812 C 56.089844 332.988281 42.335938 318.628906 35.457031 291.523438 C 35.40625 291.316406 35.53125 291.105469 35.738281 291.050781 C 35.945312 291 36.160156 291.125 36.210938 291.332031 C 43.035156 318.222656 56.648438 332.449219 56.785156 332.589844 C 56.933594 332.742188 56.933594 332.988281 56.777344 333.140625 C 56.703125 333.210938 56.605469 333.25 56.507812 333.25 " fill-opacity="1" fill-rule="nonzero"/><path fill="#ffc107" d="M 227.164062 107.429688 C 227.164062 107.429688 201.613281 113.867188 194.835938 112.875 C 188.886719 112.007812 178.09375 102.664062 175.550781 100.398438 C 174.351562 103.007812 173.195312 105.636719 172.070312 108.28125 C 170.8125 111.242188 169.585938 114.21875 168.378906 117.203125 C 167.171875 120.183594 165.976562 123.171875 164.773438 126.15625 C 163.902344 128.308594 163.023438 130.457031 162.136719 132.601562 C 165.527344 133.640625 179.871094 137.859375 189.117188 137.910156 C 207.605469 138.019531 233.195312 122.550781 233.195312 122.550781 L 227.164062 107.429688 " fill-opacity="1" fill-rule="nonzero"/><path fill="#ffffff" d="M 143.429688 67.765625 L 161.417969 47.050781 L 174.140625 53.644531 L 161.402344 68.285156 L 143.429688 67.765625 " fill-opacity="1" fill-rule="nonzero"/><path fill="#000000" d="M 144.257812 67.398438 L 161.230469 67.890625 L 173.523438 53.757812 L 161.511719 47.535156 Z M 161.402344 68.671875 C 161.398438 68.671875 161.394531 68.671875 161.390625 68.671875 L 143.417969 68.152344 C 143.269531 68.148438 143.136719 68.054688 143.074219 67.917969 C 143.015625 67.78125 143.039062 67.621094 143.136719 67.507812 L 161.125 46.796875 C 161.242188 46.660156 161.4375 46.625 161.597656 46.707031 L 174.320312 53.296875 C 174.425781 53.351562 174.5 53.453125 174.523438 53.570312 C 174.542969 53.6875 174.511719 53.808594 174.433594 53.898438 L 161.695312 68.539062 C 161.621094 68.625 161.515625 68.671875 161.402344 68.671875 " fill-opacity="1" fill-rule="nonzero"/><path fill="#ffffff" d="M 179.535156 36.816406 C 179.535156 36.816406 184.023438 50.125 176.808594 54.539062 C 169.597656 58.949219 164.125 52.941406 163.617188 50.320312 C 163.617188 50.320312 162.140625 38.597656 179.535156 36.816406 " fill-opacity="1" fill-rule="nonzero"/><path fill="#000000" d="M 179.261719 37.234375 C 173.222656 37.902344 168.875 39.859375 166.332031 43.046875 C 163.574219 46.5 163.996094 50.238281 164.003906 50.273438 C 164.238281 51.484375 165.847656 53.863281 168.542969 55.050781 C 170.316406 55.832031 173.15625 56.320312 176.605469 54.207031 C 182.886719 50.363281 179.851562 39.199219 179.261719 37.234375 Z M 171.695312 56.5 C 170.320312 56.5 169.148438 56.164062 168.230469 55.761719 C 165.25 54.449219 163.515625 51.832031 163.234375 50.394531 C 163.210938 50.207031 162.757812 46.292969 165.710938 42.574219 C 168.429688 39.15625 173.066406 37.085938 179.496094 36.429688 C 179.675781 36.410156 179.847656 36.519531 179.902344 36.691406 C 180.089844 37.246094 184.402344 50.347656 177.011719 54.871094 C 175.039062 56.078125 173.238281 56.5 171.695312 56.5 " fill-opacity="1" fill-rule="nonzero"/><path fill="#000000" d="M 187.300781 31.714844 C 186.835938 29.554688 184.949219 29.066406 183.375 29.570312 C 183.203125 28.726562 182.8125 27.929688 182.152344 27.355469 C 180.433594 25.859375 176.84375 26.070312 175.449219 27.992188 C 174.46875 25.9375 171.960938 25.046875 169.738281 25.652344 C 167.730469 26.199219 165.617188 27.972656 165.238281 30.097656 C 163.78125 29.625 162.175781 29.601562 160.691406 30.074219 C 157.882812 30.964844 156.179688 33.625 156.074219 36.503906 C 156.023438 37.894531 156.378906 39.300781 157.121094 40.476562 C 155.894531 40.734375 154.742188 41.363281 153.980469 42.375 C 153.09375 43.546875 152.777344 45.171875 153.316406 46.566406 C 153.902344 48.085938 155.367188 49.246094 156.679688 50.128906 C 156.722656 50.15625 156.765625 50.183594 156.808594 50.210938 C 156.417969 50.640625 156.152344 51.179688 156.34375 51.828125 C 156.457031 52.195312 156.71875 52.496094 157.042969 52.675781 C 157.9375 53.171875 158.945312 52.859375 159.816406 52.457031 C 160.4375 52.167969 161.03125 51.804688 161.578125 51.371094 C 161.996094 51.042969 162.398438 50.667969 162.683594 50.199219 C 163.113281 49.484375 163.222656 48.617188 163.402344 47.792969 C 163.683594 46.488281 164.160156 45.21875 164.800781 44.054688 C 164.808594 44.0625 164.816406 44.070312 164.824219 44.074219 C 166.304688 44.761719 165.730469 47.355469 166.519531 46.4375 C 166.90625 45.984375 169.441406 42.65625 171.878906 41.074219 C 175.582031 38.667969 181.269531 41.429688 184.742188 38.09375 C 186.226562 36.671875 186.9375 34.488281 187.085938 34.03125 C 187.386719 33.109375 187.457031 32.425781 187.300781 31.714844 " fill-opacity="1" fill-rule="nonzero"/><path fill="#ffffff" d="M 164.855469 43.59375 C 164.035156 42.707031 162.699219 42.113281 161.613281 42.636719 C 160.566406 43.136719 160.179688 44.449219 160.21875 45.605469 C 160.253906 46.542969 160.496094 47.476562 160.925781 48.3125 C 161.089844 48.632812 161.285156 48.941406 161.535156 49.199219 C 161.976562 49.652344 162.570312 49.925781 163.175781 50.105469 C 163.71875 50.265625 164.292969 50.359375 164.851562 50.269531 C 165.410156 50.175781 165.949219 49.882812 166.246094 49.398438 C 166.800781 48.492188 166.320312 47.246094 166.160156 46.289062 C 165.996094 45.289062 165.542969 44.339844 164.855469 43.59375 " fill-opacity="1" fill-rule="nonzero"/><path fill="#ffffff" d="M 166.160156 46.289062 C 165.996094 45.289062 165.542969 44.339844 164.855469 43.59375 C 164.035156 42.707031 162.699219 42.113281 161.613281 42.636719 C 160.566406 43.136719 160.179688 44.449219 160.21875 45.605469 C 160.253906 46.542969 160.496094 47.476562 160.925781 48.3125 C 161.089844 48.632812 161.285156 48.941406 161.535156 49.199219 C 161.976562 49.652344 162.570312 49.925781 163.175781 50.105469 C 163.71875 50.265625 164.292969 50.359375 164.851562 50.269531 L 166.160156 46.289062 " fill-opacity="1" fill-rule="nonzero"/><path fill="#000000" d="M 164.398438 50.691406 C 163.992188 50.691406 163.550781 50.621094 163.066406 50.480469 C 162.28125 50.246094 161.6875 49.914062 161.257812 49.46875 C 161.007812 49.214844 160.792969 48.902344 160.582031 48.492188 C 160.125 47.605469 159.867188 46.613281 159.832031 45.617188 C 159.789062 44.402344 160.191406 42.890625 161.441406 42.285156 C 162.742188 41.660156 164.273438 42.386719 165.140625 43.328125 C 165.871094 44.121094 166.367188 45.148438 166.542969 46.226562 C 166.578125 46.4375 166.4375 46.636719 166.222656 46.671875 C 166.015625 46.707031 165.8125 46.5625 165.777344 46.351562 C 165.625 45.421875 165.195312 44.535156 164.570312 43.855469 C 163.886719 43.117188 162.726562 42.53125 161.78125 42.984375 C 160.863281 43.425781 160.574219 44.664062 160.605469 45.589844 C 160.640625 46.472656 160.867188 47.351562 161.273438 48.136719 C 161.449219 48.476562 161.621094 48.730469 161.8125 48.925781 C 162.152344 49.277344 162.632812 49.539062 163.289062 49.734375 C 163.871094 49.90625 164.359375 49.957031 164.789062 49.886719 C 165.003906 49.851562 165.199219 49.996094 165.234375 50.207031 C 165.269531 50.417969 165.125 50.617188 164.914062 50.652344 C 164.75 50.679688 164.578125 50.691406 164.398438 50.691406 " fill-opacity="1" fill-rule="nonzero"/><path fill="#000000" d="M 165.160156 49.078125 C 165.054688 49.078125 164.953125 49.035156 164.878906 48.957031 C 164.195312 48.234375 163.40625 47.628906 162.53125 47.15625 C 162.34375 47.054688 162.273438 46.820312 162.375 46.632812 C 162.476562 46.441406 162.710938 46.371094 162.898438 46.472656 C 163.847656 46.984375 164.703125 47.640625 165.441406 48.421875 C 165.589844 48.578125 165.582031 48.824219 165.425781 48.972656 C 165.351562 49.042969 165.257812 49.078125 165.160156 49.078125 " fill-opacity="1" fill-rule="nonzero"/><path fill="#2c2f6f" d="M 284.742188 88.148438 C 280.511719 110.011719 259.355469 124.304688 237.484375 120.074219 C 215.617188 115.84375 201.320312 94.6875 205.550781 72.824219 C 209.78125 50.957031 230.9375 36.664062 252.808594 40.898438 C 274.675781 45.128906 288.976562 66.285156 284.742188 88.148438 " fill-opacity="1" fill-rule="nonzero"/><path fill="#ffffff" d="M 261.179688 68.867188 C 259.742188 76.285156 252.5625 81.136719 245.140625 79.699219 C 237.71875 78.261719 232.867188 71.082031 234.300781 63.664062 C 235.738281 56.242188 242.917969 51.390625 250.339844 52.828125 C 257.761719 54.265625 262.617188 61.445312 261.179688 68.867188 " fill-opacity="1" fill-rule="nonzero"/><path fill="#ffffff" d="M 267.691406 97.558594 C 264.214844 89.640625 254.972656 88.003906 244.386719 85.964844 C 233.550781 83.875 224.175781 81.910156 218.003906 88.5 C 218.820312 91.246094 220.054688 93.878906 221.703125 96.320312 C 225.933594 102.582031 232.351562 106.820312 239.769531 108.257812 L 239.855469 108.273438 C 250.738281 110.347656 261.390625 105.839844 267.691406 97.558594 " fill-opacity="1" fill-rule="nonzero"/><path fill="#ffffff" d="M 264.929688 41.941406 C 264.863281 41.6875 264.597656 41.03125 262.898438 40.550781 C 256.832031 38.835938 250.3125 41.121094 250.3125 41.121094 C 244.460938 43.171875 244.109375 44.308594 236.925781 47.460938 C 237.042969 48.722656 237.027344 49.882812 237.128906 51.140625 C 237.441406 55.066406 237.679688 58.996094 237.878906 62.925781 C 237.984375 65.019531 238.109375 64.902344 238.199219 66.996094 C 244.046875 63.457031 247.199219 61.296875 250.886719 56.5625 C 251.941406 55.210938 253.109375 53.710938 254.796875 53.414062 C 255.894531 53.222656 257.0625 53.582031 258.128906 53.253906 C 259.195312 52.921875 259.863281 51.242188 258.855469 50.757812 C 259.769531 51.132812 260.941406 50.664062 261.339844 49.761719 C 261.746094 48.859375 261.308594 47.675781 260.421875 47.25 C 261.289062 47.816406 262.636719 47.40625 263.019531 46.4375 C 263.339844 45.632812 262.890625 44.640625 262.136719 44.261719 C 262.546875 44.347656 263.15625 44.382812 263.757812 44.050781 C 264.535156 43.628906 265.125 42.691406 264.929688 41.941406 " fill-opacity="1" fill-rule="nonzero"/><path fill="#000000" d="M 237.339844 47.707031 C 237.382812 48.292969 237.40625 48.859375 237.425781 49.414062 C 237.449219 49.964844 237.46875 50.53125 237.515625 51.113281 C 237.796875 54.660156 238.042969 58.515625 238.265625 62.90625 C 238.316406 63.910156 238.371094 64.398438 238.425781 64.875 C 238.46875 65.277344 238.515625 65.664062 238.554688 66.324219 C 244.019531 63 247.074219 60.824219 250.582031 56.324219 C 251.664062 54.933594 252.894531 53.355469 254.730469 53.03125 C 255.261719 52.9375 255.792969 52.964844 256.308594 52.988281 C 256.917969 53.019531 257.488281 53.042969 258.011719 52.882812 C 258.535156 52.71875 258.925781 52.113281 258.960938 51.652344 C 258.992188 51.253906 258.761719 51.140625 258.6875 51.105469 C 258.5 51.015625 258.417969 50.789062 258.5 50.597656 C 258.589844 50.40625 258.8125 50.320312 259.003906 50.398438 C 259.726562 50.695312 260.667969 50.316406 260.988281 49.605469 C 261.28125 48.949219 261.003906 48.085938 260.410156 47.691406 C 260.339844 47.65625 260.273438 47.617188 260.207031 47.574219 C 260.035156 47.460938 259.980469 47.238281 260.082031 47.058594 C 260.179688 46.878906 260.402344 46.808594 260.585938 46.898438 C 260.65625 46.929688 260.722656 46.96875 260.78125 47.007812 C 261.082031 47.140625 261.449219 47.15625 261.796875 47.042969 C 262.210938 46.914062 262.523438 46.640625 262.660156 46.296875 C 262.894531 45.703125 262.570312 44.914062 261.960938 44.613281 C 261.789062 44.523438 261.707031 44.320312 261.769531 44.136719 C 261.832031 43.953125 262.027344 43.84375 262.214844 43.882812 C 262.5625 43.953125 263.074219 43.984375 263.574219 43.710938 C 264.234375 43.351562 264.691406 42.566406 264.554688 42.039062 C 264.441406 41.613281 263.800781 41.210938 262.792969 40.925781 C 256.90625 39.261719 250.507812 41.464844 250.441406 41.488281 C 247.253906 42.605469 245.722656 43.441406 243.785156 44.503906 C 242.210938 45.363281 240.429688 46.339844 237.339844 47.707031 Z M 238.199219 67.382812 C 238.136719 67.382812 238.074219 67.371094 238.015625 67.335938 C 237.894531 67.273438 237.816406 67.148438 237.808594 67.011719 C 237.765625 65.949219 237.710938 65.46875 237.652344 64.960938 C 237.597656 64.476562 237.542969 63.972656 237.488281 62.945312 C 237.265625 58.5625 237.019531 54.710938 236.738281 51.171875 C 236.695312 50.578125 236.671875 50 236.648438 49.441406 C 236.625 48.8125 236.601562 48.164062 236.542969 47.5 C 236.527344 47.332031 236.617188 47.175781 236.773438 47.105469 C 239.988281 45.695312 241.808594 44.699219 243.414062 43.820312 C 245.382812 42.742188 246.9375 41.894531 250.183594 40.757812 L 250.191406 40.773438 C 251.085938 40.460938 257.253906 38.554688 263.003906 40.175781 C 264.339844 40.554688 265.113281 41.113281 265.304688 41.839844 C 265.5625 42.828125 264.816406 43.917969 263.945312 44.394531 C 263.675781 44.542969 263.402344 44.628906 263.144531 44.671875 C 263.511719 45.238281 263.628906 45.964844 263.378906 46.582031 C 263.15625 47.148438 262.667969 47.585938 262.03125 47.785156 C 261.882812 47.832031 261.738281 47.863281 261.589844 47.882812 C 261.921875 48.503906 261.988281 49.269531 261.695312 49.921875 C 261.351562 50.699219 260.542969 51.207031 259.707031 51.269531 C 259.738281 51.40625 259.75 51.554688 259.734375 51.707031 C 259.675781 52.542969 259.015625 53.382812 258.242188 53.625 C 257.589844 53.828125 256.917969 53.792969 256.273438 53.765625 C 255.777344 53.738281 255.3125 53.71875 254.863281 53.796875 C 253.324219 54.070312 252.242188 55.457031 251.191406 56.804688 C 247.488281 61.554688 244.304688 63.757812 238.398438 67.328125 C 238.339844 67.367188 238.269531 67.382812 238.199219 67.382812 " fill-opacity="1" fill-rule="nonzero"/><path fill="#ffc107" d="M 178.691406 94.15625 C 178.691406 94.15625 196.371094 88.945312 205.886719 85.613281 C 215.402344 82.277344 243.027344 64.433594 243.027344 64.433594 L 238.59375 46.273438 C 238.59375 46.273438 203.285156 60.59375 193.847656 61.921875 C 184.410156 63.253906 134.34375 59.238281 125.230469 70.996094 C 116.117188 82.753906 107.972656 109.460938 107.972656 109.460938 C 107.972656 109.460938 93.898438 141.101562 89.636719 150.574219 C 89.074219 151.820312 89.980469 153.226562 91.34375 153.238281 L 153.679688 153.714844 C 154.828125 153.722656 155.859375 153.019531 156.273438 151.953125 L 178.691406 94.15625 " fill-opacity="1" fill-rule="nonzero"/><path fill="#000000" d="M 156.722656 112.046875 C 156.640625 112.046875 156.550781 112.019531 156.480469 111.957031 C 156.3125 111.824219 156.289062 111.578125 156.425781 111.410156 C 162.421875 104.066406 170.128906 98.050781 178.714844 94.019531 C 178.910156 93.929688 179.140625 94.015625 179.230469 94.207031 C 179.320312 94.402344 179.238281 94.632812 179.042969 94.726562 C 170.5625 98.703125 162.949219 104.644531 157.023438 111.902344 C 156.949219 111.996094 156.835938 112.046875 156.722656 112.046875 " fill-opacity="1" fill-rule="nonzero"/><path fill="#000000" d="M 164.054688 132.644531 C 164.007812 132.644531 163.960938 132.636719 163.917969 132.621094 C 163.71875 132.542969 163.617188 132.320312 163.691406 132.121094 L 173.527344 106.007812 C 173.605469 105.808594 173.828125 105.707031 174.027344 105.78125 C 174.230469 105.859375 174.332031 106.082031 174.253906 106.28125 L 164.417969 132.390625 C 164.359375 132.550781 164.210938 132.644531 164.054688 132.644531 " fill-opacity="1" fill-rule="nonzero"/><path fill="#ffffff" d="M 241.445312 111.230469 C 240.558594 111.1875 239.785156 111.609375 239.316406 112.265625 C 239.304688 112.28125 239.28125 112.273438 239.277344 112.253906 C 239.101562 111.019531 238.023438 110.089844 236.75 110.136719 C 235.789062 110.175781 234.988281 110.761719 234.609375 111.578125 C 234.601562 111.59375 234.582031 111.59375 234.574219 111.578125 C 234.097656 110.726562 233.140625 110.1875 232.082031 110.332031 C 230.800781 110.507812 229.910156 111.710938 229.957031 113 L 229.964844 113.234375 C 229.96875 113.253906 229.945312 113.261719 229.929688 113.246094 C 229.492188 112.777344 228.871094 112.484375 228.179688 112.515625 L 227.8125 112.527344 C 226.542969 112.578125 225.554688 113.644531 225.601562 114.917969 L 225.867188 121.734375 C 225.914062 123.003906 226.980469 123.996094 228.25 123.945312 L 228.617188 123.929688 C 229.351562 123.902344 229.984375 123.523438 230.382812 122.96875 C 230.394531 122.953125 230.414062 122.957031 230.417969 122.976562 C 230.722656 124.042969 231.722656 124.804688 232.882812 124.761719 C 233.800781 124.722656 234.570312 124.1875 234.96875 123.429688 C 234.976562 123.414062 234.996094 123.414062 235.007812 123.429688 C 235.425781 124.273438 236.308594 124.839844 237.3125 124.800781 C 238.261719 124.761719 239.058594 124.191406 239.4375 123.390625 C 239.445312 123.375 239.464844 123.371094 239.476562 123.386719 C 239.945312 124.253906 240.90625 124.808594 241.972656 124.667969 C 243.257812 124.496094 244.15625 123.292969 244.109375 121.992188 L 243.792969 113.734375 C 243.742188 112.433594 242.746094 111.296875 241.445312 111.230469 " fill-opacity="1" fill-rule="nonzero"/><path fill="#000000" d="M 234.988281 123.027344 C 234.988281 123.027344 234.992188 123.027344 234.992188 123.027344 C 235.136719 123.03125 235.292969 123.125 235.355469 123.257812 C 235.71875 123.992188 236.484375 124.441406 237.296875 124.414062 C 238.066406 124.382812 238.753906 123.925781 239.089844 123.222656 C 239.152344 123.089844 239.304688 122.992188 239.449219 122.988281 C 239.605469 122.980469 239.75 123.078125 239.816406 123.207031 C 240.234375 123.972656 241.058594 124.394531 241.921875 124.28125 C 242.972656 124.140625 243.761719 123.144531 243.71875 122.007812 L 243.402344 113.75 C 243.359375 112.609375 242.492188 111.671875 241.425781 111.617188 C 240.714844 111.585938 240.046875 111.910156 239.628906 112.492188 C 239.539062 112.621094 239.355469 112.6875 239.199219 112.648438 C 239.046875 112.609375 238.914062 112.464844 238.894531 112.308594 C 238.742188 111.25 237.839844 110.492188 236.765625 110.523438 C 235.984375 110.554688 235.292969 111.019531 234.960938 111.738281 C 234.902344 111.875 234.753906 111.972656 234.605469 111.976562 C 234.476562 111.984375 234.308594 111.894531 234.234375 111.769531 C 233.8125 111.011719 232.988281 110.601562 232.136719 110.714844 C 231.089844 110.859375 230.304688 111.859375 230.34375 112.988281 L 230.355469 113.21875 C 230.359375 113.382812 230.253906 113.550781 230.101562 113.613281 C 229.945312 113.679688 229.761719 113.636719 229.644531 113.511719 C 229.265625 113.101562 228.734375 112.886719 228.195312 112.902344 L 227.828125 112.914062 C 226.773438 112.957031 225.949219 113.847656 225.992188 114.902344 L 226.253906 121.722656 C 226.273438 122.230469 226.492188 122.703125 226.863281 123.050781 C 227.238281 123.398438 227.730469 123.578125 228.238281 123.558594 L 228.601562 123.542969 C 229.1875 123.519531 229.71875 123.226562 230.066406 122.742188 C 230.152344 122.621094 230.324219 122.550781 230.46875 122.574219 C 230.617188 122.601562 230.753906 122.726562 230.789062 122.871094 C 231.054688 123.792969 231.914062 124.40625 232.867188 124.371094 C 233.617188 124.34375 234.273438 123.925781 234.625 123.25 C 234.691406 123.121094 234.84375 123.027344 234.988281 123.027344 Z M 237.21875 125.191406 C 236.339844 125.191406 235.515625 124.785156 234.980469 124.109375 C 234.464844 124.730469 233.710938 125.117188 232.898438 125.148438 C 231.800781 125.191406 230.789062 124.601562 230.28125 123.660156 C 229.824219 124.0625 229.25 124.296875 228.632812 124.320312 L 228.265625 124.332031 C 227.550781 124.363281 226.863281 124.109375 226.335938 123.621094 C 225.808594 123.132812 225.503906 122.46875 225.476562 121.75 L 225.214844 114.929688 C 225.15625 113.449219 226.316406 112.195312 227.796875 112.140625 L 228.164062 112.125 C 228.667969 112.105469 229.164062 112.234375 229.59375 112.484375 C 229.773438 111.191406 230.761719 110.121094 232.03125 109.949219 C 233 109.816406 233.941406 110.179688 234.566406 110.894531 C 235.074219 110.210938 235.863281 109.785156 236.734375 109.75 C 237.949219 109.699219 239.035156 110.429688 239.480469 111.519531 C 240.027344 111.054688 240.730469 110.804688 241.464844 110.84375 C 242.925781 110.914062 244.117188 112.179688 244.179688 113.71875 L 244.496094 121.976562 C 244.554688 123.511719 243.46875 124.859375 242.023438 125.050781 C 241.039062 125.179688 240.09375 124.804688 239.476562 124.074219 C 238.964844 124.738281 238.183594 125.152344 237.328125 125.1875 C 237.289062 125.1875 237.257812 125.191406 237.21875 125.191406 " fill-opacity="1" fill-rule="nonzero"/><path fill="#000000" d="M 239.398438 119.335938 C 239.1875 119.335938 239.015625 119.164062 239.011719 118.953125 L 238.890625 112.261719 C 238.886719 112.046875 239.058594 111.871094 239.273438 111.867188 C 239.496094 111.863281 239.664062 112.035156 239.667969 112.25 L 239.789062 118.941406 C 239.792969 119.152344 239.621094 119.332031 239.40625 119.335938 C 239.40625 119.335938 239.402344 119.335938 239.398438 119.335938 " fill-opacity="1" fill-rule="nonzero"/><path fill="#000000" d="M 234.738281 118.730469 C 234.527344 118.730469 234.351562 118.5625 234.347656 118.347656 L 234.226562 111.65625 C 234.222656 111.445312 234.394531 111.265625 234.609375 111.261719 C 234.609375 111.261719 234.613281 111.261719 234.617188 111.261719 C 234.828125 111.261719 235 111.429688 235.003906 111.644531 L 235.125 118.335938 C 235.128906 118.550781 234.957031 118.726562 234.746094 118.730469 C 234.742188 118.730469 234.738281 118.730469 234.738281 118.730469 " fill-opacity="1" fill-rule="nonzero"/><path fill="#000000" d="M 230.042969 120.347656 C 229.828125 120.347656 229.65625 120.179688 229.652344 119.96875 L 229.53125 113.277344 C 229.527344 113.0625 229.695312 112.882812 229.914062 112.878906 C 229.914062 112.878906 229.914062 112.878906 229.917969 112.878906 C 230.128906 112.878906 230.304688 113.050781 230.304688 113.261719 L 230.429688 119.953125 C 230.429688 120.167969 230.261719 120.34375 230.046875 120.347656 C 230.042969 120.347656 230.042969 120.347656 230.042969 120.347656 " fill-opacity="1" fill-rule="nonzero"/><path fill="#2c2f6f" d="M 112.425781 68.292969 L 19.285156 68.292969 L 19.285156 32.847656 L 112.425781 32.847656 L 112.425781 68.292969 " fill-opacity="1" fill-rule="nonzero"/><path fill="#000000" d="M 30.453125 66.109375 C 30.351562 66.109375 30.25 66.074219 30.171875 65.992188 C 30.023438 65.839844 30.027344 65.59375 30.183594 65.445312 L 61.796875 34.929688 C 61.945312 34.789062 62.179688 34.785156 62.332031 34.925781 L 81.257812 52.433594 L 108.777344 27.027344 L 106.367188 28.289062 C 106.175781 28.390625 105.941406 28.316406 105.84375 28.125 C 105.742188 27.933594 105.816406 27.699219 106.007812 27.601562 L 111.015625 24.980469 C 111.1875 24.890625 111.398438 24.941406 111.511719 25.101562 C 111.625 25.261719 111.601562 25.480469 111.457031 25.613281 L 81.519531 53.246094 C 81.371094 53.382812 81.144531 53.382812 80.992188 53.246094 L 62.074219 35.746094 L 30.722656 66 C 30.644531 66.074219 30.546875 66.109375 30.453125 66.109375 " fill-opacity="1" fill-rule="nonzero"/><path fill="#000000" d="M 108.457031 30.273438 C 108.390625 30.273438 108.320312 30.257812 108.257812 30.21875 C 108.074219 30.109375 108.015625 29.871094 108.125 29.6875 L 110.863281 25.125 C 110.972656 24.941406 111.210938 24.882812 111.394531 24.992188 C 111.578125 25.101562 111.636719 25.34375 111.527344 25.527344 L 108.792969 30.085938 C 108.71875 30.207031 108.589844 30.273438 108.457031 30.273438 " fill-opacity="1" fill-rule="nonzero"/><path fill="#2c2f6f" d="M 392.644531 129.507812 C 387.183594 138.488281 375.476562 141.34375 366.492188 135.882812 C 357.507812 130.421875 354.652344 118.714844 360.109375 109.734375 C 365.570312 100.75 377.277344 97.894531 386.261719 103.359375 C 395.246094 108.816406 398.101562 120.523438 392.644531 129.507812 " fill-opacity="1" fill-rule="nonzero"/><path fill="#ffffff" d="M 385.378906 117.105469 C 383.527344 120.15625 379.550781 121.125 376.503906 119.269531 C 373.457031 117.417969 372.484375 113.441406 374.339844 110.394531 C 376.191406 107.347656 380.164062 106.378906 383.214844 108.230469 C 386.261719 110.085938 387.234375 114.058594 385.378906 117.105469 " fill-opacity="1" fill-rule="nonzero"/><path fill="#ffffff" d="M 383.554688 130.871094 C 383.3125 126.800781 379.492188 124.558594 375.144531 121.917969 C 370.691406 119.214844 366.863281 116.808594 363.050781 118.714844 C 362.960938 120.0625 363.074219 121.429688 363.402344 122.78125 C 364.25 126.246094 366.394531 129.175781 369.441406 131.027344 L 369.476562 131.046875 C 373.953125 133.75 379.40625 133.503906 383.554688 130.871094 " fill-opacity="1" fill-rule="nonzero"/><path fill="#2c2f6f" d="M 495.554688 36.554688 C 506.292969 49.835938 504.230469 69.308594 490.945312 80.050781 C 477.660156 90.792969 458.1875 88.734375 447.449219 75.453125 C 436.707031 62.171875 438.769531 42.699219 452.054688 31.957031 C 465.339844 21.214844 484.8125 23.273438 495.554688 36.554688 " fill-opacity="1" fill-rule="nonzero"/><path fill="#ffffff" d="M 472.601562 40.855469 C 476.246094 45.363281 475.542969 51.972656 471.035156 55.617188 C 466.527344 59.265625 459.917969 58.566406 456.273438 54.058594 C 452.628906 49.550781 453.328125 42.941406 457.839844 39.296875 C 462.347656 35.648438 468.953125 36.347656 472.601562 40.855469 " fill-opacity="1" fill-rule="nonzero"/><path fill="#ffffff" d="M 492.652344 51.207031 C 486.289062 49.335938 480.765625 53.949219 474.339844 59.15625 C 467.761719 64.480469 461.976562 69.011719 462.796875 75.890625 C 464.8125 76.765625 466.96875 77.34375 469.210938 77.578125 C 474.976562 78.191406 480.632812 76.515625 485.140625 72.871094 L 485.191406 72.832031 C 491.78125 67.46875 494.398438 58.992188 492.652344 51.207031 " fill-opacity="1" fill-rule="nonzero"/><path fill="#2c2f6f" d="M 328.527344 73.738281 C 333.300781 81.820312 330.621094 92.246094 322.535156 97.023438 C 314.449219 101.800781 304.023438 99.117188 299.25 91.035156 C 294.472656 82.953125 297.15625 72.527344 305.242188 67.75 C 313.324219 62.972656 323.75 65.652344 328.527344 73.738281 " fill-opacity="1" fill-rule="nonzero"/><path fill="#ffffff" d="M 315.699219 74.238281 C 317.320312 76.980469 316.410156 80.519531 313.664062 82.140625 C 310.921875 83.761719 307.382812 82.851562 305.765625 80.109375 C 304.140625 77.367188 305.050781 73.828125 307.796875 72.207031 C 310.542969 70.585938 314.078125 71.492188 315.699219 74.238281 " fill-opacity="1" fill-rule="nonzero"/><path fill="#ffffff" d="M 325.777344 81.472656 C 322.464844 79.945312 319.089844 82.011719 315.179688 84.328125 C 311.175781 86.695312 307.667969 88.699219 307.5625 92.503906 C 308.585938 93.140625 309.710938 93.628906 310.914062 93.9375 C 314 94.730469 317.210938 94.273438 319.953125 92.652344 L 319.984375 92.636719 C 324 90.246094 326.101562 85.847656 325.777344 81.472656 " fill-opacity="1" fill-rule="nonzero"/><path fill="#2c2f6f" d="M 438.203125 82.539062 C 436.332031 95.601562 424.21875 104.671875 411.152344 102.800781 C 398.085938 100.929688 389.011719 88.816406 390.882812 75.753906 C 392.757812 62.691406 404.867188 53.617188 417.933594 55.492188 C 431 57.363281 440.074219 69.472656 438.203125 82.539062 " fill-opacity="1" fill-rule="nonzero"/><path fill="#ffffff" d="M 423.699219 71.804688 C 423.0625 76.234375 418.953125 79.316406 414.515625 78.679688 C 410.082031 78.046875 407.003906 73.933594 407.640625 69.5 C 408.273438 65.066406 412.382812 61.988281 416.816406 62.625 C 421.253906 63.257812 424.332031 67.371094 423.699219 71.804688 " fill-opacity="1" fill-rule="nonzero"/><path fill="#ffffff" d="M 428.382812 88.601562 C 426.097656 84.015625 420.578125 83.3125 414.25 82.410156 C 407.777344 81.488281 402.171875 80.59375 398.710938 84.675781 C 399.269531 86.277344 400.078125 87.796875 401.125 89.195312 C 403.808594 92.78125 407.730469 95.105469 412.164062 95.738281 L 412.214844 95.746094 C 418.71875 96.660156 424.890625 93.683594 428.382812 88.601562 " fill-opacity="1" fill-rule="nonzero"/><path fill="#2c2f6f" d="M 380.785156 68.679688 C 373.105469 80.605469 357.207031 84.042969 345.28125 76.359375 C 333.355469 68.675781 329.914062 52.78125 337.59375 40.855469 C 345.273438 28.933594 361.171875 25.492188 373.097656 33.175781 C 385.027344 40.859375 388.46875 56.757812 380.785156 68.679688 " fill-opacity="1" fill-rule="nonzero"/><path fill="#ffffff" d="M 371.421875 51.695312 C 368.816406 55.742188 363.421875 56.910156 359.375 54.300781 C 355.324219 51.695312 354.15625 46.300781 356.765625 42.253906 C 359.371094 38.207031 364.765625 37.039062 368.8125 39.644531 C 372.863281 42.253906 374.027344 47.648438 371.421875 51.695312 " fill-opacity="1" fill-rule="nonzero"/><path fill="#ffffff" d="M 368.476562 70.207031 C 368.292969 64.699219 363.21875 61.542969 357.441406 57.828125 C 351.53125 54.023438 346.453125 50.640625 341.242188 53.078125 C 341.074219 54.890625 341.179688 56.742188 341.578125 58.574219 C 342.59375 63.28125 345.382812 67.308594 349.433594 69.914062 L 349.476562 69.941406 C 355.421875 73.75 362.789062 73.609375 368.476562 70.207031 " fill-opacity="1" fill-rule="nonzero"/><path fill="#000000" d="M 453.132812 124.246094 C 453.089844 124.246094 453.046875 124.242188 453.003906 124.222656 C 452.800781 124.15625 452.695312 123.933594 452.765625 123.730469 L 460.785156 101.015625 C 460.855469 100.8125 461.078125 100.707031 461.28125 100.777344 C 461.480469 100.851562 461.585938 101.074219 461.515625 101.273438 L 453.5 123.988281 C 453.441406 124.148438 453.292969 124.246094 453.132812 124.246094 " fill-opacity="1" fill-rule="nonzero"/><path fill="#000000" d="M 463.316406 95.398438 C 463.273438 95.398438 463.230469 95.390625 463.1875 95.375 C 462.984375 95.304688 462.878906 95.082031 462.949219 94.878906 L 464.417969 90.714844 C 464.492188 90.511719 464.710938 90.40625 464.917969 90.476562 C 465.117188 90.550781 465.222656 90.773438 465.152344 90.972656 L 463.683594 95.140625 C 463.625 95.300781 463.476562 95.398438 463.316406 95.398438 " fill-opacity="1" fill-rule="nonzero"/><path fill="#000000" d="M 406.136719 125.023438 C 406.109375 125.023438 406.078125 125.023438 406.050781 125.015625 C 405.839844 124.96875 405.710938 124.757812 405.757812 124.550781 L 407.714844 116.007812 C 407.761719 115.796875 407.972656 115.667969 408.179688 115.714844 C 408.390625 115.761719 408.519531 115.972656 408.472656 116.183594 L 406.515625 124.722656 C 406.472656 124.902344 406.3125 125.023438 406.136719 125.023438 " fill-opacity="1" fill-rule="nonzero"/><path fill="#000000" d="M 409.335938 111.0625 C 409.308594 111.0625 409.277344 111.058594 409.25 111.054688 C 409.039062 111.003906 408.910156 110.796875 408.957031 110.589844 L 410.03125 105.90625 C 410.078125 105.695312 410.289062 105.566406 410.496094 105.613281 C 410.703125 105.660156 410.835938 105.871094 410.789062 106.078125 L 409.714844 110.761719 C 409.671875 110.941406 409.511719 111.0625 409.335938 111.0625 " fill-opacity="1" fill-rule="nonzero"/><path fill="#000000" d="M 351.371094 125.800781 C 351.367188 125.800781 351.367188 125.800781 351.363281 125.800781 C 351.148438 125.796875 350.980469 125.621094 350.980469 125.40625 L 351.304688 107.539062 C 351.308594 107.324219 351.46875 107.144531 351.699219 107.15625 C 351.914062 107.160156 352.085938 107.335938 352.082031 107.550781 L 351.757812 125.421875 C 351.753906 125.632812 351.582031 125.800781 351.371094 125.800781 " fill-opacity="1" fill-rule="nonzero"/><path fill="#000000" d="M 351.804688 101.71875 C 351.800781 101.71875 351.800781 101.71875 351.796875 101.71875 C 351.582031 101.71875 351.410156 101.539062 351.414062 101.324219 L 351.570312 92.777344 C 351.574219 92.5625 351.753906 92.394531 351.964844 92.394531 C 352.179688 92.398438 352.351562 92.578125 352.347656 92.789062 L 352.191406 101.339844 C 352.191406 101.550781 352.015625 101.71875 351.804688 101.71875 " fill-opacity="1" fill-rule="nonzero"/><path fill="#ffffff" d="M 352.148438 82.300781 L 352.046875 87.734375 L 352.148438 82.300781 " fill-opacity="1" fill-rule="nonzero"/><path fill="#000000" d="M 352.050781 88.125 C 352.046875 88.125 352.046875 88.125 352.042969 88.125 C 351.828125 88.121094 351.65625 87.941406 351.660156 87.726562 L 351.761719 82.292969 C 351.765625 82.078125 351.929688 81.898438 352.15625 81.910156 C 352.367188 81.914062 352.539062 82.09375 352.535156 82.308594 L 352.4375 87.742188 C 352.433594 87.957031 352.261719 88.125 352.050781 88.125 " fill-opacity="1" fill-rule="nonzero"/><path fill="#000000" d="M 320.503906 126.113281 C 320.320312 126.113281 320.15625 125.980469 320.121094 125.792969 L 317.507812 111.125 C 317.46875 110.910156 317.609375 110.710938 317.820312 110.671875 C 318.035156 110.632812 318.234375 110.773438 318.269531 110.984375 L 320.886719 125.65625 C 320.925781 125.867188 320.785156 126.066406 320.570312 126.105469 C 320.550781 126.109375 320.527344 126.113281 320.503906 126.113281 " fill-opacity="1" fill-rule="nonzero"/><path fill="#000000" d="M 317.019531 105.957031 C 316.832031 105.957031 316.667969 105.820312 316.636719 105.628906 L 316.03125 101.78125 C 315.996094 101.570312 316.140625 101.371094 316.351562 101.335938 C 316.5625 101.304688 316.765625 101.449219 316.796875 101.660156 L 317.40625 105.507812 C 317.441406 105.722656 317.292969 105.921875 317.082031 105.953125 C 317.0625 105.957031 317.042969 105.957031 317.019531 105.957031 " fill-opacity="1" fill-rule="nonzero"/><path fill="#000000" d="M 276.902344 124.15625 C 276.726562 124.15625 276.570312 124.039062 276.523438 123.863281 L 273.550781 111.96875 C 273.5 111.757812 273.625 111.546875 273.832031 111.496094 C 274.042969 111.441406 274.253906 111.570312 274.304688 111.777344 L 277.277344 123.671875 C 277.332031 123.882812 277.203125 124.09375 276.996094 124.144531 C 276.964844 124.15625 276.933594 124.15625 276.902344 124.15625 " fill-opacity="1" fill-rule="nonzero"/><path fill="#ffffff" d="M 499.472656 305.996094 C 505.773438 320.808594 498.875 337.929688 484.0625 344.234375 C 469.246094 350.539062 452.128906 343.640625 445.824219 328.828125 C 439.519531 314.015625 446.417969 296.894531 461.230469 290.59375 C 476.046875 284.289062 493.167969 291.183594 499.472656 305.996094 " fill-opacity="1" fill-rule="nonzero"/><path fill="#000000" d="M 472.609375 288.652344 C 468.855469 288.652344 465.046875 289.390625 461.386719 290.949219 C 446.792969 297.160156 439.96875 314.085938 446.179688 328.679688 C 450.832031 339.605469 461.492188 346.175781 472.683594 346.175781 C 476.4375 346.175781 480.246094 345.4375 483.910156 343.878906 C 498.503906 337.667969 505.324219 320.742188 499.113281 306.148438 C 494.464844 295.222656 483.800781 288.652344 472.609375 288.652344 Z M 472.6875 346.953125 C 461.195312 346.953125 450.242188 340.207031 445.464844 328.980469 C 439.089844 313.996094 446.09375 296.613281 461.082031 290.234375 C 476.066406 283.855469 493.449219 290.859375 499.828125 305.847656 C 506.207031 320.832031 499.203125 338.214844 484.214844 344.59375 C 480.453125 346.195312 476.539062 346.953125 472.6875 346.953125 " fill-opacity="1" fill-rule="nonzero"/><path fill="#ffffff" d="M 493.738281 308.4375 C 498.691406 320.085938 493.269531 333.542969 481.621094 338.5 C 469.976562 343.457031 456.515625 338.035156 451.558594 326.386719 C 446.601562 314.742188 452.027344 301.285156 463.671875 296.328125 C 475.320312 291.367188 488.78125 296.792969 493.738281 308.4375 " fill-opacity="1" fill-rule="nonzero"/><path fill="#000000" d="M 472.644531 294.871094 C 469.652344 294.871094 466.664062 295.476562 463.824219 296.683594 C 458.285156 299.039062 454 303.410156 451.75 308.992188 C 449.5 314.574219 449.558594 320.699219 451.914062 326.238281 C 455.558594 334.796875 463.910156 339.941406 472.675781 339.941406 C 475.617188 339.941406 478.597656 339.363281 481.46875 338.144531 C 487.007812 335.785156 491.296875 331.414062 493.546875 325.835938 C 495.792969 320.25 495.734375 314.128906 493.378906 308.589844 C 491.023438 303.054688 486.652344 298.765625 481.066406 296.515625 C 478.347656 295.417969 475.496094 294.871094 472.644531 294.871094 Z M 472.679688 340.71875 C 463.609375 340.71875 454.96875 335.398438 451.199219 326.542969 C 448.761719 320.8125 448.703125 314.480469 451.03125 308.703125 C 453.355469 302.929688 457.792969 298.40625 463.519531 295.96875 C 469.25 293.53125 475.585938 293.46875 481.359375 295.796875 C 487.132812 298.121094 491.65625 302.558594 494.09375 308.285156 C 496.53125 314.015625 496.589844 320.347656 494.265625 326.121094 C 491.9375 331.898438 487.5 336.417969 481.773438 338.859375 C 478.804688 340.121094 475.714844 340.71875 472.679688 340.71875 " fill-opacity="1" fill-rule="nonzero"/><path fill="#000000" d="M 478.355469 334.660156 L 476.613281 330.558594 C 474.242188 331.519531 471.496094 331.828125 469.644531 331.417969 L 469.460938 328.285156 C 471.335938 328.636719 473.773438 328.507812 476.046875 327.542969 C 478.929688 326.316406 480.167969 323.824219 479.183594 321.507812 C 478.234375 319.277344 476.0625 318.570312 472.542969 318.632812 C 467.710938 318.769531 464.363281 317.992188 462.859375 314.460938 C 461.425781 311.09375 462.730469 307.519531 466.207031 305.320312 L 464.460938 301.222656 L 466.976562 300.152344 L 468.652344 304.085938 C 471.121094 303.132812 473.0625 303.074219 474.535156 303.261719 L 474.660156 306.371094 C 473.601562 306.246094 471.554688 306.0625 468.957031 307.167969 C 465.832031 308.5 465.449219 310.867188 466.140625 312.488281 C 467.039062 314.601562 468.992188 315.015625 473.140625 314.972656 C 478.046875 314.898438 481.058594 316.113281 482.59375 319.722656 C 483.957031 322.929688 483.003906 326.882812 479.117188 329.351562 L 480.914062 333.570312 L 478.355469 334.660156 " fill-opacity="1" fill-rule="nonzero"/><path fill="#ffffff" d="M 433.921875 328.761719 C 430.511719 340.632812 418.125 347.492188 406.25 344.082031 C 394.378906 340.671875 387.519531 328.285156 390.929688 316.410156 C 394.339844 304.539062 406.726562 297.679688 418.601562 301.09375 C 430.472656 304.5 437.332031 316.890625 433.921875 328.761719 " fill-opacity="1" fill-rule="nonzero"/><path fill="#000000" d="M 433.921875 328.761719 L 433.925781 328.761719 Z M 412.433594 300.609375 C 402.882812 300.609375 394.070312 306.890625 391.304688 316.519531 C 389.683594 322.160156 390.355469 328.09375 393.199219 333.230469 C 396.042969 338.367188 400.71875 342.089844 406.359375 343.707031 C 418.007812 347.054688 430.203125 340.300781 433.550781 328.65625 C 435.171875 323.011719 434.496094 317.078125 431.652344 311.941406 C 428.808594 306.808594 424.136719 303.085938 418.492188 301.464844 C 416.476562 300.886719 414.4375 300.609375 412.433594 300.609375 Z M 412.417969 345.34375 C 410.34375 345.34375 408.234375 345.054688 406.144531 344.457031 C 400.304688 342.777344 395.464844 338.925781 392.519531 333.609375 C 389.578125 328.289062 388.878906 322.144531 390.558594 316.304688 C 394.019531 304.246094 406.648438 297.253906 418.707031 300.71875 C 424.550781 302.394531 429.386719 306.25 432.332031 311.566406 C 435.277344 316.882812 435.976562 323.027344 434.296875 328.867188 C 431.433594 338.835938 422.308594 345.34375 412.417969 345.34375 " fill-opacity="1" fill-rule="nonzero"/><path fill="#ffffff" d="M 429.328125 327.441406 C 426.648438 336.773438 416.90625 342.167969 407.570312 339.484375 C 398.238281 336.804688 392.84375 327.066406 395.527344 317.730469 C 398.207031 308.398438 407.945312 303.003906 417.28125 305.6875 C 426.617188 308.367188 432.007812 318.109375 429.328125 327.441406 " fill-opacity="1" fill-rule="nonzero"/><path fill="#000000" d="M 412.433594 305.390625 C 404.957031 305.390625 398.0625 310.308594 395.898438 317.839844 C 394.628906 322.253906 395.160156 326.898438 397.382812 330.914062 C 399.609375 334.933594 403.265625 337.84375 407.679688 339.113281 C 412.09375 340.378906 416.738281 339.855469 420.753906 337.628906 C 424.773438 335.40625 427.6875 331.746094 428.953125 327.335938 C 431.570312 318.222656 426.289062 308.679688 417.171875 306.0625 C 415.59375 305.605469 414 305.390625 412.433594 305.390625 Z M 412.453125 340.566406 C 410.789062 340.566406 409.109375 340.332031 407.464844 339.859375 C 402.851562 338.535156 399.03125 335.492188 396.703125 331.292969 C 394.378906 327.09375 393.828125 322.238281 395.152344 317.625 C 397.890625 308.101562 407.863281 302.578125 417.390625 305.316406 C 426.914062 308.050781 432.4375 318.023438 429.703125 327.546875 C 428.375 332.164062 425.332031 335.984375 421.132812 338.308594 C 418.429688 339.804688 415.460938 340.566406 412.453125 340.566406 " fill-opacity="1" fill-rule="nonzero"/><path fill="#000000" d="M 407.484375 335.617188 L 408.429688 332.335938 C 406.550781 331.761719 404.769531 330.613281 403.863281 329.472656 L 405.269531 327.519531 C 406.21875 328.636719 407.730469 329.738281 409.550781 330.261719 C 411.859375 330.925781 413.804688 330.039062 414.335938 328.1875 C 414.851562 326.398438 413.902344 324.929688 411.773438 323.261719 C 408.832031 321.007812 407.210938 318.921875 408.023438 316.09375 C 408.800781 313.394531 411.308594 311.898438 414.441406 312.269531 L 415.382812 308.984375 L 417.398438 309.5625 L 416.492188 312.71875 C 418.425781 313.34375 419.609375 314.25 420.394531 315.070312 L 418.964844 316.984375 C 418.394531 316.398438 417.265625 315.296875 415.183594 314.703125 C 412.679688 313.980469 411.308594 315.207031 410.933594 316.507812 C 410.449219 318.199219 411.410156 319.390625 413.902344 321.371094 C 416.859375 323.703125 418.066406 325.878906 417.234375 328.773438 C 416.496094 331.339844 414.015625 333.234375 410.507812 332.824219 L 409.535156 336.207031 L 407.484375 335.617188 " fill-opacity="1" fill-rule="nonzero"/><path fill="#ffffff" d="M 379.40625 315.988281 C 384.0625 324.074219 381.285156 334.40625 373.195312 339.070312 C 365.109375 343.726562 354.777344 340.949219 350.117188 332.863281 C 345.457031 324.773438 348.234375 314.441406 356.324219 309.78125 C 364.410156 305.121094 374.746094 307.898438 379.40625 315.988281 " fill-opacity="1" fill-rule="nonzero"/><path fill="#000000" d="M 364.734375 307.917969 C 361.9375 307.917969 359.105469 308.625 356.515625 310.117188 C 352.695312 312.320312 349.960938 315.878906 348.8125 320.136719 C 347.667969 324.394531 348.25 328.847656 350.453125 332.667969 C 353.503906 337.964844 359.070312 340.933594 364.789062 340.933594 C 367.582031 340.933594 370.410156 340.222656 373.003906 338.730469 C 376.824219 336.527344 379.5625 332.972656 380.707031 328.710938 C 381.851562 324.453125 381.269531 320 379.066406 316.179688 C 376.015625 310.882812 370.449219 307.917969 364.734375 307.917969 Z M 364.789062 341.710938 C 358.804688 341.710938 352.976562 338.605469 349.78125 333.054688 C 347.472656 329.054688 346.863281 324.394531 348.0625 319.933594 C 349.265625 315.476562 352.128906 311.75 356.128906 309.445312 C 364.390625 304.6875 374.980469 307.53125 379.742188 315.792969 C 382.046875 319.792969 382.65625 324.453125 381.457031 328.914062 C 380.257812 333.371094 377.390625 337.097656 373.390625 339.40625 C 370.679688 340.96875 367.714844 341.710938 364.789062 341.710938 " fill-opacity="1" fill-rule="nonzero"/><path fill="#ffffff" d="M 376.273438 317.792969 C 379.9375 324.148438 377.75 332.273438 371.394531 335.9375 C 365.035156 339.601562 356.910156 337.414062 353.246094 331.058594 C 349.582031 324.699219 351.769531 316.574219 358.125 312.914062 C 364.484375 309.25 372.609375 311.433594 376.273438 317.792969 " fill-opacity="1" fill-rule="nonzero"/><path fill="#000000" d="M 364.738281 311.519531 C 362.507812 311.519531 360.304688 312.105469 358.320312 313.25 C 355.335938 314.96875 353.199219 317.746094 352.304688 321.074219 C 351.410156 324.402344 351.863281 327.878906 353.585938 330.863281 C 355.304688 333.851562 358.082031 335.988281 361.410156 336.878906 C 364.738281 337.773438 368.214844 337.320312 371.199219 335.601562 C 374.183594 333.882812 376.324219 331.101562 377.214844 327.773438 C 378.113281 324.445312 377.65625 320.96875 375.9375 317.984375 C 374.21875 315 371.4375 312.863281 368.109375 311.96875 C 366.996094 311.667969 365.863281 311.519531 364.738281 311.519531 Z M 364.78125 338.105469 C 363.589844 338.105469 362.390625 337.949219 361.207031 337.632812 C 357.679688 336.683594 354.734375 334.417969 352.910156 331.25 C 351.085938 328.085938 350.605469 324.402344 351.554688 320.875 C 352.5 317.347656 354.769531 314.398438 357.933594 312.574219 C 361.097656 310.75 364.785156 310.269531 368.3125 311.21875 C 371.839844 312.167969 374.789062 314.433594 376.609375 317.597656 C 378.433594 320.761719 378.914062 324.449219 377.964844 327.976562 C 377.019531 331.503906 374.753906 334.449219 371.585938 336.273438 C 369.480469 337.488281 367.144531 338.105469 364.78125 338.105469 " fill-opacity="1" fill-rule="nonzero"/><path fill="#000000" d="M 369.246094 333.953125 L 367.957031 331.714844 C 366.660156 332.433594 365.101562 332.800781 364.003906 332.695312 L 363.683594 330.902344 C 364.785156 330.976562 366.179688 330.730469 367.421875 330.019531 C 368.996094 329.109375 369.535156 327.589844 368.808594 326.328125 C 368.105469 325.109375 366.804688 324.855469 364.785156 325.132812 C 362.015625 325.546875 360.03125 325.332031 358.921875 323.40625 C 357.859375 321.570312 358.363281 319.417969 360.210938 317.914062 L 358.921875 315.675781 L 360.296875 314.882812 L 361.535156 317.03125 C 362.886719 316.3125 364 316.140625 364.863281 316.148438 L 365.148438 317.929688 C 364.53125 317.933594 363.339844 317.96875 361.921875 318.785156 C 360.21875 319.769531 360.160156 321.15625 360.671875 322.042969 C 361.335938 323.195312 362.488281 323.300781 364.875 322.984375 C 367.695312 322.601562 369.511719 323.089844 370.644531 325.0625 C 371.65625 326.8125 371.378906 329.152344 369.316406 330.84375 L 370.640625 333.148438 L 369.246094 333.953125 " fill-opacity="1" fill-rule="nonzero"/><path fill="#ffffff" d="M 342.316406 319.011719 C 339.824219 325.667969 332.410156 329.042969 325.753906 326.550781 C 319.097656 324.0625 315.722656 316.644531 318.210938 309.988281 C 320.703125 303.335938 328.117188 299.957031 334.773438 302.449219 C 341.429688 304.941406 344.808594 312.355469 342.316406 319.011719 " fill-opacity="1" fill-rule="nonzero"/><path fill="#000000" d="M 342.316406 319.011719 L 342.320312 319.011719 Z M 330.257812 302.015625 C 328.496094 302.015625 326.742188 302.394531 325.09375 303.144531 C 322.058594 304.523438 319.746094 307.003906 318.578125 310.128906 C 317.40625 313.25 317.527344 316.636719 318.90625 319.671875 C 320.289062 322.707031 322.769531 325.019531 325.890625 326.1875 C 332.335938 328.597656 339.539062 325.316406 341.953125 318.875 C 344.363281 312.429688 341.082031 305.226562 334.636719 302.8125 C 333.214844 302.28125 331.734375 302.015625 330.257812 302.015625 Z M 330.25 327.753906 C 328.710938 327.753906 327.144531 327.484375 325.621094 326.914062 C 322.304688 325.671875 319.667969 323.214844 318.199219 319.992188 C 316.730469 316.769531 316.609375 313.171875 317.847656 309.855469 C 319.089844 306.539062 321.546875 303.902344 324.769531 302.4375 C 327.992188 300.96875 331.59375 300.847656 334.910156 302.085938 C 341.753906 304.648438 345.238281 312.300781 342.679688 319.148438 C 340.6875 324.464844 335.621094 327.753906 330.25 327.753906 " fill-opacity="1" fill-rule="nonzero"/><path fill="#ffffff" d="M 339.738281 318.046875 C 337.78125 323.28125 331.949219 325.933594 326.71875 323.976562 C 321.484375 322.015625 318.832031 316.1875 320.789062 310.953125 C 322.75 305.722656 328.578125 303.070312 333.808594 305.027344 C 339.042969 306.984375 341.695312 312.8125 339.738281 318.046875 " fill-opacity="1" fill-rule="nonzero"/><path fill="#000000" d="M 330.273438 304.773438 C 326.332031 304.773438 322.613281 307.1875 321.152344 311.089844 C 319.273438 316.113281 321.832031 321.730469 326.855469 323.609375 C 331.878906 325.492188 337.496094 322.933594 339.375 317.910156 C 341.253906 312.886719 338.699219 307.269531 333.675781 305.390625 C 332.554688 304.972656 331.40625 304.773438 330.273438 304.773438 Z M 330.253906 325.003906 C 329.03125 325.003906 327.792969 324.792969 326.582031 324.339844 C 321.15625 322.308594 318.394531 316.242188 320.425781 310.820312 C 322.457031 305.394531 328.519531 302.632812 333.945312 304.660156 C 339.371094 306.691406 342.132812 312.757812 340.101562 318.183594 C 338.523438 322.398438 334.511719 325.003906 330.253906 325.003906 " fill-opacity="1" fill-rule="nonzero"/><path fill="#000000" d="M 326.84375 321.753906 L 327.53125 319.910156 C 326.480469 319.496094 325.511719 318.757812 325.042969 318.066406 L 325.9375 317.007812 C 326.429688 317.691406 327.25 318.390625 328.269531 318.773438 C 329.5625 319.257812 330.71875 318.839844 331.109375 317.796875 C 331.484375 316.796875 331.003906 315.910156 329.859375 314.859375 C 328.273438 313.433594 327.4375 312.164062 328.03125 310.578125 C 328.597656 309.066406 330.105469 308.320312 331.882812 308.671875 L 332.574219 306.832031 L 333.703125 307.253906 L 333.042969 309.023438 C 334.121094 309.46875 334.761719 310.039062 335.175781 310.546875 L 334.265625 311.582031 C 333.964844 311.21875 333.367188 310.539062 332.199219 310.101562 C 330.796875 309.574219 329.953125 310.21875 329.679688 310.949219 C 329.328125 311.894531 329.824219 312.621094 331.164062 313.871094 C 332.757812 315.339844 333.351562 316.640625 332.742188 318.265625 C 332.203125 319.707031 330.695312 320.679688 328.703125 320.289062 L 327.992188 322.183594 L 326.84375 321.753906 " fill-opacity="1" fill-rule="nonzero"/><path fill="#ffffff" d="M 478.855469 146.386719 L 179.851562 146.386719 C 177.355469 146.386719 175.332031 144.363281 175.332031 141.863281 L 175.332031 134.457031 C 175.332031 131.960938 177.355469 129.9375 179.851562 129.9375 L 478.855469 129.9375 C 481.351562 129.9375 483.378906 131.960938 483.378906 134.457031 L 483.378906 141.863281 C 483.378906 144.363281 481.351562 146.386719 478.855469 146.386719 " fill-opacity="1" fill-rule="nonzero"/><path fill="#000000" d="M 179.851562 130.324219 C 177.574219 130.324219 175.71875 132.179688 175.71875 134.457031 L 175.71875 141.863281 C 175.71875 144.144531 177.574219 146 179.851562 146 L 478.855469 146 C 481.136719 146 482.988281 144.144531 482.988281 141.863281 L 482.988281 134.457031 C 482.988281 132.179688 481.136719 130.324219 478.855469 130.324219 Z M 478.855469 146.773438 L 179.851562 146.773438 C 177.144531 146.773438 174.941406 144.570312 174.941406 141.863281 L 174.941406 134.457031 C 174.941406 131.75 177.144531 129.546875 179.851562 129.546875 L 478.855469 129.546875 C 481.5625 129.546875 483.765625 131.75 483.765625 134.457031 L 483.765625 141.863281 C 483.765625 144.570312 481.5625 146.773438 478.855469 146.773438 " fill-opacity="1" fill-rule="nonzero"/><path fill="#ffffff" d="M 183.011719 146.273438 L 306.746094 247.003906 L 306.746094 290.34375 C 306.746094 294.6875 310.863281 297.851562 315.0625 296.730469 L 341.890625 289.558594 C 344.785156 288.785156 346.796875 286.164062 346.796875 283.167969 L 346.796875 243.832031 L 473.628906 146.273438 L 183.011719 146.273438 " fill-opacity="1" fill-rule="nonzero"/><path fill="#000000" d="M 184.105469 146.664062 L 306.988281 246.703125 C 307.078125 246.773438 307.132812 246.886719 307.132812 247.003906 L 307.132812 290.34375 C 307.132812 292.292969 308.019531 294.089844 309.566406 295.277344 C 311.109375 296.464844 313.078125 296.855469 314.964844 296.355469 L 341.792969 289.183594 C 344.511719 288.457031 346.410156 285.984375 346.410156 283.167969 L 346.410156 243.832031 C 346.410156 243.710938 346.464844 243.597656 346.558594 243.523438 L 472.488281 146.664062 Z M 313.339844 297.347656 C 311.820312 297.347656 310.335938 296.847656 309.09375 295.894531 C 307.351562 294.558594 306.355469 292.535156 306.355469 290.34375 L 306.355469 247.1875 L 182.769531 146.574219 C 182.640625 146.472656 182.59375 146.300781 182.648438 146.144531 C 182.703125 145.988281 182.847656 145.886719 183.011719 145.886719 L 473.628906 145.886719 C 473.792969 145.886719 473.941406 145.992188 473.996094 146.148438 C 474.050781 146.308594 473.996094 146.480469 473.863281 146.582031 L 347.183594 244.023438 L 347.183594 283.167969 C 347.183594 286.335938 345.050781 289.117188 341.992188 289.933594 L 315.164062 297.105469 C 314.558594 297.265625 313.945312 297.347656 313.339844 297.347656 " fill-opacity="1" fill-rule="nonzero"/><path fill="#000000" d="M 231.097656 169.207031 C 231.011719 169.207031 230.925781 169.175781 230.855469 169.117188 L 214.585938 155.753906 C 214.417969 155.621094 214.394531 155.375 214.53125 155.210938 C 214.667969 155.042969 214.910156 155.019531 215.078125 155.15625 L 231.347656 168.519531 C 231.511719 168.652344 231.535156 168.898438 231.398438 169.066406 C 231.324219 169.15625 231.210938 169.207031 231.097656 169.207031 " fill-opacity="1" fill-rule="nonzero"/><path fill="#000000" d="M 302.886719 228.175781 C 302.800781 228.175781 302.710938 228.144531 302.640625 228.085938 L 237.742188 174.777344 C 237.578125 174.640625 237.550781 174.394531 237.6875 174.230469 C 237.824219 174.066406 238.066406 174.039062 238.234375 174.175781 L 303.132812 227.488281 C 303.296875 227.621094 303.320312 227.867188 303.183594 228.03125 C 303.109375 228.125 303 228.175781 302.886719 228.175781 " fill-opacity="1" fill-rule="nonzero"/><path fill="#000000" d="M 97.550781 125.460938 L 19.75 125.460938 C 19.535156 125.460938 19.363281 125.289062 19.363281 125.074219 L 19.363281 82.164062 C 19.363281 81.949219 19.535156 81.777344 19.75 81.777344 C 19.964844 81.777344 20.136719 81.949219 20.136719 82.164062 L 20.136719 124.683594 L 97.550781 124.683594 C 97.765625 124.683594 97.941406 124.859375 97.941406 125.074219 C 97.941406 125.289062 97.765625 125.460938 97.550781 125.460938 " fill-opacity="1" fill-rule="nonzero"/><path fill="#2c2f6f" d="M 32.074219 121.308594 L 25.144531 121.308594 L 25.144531 104.105469 L 32.074219 104.105469 L 32.074219 121.308594 " fill-opacity="1" fill-rule="nonzero"/><path fill="#2c2f6f" d="M 43.886719 121.308594 L 36.953125 121.308594 L 36.953125 97.171875 L 43.886719 97.171875 L 43.886719 121.308594 " fill-opacity="1" fill-rule="nonzero"/><path fill="#2c2f6f" d="M 55.699219 121.308594 L 48.765625 121.308594 L 48.765625 87.925781 L 55.699219 87.925781 L 55.699219 121.308594 " fill-opacity="1" fill-rule="nonzero"/><path fill="#2c2f6f" d="M 67.511719 121.308594 L 60.578125 121.308594 L 60.578125 91.265625 L 67.511719 91.265625 L 67.511719 121.308594 " fill-opacity="1" fill-rule="nonzero"/><path fill="#2c2f6f" d="M 79.320312 121.308594 L 72.390625 121.308594 L 72.390625 84.589844 L 79.320312 84.589844 L 79.320312 121.308594 " fill-opacity="1" fill-rule="nonzero"/><path fill="#2c2f6f" d="M 91.132812 121.308594 L 84.199219 121.308594 L 84.199219 75.089844 L 91.132812 75.089844 L 91.132812 121.308594 " fill-opacity="1" fill-rule="nonzero"/><g fill="#000000" fill-opacity="1"><g transform="translate(254.465908, 179.503097)"><g><path d="M -0.484375 0 L 2.199219 0 L 2.199219 -0.324219 C 1.410156 -0.507812 1.273438 -1.179688 1.898438 -2.730469 L 3.242188 -6.039062 L 9.421875 -6.039062 L 10.808594 -2.707031 C 11.457031 -1.179688 11.78125 -0.578125 11.015625 -0.324219 L 11.015625 0 L 15.230469 0 L 15.230469 -0.324219 C 14.695312 -0.578125 14.09375 -1.179688 13.445312 -2.707031 L 7.707031 -16.386719 L 5.4375 -15.367188 L 5.738281 -14.71875 C 5.949219 -14.304688 5.972656 -13.933594 5.785156 -13.46875 L 1.457031 -2.730469 C 0.832031 -1.179688 0.207031 -0.578125 -0.484375 -0.324219 Z M 3.378906 -6.410156 L 6.273438 -13.5625 L 9.257812 -6.410156 Z M 3.378906 -6.410156 "/></g></g></g><g fill="#000000" fill-opacity="1"><g transform="translate(268.352402, 179.503097)"><g><path d="M 1.042969 -8.75 L 3.585938 0 L 4.769531 0 L 8.054688 -9.464844 L 11.273438 0 L 12.453125 0 L 15.089844 -8.75 C 15.554688 -10.347656 15.921875 -11.015625 16.59375 -11.25 L 16.59375 -11.574219 L 14.117188 -11.574219 L 14.117188 -11.25 C 14.90625 -11.0625 15.160156 -10.347656 14.695312 -8.75 L 12.867188 -2.636719 L 9.8125 -11.574219 L 8.402344 -11.574219 L 5.300781 -2.546875 L 3.542969 -8.75 C 3.101562 -10.347656 2.917969 -10.992188 3.679688 -11.25 L 3.679688 -11.574219 L -0.277344 -11.574219 L -0.277344 -11.25 C 0.230469 -11.015625 0.578125 -10.347656 1.042969 -8.75 Z M 1.042969 -8.75 "/></g></g></g><g fill="#000000" fill-opacity="1"><g transform="translate(283.7433, 179.503097)"><g><path d="M 9.488281 0 L 11.804688 0 L 11.804688 -0.324219 C 11.039062 -0.578125 10.878906 -1.273438 10.878906 -2.9375 L 10.878906 -7.40625 C 10.878906 -10.230469 9.558594 -11.734375 6.757812 -11.734375 C 4.652344 -11.734375 2.871094 -10.667969 1.574219 -9.074219 L 1.804688 -8.863281 C 2.984375 -10.277344 4.257812 -10.832031 5.554688 -10.832031 C 7.265625 -10.832031 8.515625 -9.953125 8.5625 -7.660156 L 5.996094 -6.921875 C 3.125 -6.109375 0.695312 -5.183594 0.695312 -2.800781 C 0.695312 -0.855469 2.128906 0.230469 3.84375 0.230469 C 6.25 0.230469 7.914062 -2.058594 8.5625 -4.746094 L 8.5625 -0.925781 C 8.5625 -0.324219 8.886719 0 9.488281 0 Z M 2.847656 -3.609375 C 2.847656 -5.53125 5 -6.320312 6.085938 -6.621094 L 8.5625 -7.335938 L 8.5625 -6.734375 C 8.539062 -4.652344 7.265625 -1.457031 5 -1.457031 C 3.933594 -1.457031 2.847656 -2.082031 2.847656 -3.609375 Z M 2.847656 -3.609375 "/></g></g></g><g fill="#000000" fill-opacity="1"><g transform="translate(295.014451, 179.503097)"><g><path d="M 0.648438 0 L 4.859375 0 L 4.859375 -0.324219 C 4.097656 -0.578125 3.933594 -1.273438 3.933594 -2.9375 L 3.933594 -7.546875 C 4.003906 -8.703125 4.789062 -9.742188 5.371094 -10.230469 C 6.851562 -9.765625 7.730469 -9.535156 8.378906 -9.535156 C 9.441406 -9.535156 9.953125 -10.53125 9.953125 -11.039062 C 9.953125 -11.527344 9.257812 -11.734375 8.472656 -11.734375 C 7.359375 -11.734375 6.480469 -11.433594 5.625 -10.832031 C 4.882812 -10.324219 4.28125 -9.605469 3.933594 -8.796875 L 3.933594 -11.59375 L 3.703125 -11.78125 L 0.648438 -10.4375 L 0.648438 -10.113281 C 1.226562 -9.859375 1.574219 -9.628906 1.574219 -8.261719 L 1.574219 -2.9375 C 1.574219 -1.273438 1.410156 -0.578125 0.648438 -0.324219 Z M 0.648438 0 "/></g></g></g><g fill="#000000" fill-opacity="1"><g transform="translate(304.457182, 179.503097)"><g><path d="M 5.648438 0.277344 C 7.382812 0.324219 8.773438 -0.878906 9.652344 -1.898438 L 9.652344 -0.925781 C 9.652344 -0.324219 9.976562 0 10.578125 0 L 12.9375 0 L 12.9375 -0.324219 C 12.175781 -0.578125 12.011719 -1.273438 12.011719 -2.9375 L 12.011719 -18.539062 L 11.78125 -18.722656 L 8.726562 -17.382812 L 8.726562 -17.058594 C 9.304688 -16.804688 9.652344 -16.570312 9.652344 -15.207031 L 9.652344 -11.132812 C 8.957031 -11.480469 8.148438 -11.710938 7.175781 -11.710938 C 3.148438 -11.710938 0.71875 -8.886719 0.71875 -5.347656 C 0.71875 -2.476562 2.707031 0.230469 5.648438 0.277344 Z M 2.984375 -7.222656 C 2.984375 -9.050781 3.65625 -11.226562 6.203125 -11.226562 C 8.148438 -11.226562 9.652344 -9.210938 9.652344 -7.5 L 9.652344 -2.382812 C 8.980469 -1.667969 8.101562 -1.109375 7.082031 -1.109375 C 3.75 -1.109375 2.984375 -5.023438 2.984375 -7.222656 Z M 2.984375 -7.222656 "/></g></g></g><g fill="#000000" fill-opacity="1"><g transform="translate(316.816131, 179.503097)"><g><path d="M 1.203125 -5.578125 L 7.246094 -5.578125 L 7.246094 -5.949219 L 1.203125 -5.949219 Z M 1.203125 -5.578125 "/></g></g></g><g fill="#000000" fill-opacity="1"><g transform="translate(324.268425, 179.503097)"><g><path d="M 8.449219 -13.46875 L 10.648438 -8.078125 L 8.515625 -2.917969 L 4.46875 -13.445312 C 3.863281 -15.019531 3.5625 -15.621094 4.328125 -15.878906 L 4.328125 -16.203125 L 0.140625 -16.203125 L 0.140625 -15.878906 C 0.671875 -15.621094 1.25 -15.019531 1.828125 -13.445312 L 6.964844 0 L 7.847656 0 L 10.878906 -7.476562 L 13.933594 0 L 14.765625 0 L 19.648438 -13.445312 C 20.207031 -14.996094 20.785156 -15.621094 21.480469 -15.878906 L 21.480469 -16.203125 L 18.792969 -16.203125 L 18.792969 -15.878906 C 19.582031 -15.691406 19.765625 -14.996094 19.1875 -13.445312 L 15.367188 -2.960938 L 12.40625 -10.160156 L 13.632812 -13.445312 C 14.234375 -14.996094 14.8125 -15.621094 15.507812 -15.878906 L 15.507812 -16.203125 L 12.824219 -16.203125 L 12.824219 -15.878906 C 13.609375 -15.691406 13.792969 -14.996094 13.214844 -13.445312 L 12.199219 -10.714844 L 11.0625 -13.46875 C 10.4375 -15.019531 10.113281 -15.621094 10.878906 -15.878906 L 10.878906 -16.203125 L 6.6875 -16.203125 L 6.6875 -15.878906 C 7.222656 -15.621094 7.824219 -15.019531 8.449219 -13.46875 Z M 8.449219 -13.46875 "/></g></g></g><g fill="#000000" fill-opacity="1"><g transform="translate(344.866857, 179.503097)"><g><path d="M 0.648438 0 L 4.859375 0 L 4.859375 -0.324219 C 4.097656 -0.578125 3.933594 -1.273438 3.933594 -2.9375 L 3.933594 -11.59375 L 3.703125 -11.78125 L 0.648438 -10.4375 L 0.648438 -10.113281 C 1.226562 -9.859375 1.574219 -9.628906 1.574219 -8.261719 L 1.574219 -2.9375 C 1.574219 -1.273438 1.410156 -0.578125 0.648438 -0.324219 Z M 1.042969 -14.140625 C 1.042969 -13.261719 1.734375 -12.566406 2.617188 -12.566406 C 3.496094 -12.566406 4.1875 -13.261719 4.1875 -14.140625 C 4.1875 -15.042969 3.542969 -15.738281 2.617188 -15.738281 C 1.734375 -15.738281 1.042969 -15.042969 1.042969 -14.140625 Z M 1.042969 -14.140625 "/></g></g></g><g fill="#000000" fill-opacity="1"><g transform="translate(349.426085, 179.503097)"><g><path d="M 0.648438 0 L 4.859375 0 L 4.859375 -0.324219 C 4.097656 -0.578125 3.933594 -1.273438 3.933594 -2.9375 L 3.933594 -9.257812 C 5.183594 -10.277344 6.179688 -10.808594 7.265625 -10.808594 C 8.980469 -10.808594 9.882812 -9.582031 9.882812 -7.5 L 9.882812 -2.9375 C 9.882812 -1.273438 9.722656 -0.578125 8.957031 -0.324219 L 8.957031 0 L 13.167969 0 L 13.167969 -0.324219 C 12.40625 -0.578125 12.242188 -1.273438 12.242188 -2.9375 L 12.242188 -7.914062 C 12.242188 -10.625 10.808594 -11.734375 8.679688 -11.734375 C 6.875 -11.734375 5.207031 -10.691406 3.933594 -9.652344 L 3.933594 -11.59375 L 3.703125 -11.78125 L 0.648438 -10.4375 L 0.648438 -10.113281 C 1.226562 -9.859375 1.574219 -9.628906 1.574219 -8.261719 L 1.574219 -2.9375 C 1.574219 -1.273438 1.410156 -0.578125 0.648438 -0.324219 Z M 0.648438 0 "/></g></g></g><g fill="#000000" fill-opacity="1"><g transform="translate(362.06277, 179.503097)"><g><path d="M 0.648438 0 L 4.859375 0 L 4.859375 -0.324219 C 4.097656 -0.578125 3.933594 -1.273438 3.933594 -2.9375 L 3.933594 -9.257812 C 5.183594 -10.277344 6.179688 -10.808594 7.265625 -10.808594 C 8.980469 -10.808594 9.882812 -9.582031 9.882812 -7.5 L 9.882812 -2.9375 C 9.882812 -1.273438 9.722656 -0.578125 8.957031 -0.324219 L 8.957031 0 L 13.167969 0 L 13.167969 -0.324219 C 12.40625 -0.578125 12.242188 -1.273438 12.242188 -2.9375 L 12.242188 -7.914062 C 12.242188 -10.625 10.808594 -11.734375 8.679688 -11.734375 C 6.875 -11.734375 5.207031 -10.691406 3.933594 -9.652344 L 3.933594 -11.59375 L 3.703125 -11.78125 L 0.648438 -10.4375 L 0.648438 -10.113281 C 1.226562 -9.859375 1.574219 -9.628906 1.574219 -8.261719 L 1.574219 -2.9375 C 1.574219 -1.273438 1.410156 -0.578125 0.648438 -0.324219 Z M 0.648438 0 "/></g></g></g><g fill="#000000" fill-opacity="1"><g transform="translate(374.69945, 179.503097)"><g><path d="M 0.648438 0 L 4.859375 0 L 4.859375 -0.324219 C 4.097656 -0.578125 3.933594 -1.273438 3.933594 -2.9375 L 3.933594 -11.59375 L 3.703125 -11.78125 L 0.648438 -10.4375 L 0.648438 -10.113281 C 1.226562 -9.859375 1.574219 -9.628906 1.574219 -8.261719 L 1.574219 -2.9375 C 1.574219 -1.273438 1.410156 -0.578125 0.648438 -0.324219 Z M 1.042969 -14.140625 C 1.042969 -13.261719 1.734375 -12.566406 2.617188 -12.566406 C 3.496094 -12.566406 4.1875 -13.261719 4.1875 -14.140625 C 4.1875 -15.042969 3.542969 -15.738281 2.617188 -15.738281 C 1.734375 -15.738281 1.042969 -15.042969 1.042969 -14.140625 Z M 1.042969 -14.140625 "/></g></g></g><g fill="#000000" fill-opacity="1"><g transform="translate(379.258672, 179.503097)"><g><path d="M 0.648438 0 L 4.859375 0 L 4.859375 -0.324219 C 4.097656 -0.578125 3.933594 -1.273438 3.933594 -2.9375 L 3.933594 -9.257812 C 5.183594 -10.277344 6.179688 -10.808594 7.265625 -10.808594 C 8.980469 -10.808594 9.882812 -9.582031 9.882812 -7.5 L 9.882812 -2.9375 C 9.882812 -1.273438 9.722656 -0.578125 8.957031 -0.324219 L 8.957031 0 L 13.167969 0 L 13.167969 -0.324219 C 12.40625 -0.578125 12.242188 -1.273438 12.242188 -2.9375 L 12.242188 -7.914062 C 12.242188 -10.625 10.808594 -11.734375 8.679688 -11.734375 C 6.875 -11.734375 5.207031 -10.691406 3.933594 -9.652344 L 3.933594 -11.59375 L 3.703125 -11.78125 L 0.648438 -10.4375 L 0.648438 -10.113281 C 1.226562 -9.859375 1.574219 -9.628906 1.574219 -8.261719 L 1.574219 -2.9375 C 1.574219 -1.273438 1.410156 -0.578125 0.648438 -0.324219 Z M 0.648438 0 "/></g></g></g><g fill="#000000" fill-opacity="1"><g transform="translate(391.895352, 179.503097)"><g><path d="M 4.027344 6.410156 C 8.285156 6.410156 12.265625 3.03125 12.265625 0.507812 C 12.265625 -1.132812 11.109375 -1.574219 8.726562 -1.710938 L 5.625 -1.898438 C 3.496094 -2.011719 3.171875 -2.476562 3.171875 -2.917969 C 3.171875 -3.308594 3.449219 -3.542969 3.84375 -3.796875 C 4.558594 -3.519531 5.371094 -3.402344 6.085938 -3.402344 C 7.984375 -3.402344 10.761719 -5.207031 10.761719 -7.800781 C 10.761719 -9.789062 9.605469 -10.925781 8.125 -11.410156 C 8.355469 -11.757812 8.585938 -12.035156 8.816406 -12.21875 C 10.136719 -11.78125 10.832031 -11.574219 11.386719 -11.574219 C 12.359375 -11.574219 12.84375 -12.566406 12.84375 -12.984375 C 12.84375 -13.425781 12.21875 -13.609375 11.503906 -13.609375 C 10.53125 -13.609375 9.742188 -13.308594 9.003906 -12.777344 C 8.515625 -12.453125 8.101562 -12.011719 7.777344 -11.527344 C 7.246094 -11.664062 6.664062 -11.734375 6.085938 -11.734375 C 3.5625 -11.734375 1.367188 -9.742188 1.367188 -7.3125 C 1.367188 -5.554688 2.316406 -4.511719 3.519531 -3.933594 C 2.269531 -3.195312 1.667969 -2.570312 1.667969 -1.710938 C 1.667969 -0.742188 2.246094 -0.207031 3.21875 0.0703125 C 1.410156 1.15625 0.371094 2.359375 0.371094 3.609375 C 0.371094 5.785156 2.617188 6.410156 4.027344 6.410156 Z M 2.269531 2.476562 C 2.269531 1.710938 2.570312 0.902344 3.609375 0.160156 C 4.050781 0.230469 4.558594 0.300781 5.113281 0.324219 L 8.839844 0.507812 C 10.667969 0.601562 11.15625 1.042969 11.15625 1.78125 C 11.15625 3.402344 8.910156 5.023438 5.671875 5.023438 C 3.863281 5.023438 2.269531 4.328125 2.269531 2.476562 Z M 3.519531 -8.585938 C 3.519531 -9.976562 3.933594 -11.226562 5.324219 -11.386719 C 7.40625 -11.59375 8.632812 -8.539062 8.632812 -6.480469 C 8.632812 -5.113281 8.148438 -3.796875 6.574219 -3.796875 C 4.445312 -3.796875 3.519531 -6.6875 3.519531 -8.585938 Z M 3.519531 -8.585938 "/></g></g></g><g fill="#000000" fill-opacity="1"><g transform="translate(295.9223, 205.736175)"><g><path d="M -0.484375 0 L 2.199219 0 L 2.199219 -0.324219 C 1.410156 -0.507812 1.273438 -1.179688 1.898438 -2.730469 L 3.242188 -6.039062 L 9.421875 -6.039062 L 10.808594 -2.707031 C 11.457031 -1.179688 11.78125 -0.578125 11.015625 -0.324219 L 11.015625 0 L 15.230469 0 L 15.230469 -0.324219 C 14.695312 -0.578125 14.09375 -1.179688 13.445312 -2.707031 L 7.707031 -16.386719 L 5.4375 -15.367188 L 5.738281 -14.71875 C 5.949219 -14.304688 5.972656 -13.933594 5.785156 -13.46875 L 1.457031 -2.730469 C 0.832031 -1.179688 0.207031 -0.578125 -0.484375 -0.324219 Z M 3.378906 -6.410156 L 6.273438 -13.5625 L 9.257812 -6.410156 Z M 3.378906 -6.410156 "/></g></g></g><g fill="#000000" fill-opacity="1"><g transform="translate(309.808793, 205.736175)"><g><path d="M 4.027344 6.410156 C 8.285156 6.410156 12.265625 3.03125 12.265625 0.507812 C 12.265625 -1.132812 11.109375 -1.574219 8.726562 -1.710938 L 5.625 -1.898438 C 3.496094 -2.011719 3.171875 -2.476562 3.171875 -2.917969 C 3.171875 -3.308594 3.449219 -3.542969 3.84375 -3.796875 C 4.558594 -3.519531 5.371094 -3.402344 6.085938 -3.402344 C 7.984375 -3.402344 10.761719 -5.207031 10.761719 -7.800781 C 10.761719 -9.789062 9.605469 -10.925781 8.125 -11.410156 C 8.355469 -11.757812 8.585938 -12.035156 8.816406 -12.21875 C 10.136719 -11.78125 10.832031 -11.574219 11.386719 -11.574219 C 12.359375 -11.574219 12.84375 -12.566406 12.84375 -12.984375 C 12.84375 -13.425781 12.21875 -13.609375 11.503906 -13.609375 C 10.53125 -13.609375 9.742188 -13.308594 9.003906 -12.777344 C 8.515625 -12.453125 8.101562 -12.011719 7.777344 -11.527344 C 7.246094 -11.664062 6.664062 -11.734375 6.085938 -11.734375 C 3.5625 -11.734375 1.367188 -9.742188 1.367188 -7.3125 C 1.367188 -5.554688 2.316406 -4.511719 3.519531 -3.933594 C 2.269531 -3.195312 1.667969 -2.570312 1.667969 -1.710938 C 1.667969 -0.742188 2.246094 -0.207031 3.21875 0.0703125 C 1.410156 1.15625 0.371094 2.359375 0.371094 3.609375 C 0.371094 5.785156 2.617188 6.410156 4.027344 6.410156 Z M 2.269531 2.476562 C 2.269531 1.710938 2.570312 0.902344 3.609375 0.160156 C 4.050781 0.230469 4.558594 0.300781 5.113281 0.324219 L 8.839844 0.507812 C 10.667969 0.601562 11.15625 1.042969 11.15625 1.78125 C 11.15625 3.402344 8.910156 5.023438 5.671875 5.023438 C 3.863281 5.023438 2.269531 4.328125 2.269531 2.476562 Z M 3.519531 -8.585938 C 3.519531 -9.976562 3.933594 -11.226562 5.324219 -11.386719 C 7.40625 -11.59375 8.632812 -8.539062 8.632812 -6.480469 C 8.632812 -5.113281 8.148438 -3.796875 6.574219 -3.796875 C 4.445312 -3.796875 3.519531 -6.6875 3.519531 -8.585938 Z M 3.519531 -8.585938 "/></g></g></g><g fill="#000000" fill-opacity="1"><g transform="translate(321.172528, 205.736175)"><g><path d="M 6.203125 0.230469 C 8.886719 0.230469 10.714844 -1.621094 11.78125 -3.242188 L 11.574219 -3.472656 C 10.601562 -2.382812 9.28125 -1.644531 7.570312 -1.644531 C 4.628906 -1.644531 2.777344 -3.796875 2.777344 -6.828125 C 2.777344 -7.082031 2.800781 -7.3125 2.824219 -7.570312 L 11.59375 -7.570312 C 11.59375 -9.582031 9.929688 -11.734375 6.804688 -11.734375 C 3.796875 -11.734375 0.71875 -9.28125 0.71875 -5.347656 C 0.71875 -1.597656 3.632812 0.230469 6.203125 0.230469 Z M 2.847656 -7.890625 C 3.125 -9.699219 4.121094 -11.339844 6.085938 -11.316406 C 7.683594 -11.292969 8.957031 -9.789062 9.257812 -7.890625 Z M 2.847656 -7.890625 "/></g></g></g><g fill="#000000" fill-opacity="1"><g transform="translate(332.536262, 205.736175)"><g><path d="M 0.648438 0 L 4.859375 0 L 4.859375 -0.324219 C 4.097656 -0.578125 3.933594 -1.273438 3.933594 -2.9375 L 3.933594 -9.257812 C 5.183594 -10.277344 6.179688 -10.808594 7.265625 -10.808594 C 8.980469 -10.808594 9.882812 -9.582031 9.882812 -7.5 L 9.882812 -2.9375 C 9.882812 -1.273438 9.722656 -0.578125 8.957031 -0.324219 L 8.957031 0 L 13.167969 0 L 13.167969 -0.324219 C 12.40625 -0.578125 12.242188 -1.273438 12.242188 -2.9375 L 12.242188 -7.914062 C 12.242188 -10.625 10.808594 -11.734375 8.679688 -11.734375 C 6.875 -11.734375 5.207031 -10.691406 3.933594 -9.652344 L 3.933594 -11.59375 L 3.703125 -11.78125 L 0.648438 -10.4375 L 0.648438 -10.113281 C 1.226562 -9.859375 1.574219 -9.628906 1.574219 -8.261719 L 1.574219 -2.9375 C 1.574219 -1.273438 1.410156 -0.578125 0.648438 -0.324219 Z M 0.648438 0 "/></g></g></g><g fill="#000000" fill-opacity="1"><g transform="translate(345.172947, 205.736175)"><g><path d="M 6.203125 0.230469 C 8.886719 0.230469 10.714844 -1.621094 11.78125 -3.242188 L 11.574219 -3.472656 C 10.601562 -2.382812 9.28125 -1.644531 7.570312 -1.644531 C 4.628906 -1.644531 2.777344 -3.796875 2.777344 -6.828125 C 2.777344 -9.050781 4.074219 -11.039062 6.085938 -11.339844 C 7.871094 -9.628906 8.910156 -8.910156 9.558594 -8.910156 C 10.253906 -8.910156 11.132812 -9.699219 11.132812 -10.414062 C 11.132812 -11.0625 9.441406 -11.734375 6.964844 -11.734375 C 3.726562 -11.734375 0.71875 -9.234375 0.71875 -5.347656 C 0.71875 -1.757812 3.355469 0.230469 6.203125 0.230469 Z M 6.203125 0.230469 "/></g></g></g><g fill="#000000" fill-opacity="1"><g transform="translate(356.39782, 205.736175)"><g><path d="M 0.832031 4.46875 C 2.960938 4.421875 4.582031 3.355469 6.339844 -0.695312 L 9.882812 -8.886719 C 10.554688 -10.414062 11.203125 -10.992188 11.898438 -11.25 L 11.898438 -11.574219 L 9.257812 -11.574219 L 9.257812 -11.25 C 10.046875 -11.0625 10.160156 -10.414062 9.511719 -8.863281 L 6.921875 -2.871094 L 4.28125 -8.886719 C 3.609375 -10.414062 3.261719 -10.992188 4.027344 -11.25 L 4.027344 -11.574219 L -0.0703125 -11.574219 L -0.0703125 -11.25 C 0.464844 -10.992188 1.085938 -10.414062 1.734375 -8.863281 L 5.625 0.117188 C 5.113281 1.179688 4.558594 2.082031 4.003906 2.683594 C 2.800781 2.476562 1.527344 2.269531 0.855469 2.269531 C -0.230469 2.269531 -0.855469 3.285156 -0.855469 3.726562 C -0.855469 4.1875 -0.117188 4.488281 0.832031 4.46875 Z M 0.832031 4.46875 "/></g></g></g><g fill="#000000" fill-opacity="1"><g transform="translate(367.101982, 205.736175)"><g/></g></g></svg>