<svg xmlns="http://www.w3.org/2000/svg" xmlns:xlink="http://www.w3.org/1999/xlink" width="160" zoomAndPan="magnify" viewBox="0 0 120 37.5" height="50" preserveAspectRatio="xMidYMid meet" version="1.0"><defs><g/><clipPath id="c4c6406b7d"><path d="M 2.195312 2.144531 L 117.65625 2.144531 L 117.65625 34.710938 L 2.195312 34.710938 Z M 2.195312 2.144531 " clip-rule="nonzero"/></clipPath><clipPath id="fd78ac30ee"><path d="M 3.6875 2.144531 L 116.304688 2.144531 C 116.695312 2.144531 117.074219 2.300781 117.351562 2.578125 C 117.628906 2.855469 117.785156 3.234375 117.785156 3.625 L 117.785156 33.371094 C 117.785156 33.761719 117.628906 34.140625 117.351562 34.417969 C 117.074219 34.695312 116.695312 34.851562 116.304688 34.851562 L 3.6875 34.851562 C 3.292969 34.851562 2.917969 34.695312 2.640625 34.417969 C 2.363281 34.140625 2.207031 33.761719 2.207031 33.371094 L 2.207031 3.625 C 2.207031 3.234375 2.363281 2.855469 2.640625 2.578125 C 2.917969 2.300781 3.292969 2.144531 3.6875 2.144531 Z M 3.6875 2.144531 " clip-rule="nonzero"/></clipPath></defs><g clip-path="url(#c4c6406b7d)"><g clip-path="url(#fd78ac30ee)"><path stroke-linecap="butt" transform="matrix(0.740132, 0, 0, 0.740132, 2.207448, 2.146382)" fill="none" stroke-linejoin="miter" d="M 1.999714 -0.00250121 L 154.158054 -0.00250121 C 154.685832 -0.00250121 155.197776 0.20861 155.572499 0.583332 C 155.947221 0.958054 156.158332 1.469999 156.158332 1.997777 L 156.158332 42.188056 C 156.158332 42.715834 155.947221 43.227778 155.572499 43.602501 C 155.197776 43.977223 154.685832 44.188334 154.158054 44.188334 L 1.999714 44.188334 C 1.466659 44.188334 0.959992 43.977223 0.58527 43.602501 C 0.210548 43.227778 -0.000563518 42.715834 -0.000563518 42.188056 L -0.000563518 1.997777 C -0.000563518 1.469999 0.210548 0.958054 0.58527 0.583332 C 0.959992 0.20861 1.466659 -0.00250121 1.999714 -0.00250121 Z M 1.999714 -0.00250121 " stroke="#ffc107" stroke-width="4" stroke-opacity="1" stroke-miterlimit="4"/></g></g><g fill="#17053f" fill-opacity="1"><g transform="translate(20.448609, 21.488806)"><g><path d="M 7.976562 -11.667969 C 7.515625 -11.667969 7.054688 -11.632812 6.609375 -11.632812 C 6.195312 -11.632812 5.800781 -11.617188 5.386719 -11.667969 C 5.207031 -11.683594 5.027344 -11.648438 4.859375 -11.632812 C 4.597656 -11.039062 4.433594 -10.449219 4.1875 -9.886719 C 3.921875 -9.277344 3.773438 -8.636719 3.460938 -8.042969 C 3.230469 -7.613281 3.164062 -7.117188 2.984375 -6.675781 C 2.851562 -6.378906 2.785156 -6.046875 2.652344 -5.765625 C 2.355469 -5.15625 2.109375 -4.515625 1.84375 -3.890625 C 1.714844 -3.574219 1.632812 -3.261719 1.484375 -2.964844 C 1.253906 -2.539062 1.105469 -2.078125 0.957031 -1.632812 C 0.824219 -1.203125 0.609375 -0.808594 0.445312 -0.394531 C 0.378906 -0.214844 0.410156 -0.117188 0.476562 0 C 0.988281 -0.015625 1.484375 -0.0507812 2.058594 -0.03125 C 2.226562 -0.296875 2.308594 -0.691406 2.472656 -1.039062 C 2.652344 -1.417969 2.785156 -1.796875 2.949219 -2.207031 C 4.367188 -2.125 5.785156 -2.324219 7.21875 -2.191406 C 7.480469 -1.449219 7.792969 -0.707031 8.042969 0.03125 C 8.191406 0.0976562 8.320312 0 8.4375 0.015625 C 9.195312 0.03125 9.953125 0.015625 10.710938 -0.03125 C 11.1875 -0.0664062 11.667969 0 12.144531 -0.0820312 C 12.292969 -0.117188 12.492188 -0.015625 12.605469 -0.230469 C 11.023438 -3.972656 9.773438 -7.84375 8.15625 -11.601562 C 8.125 -11.617188 8.042969 -11.667969 7.976562 -11.667969 Z M 5.175781 -7.960938 C 5.683594 -6.609375 6.113281 -5.222656 6.625 -3.855469 C 5.585938 -3.824219 4.582031 -3.757812 3.574219 -3.824219 C 4.136719 -5.175781 4.53125 -6.609375 5.175781 -7.960938 Z M 5.175781 -7.960938 "/></g></g></g><g fill="#17053f" fill-opacity="1"><g transform="translate(32.768495, 21.488806)"><g><path d="M 15.324219 -11.566406 C 15.277344 -11.566406 15.175781 -11.566406 15.109375 -11.550781 C 14.550781 -11.550781 13.992188 -11.535156 13.429688 -11.503906 C 13.167969 -11.484375 12.886719 -11.46875 12.621094 -11.46875 C 12.160156 -11.46875 11.714844 -11.503906 11.253906 -11.503906 C 11.074219 -11.519531 11.007812 -11.453125 10.941406 -11.320312 C 10.808594 -11.039062 10.695312 -10.742188 10.546875 -10.464844 C 10.234375 -9.871094 9.921875 -9.277344 9.605469 -8.699219 C 9.425781 -8.339844 9.195312 -7.976562 9.015625 -7.613281 C 8.847656 -7.25 8.636719 -6.921875 8.519531 -6.542969 C 8.46875 -6.394531 8.371094 -6.261719 8.289062 -6.113281 C 7.84375 -6.675781 7.496094 -7.285156 7.152344 -7.925781 C 6.839844 -8.46875 6.460938 -8.964844 6.179688 -9.523438 C 5.851562 -10.183594 5.4375 -10.808594 5.175781 -11.503906 C 5.140625 -11.566406 5.074219 -11.566406 4.976562 -11.566406 C 4.859375 -11.566406 4.730469 -11.550781 4.613281 -11.550781 C 4.039062 -11.535156 3.445312 -11.550781 2.867188 -11.550781 C 2.257812 -11.535156 1.699219 -11.503906 1.070312 -11.550781 C 1.023438 -11.417969 0.972656 -11.304688 1.003906 -11.15625 C 1.023438 -10.992188 0.988281 -10.808594 1.003906 -10.613281 C 1.023438 -10.316406 1.039062 -10.019531 1.039062 -9.707031 C 1.023438 -9.277344 1.085938 -8.867188 1.054688 -8.4375 C 1.023438 -8.023438 1.070312 -7.613281 1.070312 -7.183594 L 1.070312 -5.601562 C 1.070312 -5.109375 1.070312 -4.628906 1.085938 -4.152344 L 1.070312 -2.257812 C 1.085938 -1.894531 1.070312 -1.53125 1.054688 -1.1875 C 1.039062 -0.855469 1.070312 -0.511719 1.039062 -0.199219 C 1.039062 -0.0976562 1.105469 -0.015625 1.21875 -0.0507812 C 1.613281 -0.132812 2.242188 -0.0664062 2.636719 -0.0820312 C 2.816406 -0.0976562 2.734375 -0.445312 2.734375 -0.511719 C 2.71875 -0.90625 2.75 -1.269531 2.734375 -1.648438 C 2.703125 -2.308594 2.703125 -2.984375 2.71875 -3.660156 C 2.734375 -4.070312 2.734375 -4.515625 2.71875 -4.945312 C 2.71875 -5.273438 2.703125 -5.601562 2.6875 -5.933594 C 2.6875 -6.082031 2.734375 -6.246094 2.703125 -6.378906 C 2.652344 -6.675781 2.6875 -6.953125 2.652344 -7.285156 C 2.816406 -7.070312 2.898438 -6.886719 3.015625 -6.707031 C 3.179688 -6.441406 3.363281 -6.164062 3.542969 -5.914062 C 3.804688 -5.570312 4.003906 -5.207031 4.21875 -4.84375 C 4.546875 -4.316406 4.878906 -3.757812 5.222656 -3.230469 C 5.40625 -2.933594 5.601562 -2.652344 5.785156 -2.355469 C 5.832031 -2.289062 5.882812 -2.242188 5.949219 -2.242188 C 6.097656 -2.242188 6.246094 -2.242188 6.394531 -2.257812 C 7.003906 -2.289062 7.628906 -2.390625 8.222656 -2.257812 C 8.402344 -2.226562 8.503906 -2.289062 8.570312 -2.457031 C 8.75 -2.917969 8.949219 -3.363281 9.179688 -3.789062 C 9.65625 -4.730469 10.117188 -5.652344 10.613281 -6.574219 C 10.726562 -6.773438 10.859375 -6.953125 11.007812 -7.152344 C 11.089844 -6.359375 10.976562 -5.601562 10.992188 -4.828125 C 11.007812 -4.332031 11.023438 -3.804688 10.992188 -3.296875 C 10.941406 -2.636719 10.941406 -1.992188 10.941406 -1.335938 C 10.925781 -0.921875 10.890625 -0.230469 10.957031 -0.0664062 C 11.074219 -0.03125 11.105469 0.015625 11.207031 0 C 11.585938 -0.0664062 11.964844 -0.015625 12.34375 0 C 13.167969 0.03125 13.992188 -0.0976562 14.796875 -0.0820312 L 15.390625 -0.0820312 C 15.507812 -0.179688 15.523438 -0.296875 15.507812 -0.429688 C 15.507812 -0.675781 15.488281 -0.957031 15.488281 -1.203125 C 15.488281 -1.449219 15.507812 -1.714844 15.472656 -1.960938 C 15.441406 -2.308594 15.457031 -2.636719 15.441406 -2.984375 C 15.425781 -3.34375 15.425781 -3.691406 15.441406 -4.054688 C 15.441406 -4.332031 15.390625 -4.597656 15.40625 -4.859375 C 15.441406 -5.488281 15.457031 -6.113281 15.457031 -6.757812 C 15.457031 -7.101562 15.425781 -7.480469 15.457031 -7.828125 C 15.472656 -8.15625 15.441406 -8.46875 15.441406 -8.800781 C 15.457031 -9.210938 15.40625 -9.625 15.375 -10.035156 L 15.375 -11.289062 C 15.375 -11.402344 15.457031 -11.484375 15.324219 -11.566406 Z M 15.324219 -11.566406 "/></g></g></g><g fill="#17053f" fill-opacity="1"><g transform="translate(48.559531, 21.488806)"><g><path d="M 7.976562 -11.667969 C 7.515625 -11.667969 7.054688 -11.632812 6.609375 -11.632812 C 6.195312 -11.632812 5.800781 -11.617188 5.386719 -11.667969 C 5.207031 -11.683594 5.027344 -11.648438 4.859375 -11.632812 C 4.597656 -11.039062 4.433594 -10.449219 4.1875 -9.886719 C 3.921875 -9.277344 3.773438 -8.636719 3.460938 -8.042969 C 3.230469 -7.613281 3.164062 -7.117188 2.984375 -6.675781 C 2.851562 -6.378906 2.785156 -6.046875 2.652344 -5.765625 C 2.355469 -5.15625 2.109375 -4.515625 1.84375 -3.890625 C 1.714844 -3.574219 1.632812 -3.261719 1.484375 -2.964844 C 1.253906 -2.539062 1.105469 -2.078125 0.957031 -1.632812 C 0.824219 -1.203125 0.609375 -0.808594 0.445312 -0.394531 C 0.378906 -0.214844 0.410156 -0.117188 0.476562 0 C 0.988281 -0.015625 1.484375 -0.0507812 2.058594 -0.03125 C 2.226562 -0.296875 2.308594 -0.691406 2.472656 -1.039062 C 2.652344 -1.417969 2.785156 -1.796875 2.949219 -2.207031 C 4.367188 -2.125 5.785156 -2.324219 7.21875 -2.191406 C 7.480469 -1.449219 7.792969 -0.707031 8.042969 0.03125 C 8.191406 0.0976562 8.320312 0 8.4375 0.015625 C 9.195312 0.03125 9.953125 0.015625 10.710938 -0.03125 C 11.1875 -0.0664062 11.667969 0 12.144531 -0.0820312 C 12.292969 -0.117188 12.492188 -0.015625 12.605469 -0.230469 C 11.023438 -3.972656 9.773438 -7.84375 8.15625 -11.601562 C 8.125 -11.617188 8.042969 -11.667969 7.976562 -11.667969 Z M 5.175781 -7.960938 C 5.683594 -6.609375 6.113281 -5.222656 6.625 -3.855469 C 5.585938 -3.824219 4.582031 -3.757812 3.574219 -3.824219 C 4.136719 -5.175781 4.53125 -6.609375 5.175781 -7.960938 Z M 5.175781 -7.960938 "/></g></g></g><g fill="#17053f" fill-opacity="1"><g transform="translate(60.879419, 21.488806)"><g><path d="M 11.171875 -11.566406 C 9.507812 -11.503906 7.8125 -11.648438 6.113281 -11.535156 C 4.417969 -11.417969 2.71875 -11.585938 0.988281 -11.4375 C 1.054688 -10.875 0.988281 -10.363281 1.085938 -9.871094 C 1.234375 -9.753906 1.367188 -9.722656 1.5 -9.738281 C 2.09375 -9.820312 2.667969 -9.773438 3.261719 -9.804688 C 4.136719 -9.855469 5.007812 -9.886719 5.882812 -9.871094 C 5.980469 -9.871094 6.097656 -9.902344 6.179688 -9.855469 C 6.210938 -9.738281 6.148438 -9.671875 6.113281 -9.625 C 5.851562 -9.179688 5.554688 -8.765625 5.257812 -8.355469 C 4.84375 -7.761719 4.480469 -7.136719 4.070312 -6.542969 C 3.476562 -5.667969 2.949219 -4.746094 2.324219 -3.890625 C 1.960938 -3.394531 1.679688 -2.835938 1.253906 -2.40625 C 0.90625 -2.058594 0.789062 -1.714844 0.855469 -1.253906 C 0.90625 -0.890625 0.875 -0.511719 0.875 -0.132812 C 0.988281 -0.03125 1.085938 -0.0507812 1.1875 -0.03125 C 1.566406 -0.015625 1.929688 0 2.308594 0 C 3.59375 0.0507812 4.878906 0 6.164062 0.03125 C 7.003906 0.0507812 7.859375 0.03125 8.699219 0 C 9.425781 -0.03125 10.132812 -0.0820312 10.859375 -0.0507812 C 11.089844 -0.03125 11.304688 -0.0820312 11.519531 -0.148438 C 11.585938 -0.855469 11.550781 -1.316406 11.386719 -1.679688 C 9.707031 -1.550781 7.992188 -1.597656 6.246094 -1.582031 C 6.425781 -1.976562 6.675781 -2.257812 6.871094 -2.570312 C 7.433594 -3.410156 7.960938 -4.234375 8.503906 -5.09375 C 8.949219 -5.800781 9.425781 -6.492188 9.804688 -7.265625 C 10.070312 -7.8125 10.414062 -8.304688 10.777344 -8.816406 C 10.957031 -9.0625 11.140625 -9.425781 11.304688 -9.707031 C 11.304688 -9.96875 11.371094 -10.167969 11.335938 -10.496094 C 11.304688 -10.761719 11.320312 -11.058594 11.320312 -11.320312 C 11.304688 -11.417969 11.304688 -11.503906 11.171875 -11.566406 Z M 11.171875 -11.566406 "/></g></g></g><g fill="#17053f" fill-opacity="1"><g transform="translate(72.327407, 21.488806)"><g><path d="M 7.960938 -11.734375 C 7.582031 -11.765625 7.199219 -11.75 6.820312 -11.714844 C 6.507812 -11.683594 6.179688 -11.648438 5.867188 -11.566406 C 5.570312 -11.503906 5.191406 -11.386719 4.992188 -11.320312 C 4.480469 -11.171875 4.25 -11.023438 3.757812 -10.84375 C 3.148438 -10.597656 2.667969 -10.152344 2.273438 -9.65625 C 1.992188 -9.328125 1.746094 -8.949219 1.515625 -8.570312 C 1.203125 -8.023438 1.003906 -7.464844 0.839844 -6.871094 C 0.742188 -6.492188 0.691406 -4.960938 0.789062 -4.613281 C 0.921875 -4.167969 1.234375 -3.148438 1.484375 -2.75 C 1.632812 -2.519531 1.78125 -2.273438 1.976562 -2.09375 C 2.289062 -1.78125 2.472656 -1.382812 2.867188 -1.152344 C 3.066406 -1.039062 3.261719 -0.90625 3.445312 -0.757812 C 3.742188 -0.527344 4.121094 -0.460938 4.464844 -0.296875 C 4.859375 -0.0820312 5.324219 -0.0664062 5.75 0.0507812 C 6.195312 0.148438 6.65625 0.148438 7.101562 0.214844 C 7.367188 0.246094 7.628906 0.230469 7.894531 0.230469 C 8.320312 0.230469 8.488281 0.214844 8.949219 0.132812 C 9.359375 0.0664062 9.789062 0.0664062 10.199219 -0.0820312 C 10.53125 -0.214844 10.859375 -0.328125 11.15625 -0.511719 C 11.683594 -0.808594 12.195312 -1.136719 12.574219 -1.632812 C 12.902344 -2.042969 13.183594 -2.488281 13.414062 -2.964844 C 13.59375 -3.363281 13.726562 -3.789062 13.84375 -4.21875 C 14.054688 -4.992188 14.15625 -5.765625 14.054688 -6.527344 C 14.054688 -7.070312 13.890625 -7.515625 13.757812 -7.976562 C 13.578125 -8.636719 13.214844 -9.195312 12.753906 -9.6875 C 12.390625 -10.085938 11.964844 -10.414062 11.519531 -10.710938 C 11.371094 -10.808594 11.222656 -10.976562 11.074219 -11.023438 C 10.679688 -11.15625 10.332031 -11.402344 9.902344 -11.453125 C 9.558594 -11.503906 9.210938 -11.667969 8.847656 -11.683594 Z M 7.316406 -10.035156 C 7.5625 -10.117188 8.191406 -10.019531 8.339844 -9.820312 C 8.585938 -9.492188 8.71875 -9.144531 8.847656 -8.71875 C 9.113281 -8.140625 8.996094 -7.597656 9.113281 -6.96875 C 9.144531 -6.738281 9.144531 -6.492188 9.144531 -6.261719 C 9.144531 -5.601562 9.160156 -4.960938 9.097656 -4.300781 C 9.03125 -3.640625 8.898438 -3 8.71875 -2.371094 C 8.601562 -2.011719 8.371094 -1.730469 8.058594 -1.53125 C 7.84375 -1.382812 7.582031 -1.402344 7.316406 -1.5 C 6.855469 -1.648438 6.589844 -1.992188 6.359375 -2.390625 C 6.015625 -2.984375 5.898438 -3.640625 5.765625 -4.300781 C 5.71875 -4.515625 5.71875 -4.761719 5.703125 -4.992188 C 5.667969 -5.355469 5.601562 -5.785156 5.652344 -6.148438 C 5.734375 -6.90625 5.785156 -7.582031 6.015625 -8.304688 C 6.148438 -8.683594 6.246094 -9.0625 6.460938 -9.394531 C 6.625 -9.671875 6.988281 -9.9375 7.316406 -10.035156 Z M 7.316406 -10.035156 "/></g></g></g><g fill="#17053f" fill-opacity="1"><g transform="translate(86.423984, 21.488806)"><g><path d="M 12.390625 -11.566406 C 12.09375 -11.535156 11.796875 -11.550781 11.503906 -11.535156 C 11.320312 -11.535156 11.140625 -11.484375 10.941406 -11.4375 C 11.039062 -9.0625 10.941406 -6.707031 10.992188 -4.316406 C 9.128906 -6.589844 7.367188 -8.949219 5.601562 -11.253906 C 5.570312 -11.355469 5.488281 -11.417969 5.40625 -11.503906 C 3.890625 -11.535156 2.519531 -11.386719 1.023438 -11.453125 C 0.972656 -11.304688 0.988281 -11.222656 0.988281 -11.125 C 1.054688 -10.546875 1.054688 -9.984375 1.054688 -9.410156 C 1.054688 -8.914062 1.023438 -8.421875 1.054688 -7.925781 C 1.085938 -7.644531 1.105469 -7.367188 1.085938 -7.085938 C 1.039062 -6.574219 1.054688 -6.0625 1.070312 -5.570312 C 1.105469 -4.796875 1.152344 -4.039062 1.152344 -3.261719 C 1.136719 -2.734375 1.136719 -2.226562 1.105469 -1.699219 C 1.085938 -1.1875 1.085938 -0.726562 1.085938 -0.214844 C 1.085938 -0.132812 1.085938 -0.03125 1.1875 0.03125 C 1.761719 -0.132812 2.371094 0.0820312 2.917969 -0.0976562 C 2.851562 -0.890625 2.933594 -1.664062 2.867188 -2.4375 C 2.816406 -3.214844 2.800781 -4.003906 2.769531 -4.777344 C 2.75 -5.570312 2.785156 -6.34375 2.71875 -7.136719 C 4.597656 -4.8125 6.394531 -2.4375 8.089844 0 C 8.125 0.03125 10.167969 -0.015625 10.53125 0 C 11.125 0.015625 11.535156 -0.03125 12.128906 -0.03125 C 12.210938 -0.03125 12.425781 0 12.492188 -0.015625 C 12.621094 -0.03125 12.671875 -0.117188 12.671875 -0.230469 C 12.671875 -0.363281 12.671875 -0.496094 12.65625 -0.625 C 12.589844 -1.316406 12.671875 -1.992188 12.640625 -2.6875 C 12.605469 -3.097656 12.640625 -3.527344 12.621094 -3.9375 C 12.589844 -4.566406 12.574219 -5.191406 12.589844 -5.800781 C 12.621094 -6.476562 12.589844 -7.152344 12.605469 -7.828125 C 12.621094 -8.304688 12.605469 -8.78125 12.589844 -9.277344 C 12.574219 -9.523438 12.558594 -9.789062 12.574219 -10.035156 C 12.605469 -10.511719 12.621094 -10.992188 12.621094 -11.46875 C 12.558594 -11.550781 12.492188 -11.585938 12.390625 -11.566406 Z M 12.390625 -11.566406 "/></g></g></g></svg>