<svg xmlns="http://www.w3.org/2000/svg" xmlns:xlink="http://www.w3.org/1999/xlink" width="160" zoomAndPan="magnify" viewBox="0 0 120 37.5" height="50" preserveAspectRatio="xMidYMid meet" version="1.0"><defs><g/><clipPath id="de75c2a5f8"><path d="M 2.195312 2.144531 L 117.65625 2.144531 L 117.65625 34.710938 L 2.195312 34.710938 Z M 2.195312 2.144531 " clip-rule="nonzero"/></clipPath><clipPath id="3b594c9263"><path d="M 3.6875 2.144531 L 116.304688 2.144531 C 116.695312 2.144531 117.074219 2.300781 117.351562 2.578125 C 117.628906 2.855469 117.785156 3.234375 117.785156 3.625 L 117.785156 33.371094 C 117.785156 33.761719 117.628906 34.140625 117.351562 34.417969 C 117.074219 34.695312 116.695312 34.851562 116.304688 34.851562 L 3.6875 34.851562 C 3.292969 34.851562 2.917969 34.695312 2.640625 34.417969 C 2.363281 34.140625 2.207031 33.761719 2.207031 33.371094 L 2.207031 3.625 C 2.207031 3.234375 2.363281 2.855469 2.640625 2.578125 C 2.917969 2.300781 3.292969 2.144531 3.6875 2.144531 Z M 3.6875 2.144531 " clip-rule="nonzero"/></clipPath></defs><g clip-path="url(#de75c2a5f8)"><g clip-path="url(#3b594c9263)"><path stroke-linecap="butt" transform="matrix(0.740132, 0, 0, 0.740132, 2.207448, 2.146382)" fill="none" stroke-linejoin="miter" d="M 1.999714 -0.00250121 L 154.158054 -0.00250121 C 154.685832 -0.00250121 155.197776 0.20861 155.572499 0.583332 C 155.947221 0.958054 156.158332 1.469999 156.158332 1.997777 L 156.158332 42.188056 C 156.158332 42.715834 155.947221 43.227778 155.572499 43.602501 C 155.197776 43.977223 154.685832 44.188334 154.158054 44.188334 L 1.999714 44.188334 C 1.466659 44.188334 0.959992 43.977223 0.58527 43.602501 C 0.210548 43.227778 -0.000563518 42.715834 -0.000563518 42.188056 L -0.000563518 1.997777 C -0.000563518 1.469999 0.210548 0.958054 0.58527 0.583332 C 0.959992 0.20861 1.466659 -0.00250121 1.999714 -0.00250121 Z M 1.999714 -0.00250121 " stroke="#ffc107" stroke-width="4" stroke-opacity="1" stroke-miterlimit="4"/></g></g><g fill="#17053f" fill-opacity="1"><g transform="translate(38.663104, 23.314145)"><g><path d="M 7.421875 -11.757812 C 7.105469 -11.757812 6.792969 -11.691406 6.480469 -11.675781 C 6.003906 -11.640625 5.523438 -11.511719 5.0625 -11.363281 C 4.351562 -11.164062 3.695312 -10.835938 3.082031 -10.4375 C 2.917969 -10.324219 2.738281 -10.242188 2.621094 -10.09375 C 2.390625 -9.828125 2.144531 -9.597656 1.945312 -9.300781 C 1.648438 -8.871094 1.351562 -8.441406 1.136719 -7.949219 C 1.070312 -7.800781 0.988281 -7.636719 0.957031 -7.46875 C 0.921875 -7.207031 0.859375 -6.941406 0.808594 -6.679688 C 0.742188 -6.347656 0.742188 -6.019531 0.742188 -5.6875 C 0.742188 -5.410156 0.808594 -5.144531 0.824219 -4.863281 C 0.839844 -4.535156 1.21875 -3.230469 1.300781 -3.066406 C 1.550781 -2.523438 2.210938 -1.5 2.539062 -1.320312 C 2.785156 -1.171875 3 -0.972656 3.25 -0.839844 C 3.875 -0.496094 4.5 -0.199219 5.195312 -0.03125 C 5.773438 0.0976562 6.363281 0.230469 6.992188 0.214844 C 7.453125 0.214844 7.914062 0.28125 8.378906 0.246094 C 9.003906 0.179688 9.613281 0.0976562 10.207031 -0.0976562 C 10.800781 -0.296875 11.378906 -0.5625 11.9375 -0.824219 C 12.253906 -0.972656 12.515625 -1.171875 12.8125 -1.335938 C 13.078125 -1.484375 13.09375 -1.699219 12.929688 -1.929688 C 12.761719 -2.128906 12.632812 -2.339844 12.464844 -2.523438 C 12.351562 -2.671875 12.269531 -2.835938 12.152344 -2.96875 C 12.070312 -2.984375 11.988281 -2.953125 11.890625 -2.902344 C 11.625 -2.6875 11.363281 -2.472656 11.046875 -2.324219 C 10.488281 -2.042969 9.894531 -1.847656 9.300781 -1.714844 C 9.101562 -1.664062 8.886719 -1.648438 8.722656 -1.664062 C 8.378906 -1.714844 8.03125 -1.714844 7.683594 -1.8125 C 7.273438 -1.929688 6.925781 -2.128906 6.5625 -2.339844 C 6.449219 -2.40625 6.332031 -2.488281 6.25 -2.605469 C 5.855469 -3.101562 5.539062 -3.546875 5.390625 -4.269531 C 5.328125 -4.601562 5.160156 -4.898438 5.261719 -6.363281 C 5.328125 -6.859375 5.492188 -7.421875 5.671875 -7.882812 C 5.820312 -8.230469 6.019531 -8.542969 6.265625 -8.820312 C 6.464844 -9.035156 6.597656 -9.300781 6.859375 -9.464844 C 7.089844 -9.613281 7.339844 -9.746094 7.601562 -9.828125 C 7.867188 -9.910156 8.082031 -9.976562 8.410156 -9.976562 C 8.773438 -9.976562 9.101562 -9.859375 9.449219 -9.761719 C 10.007812 -9.613281 10.390625 -9.300781 10.601562 -8.757812 C 10.734375 -8.425781 10.75 -8.410156 11.097656 -8.425781 C 11.164062 -8.441406 11.328125 -8.441406 11.378906 -8.441406 C 11.722656 -8.441406 11.972656 -8.394531 12.316406 -8.410156 C 12.449219 -8.410156 12.648438 -8.378906 12.699219 -8.410156 C 12.761719 -8.441406 12.664062 -8.691406 12.648438 -8.789062 C 12.597656 -9.085938 12.464844 -9.332031 12.367188 -9.597656 C 12.316406 -9.746094 12.234375 -9.859375 12.152344 -9.992188 C 11.742188 -10.570312 11.128906 -10.898438 10.519531 -11.214844 C 9.730469 -11.609375 8.855469 -11.707031 7.964844 -11.722656 C 7.785156 -11.742188 7.601562 -11.757812 7.421875 -11.757812 Z M 7.421875 -11.757812 "/></g></g></g><g fill="#17053f" fill-opacity="1"><g transform="translate(51.714234, 23.314145)"><g><path d="M 8.773438 -11.574219 C 7.519531 -11.59375 6.265625 -11.425781 5.011719 -11.476562 C 4.417969 -11.492188 3.824219 -11.460938 3.230469 -11.460938 C 2.621094 -11.460938 2.011719 -11.511719 1.402344 -11.476562 C 1.269531 -11.476562 1.15625 -11.460938 1.054688 -11.3125 C 1.054688 -10.40625 1.039062 -9.464844 1.054688 -8.527344 L 1.054688 -2.851562 C 1.039062 -1.929688 0.972656 -0.988281 1.007812 -0.03125 L 5.523438 -0.03125 C 5.523438 -1.367188 5.390625 -2.65625 5.476562 -3.957031 C 6.628906 -2.65625 7.667969 -1.300781 8.90625 -0.03125 C 8.988281 -0.03125 9.117188 -0.0507812 9.265625 -0.03125 C 9.910156 0.015625 10.554688 -0.0507812 11.195312 0.03125 C 11.972656 0.0976562 12.730469 0.0976562 13.503906 0.0664062 C 13.636719 0.0664062 13.71875 0.015625 13.800781 -0.148438 C 13.226562 -0.824219 12.582031 -1.46875 11.972656 -2.144531 C 11.363281 -2.820312 10.75 -3.511719 10.125 -4.222656 C 10.324219 -4.269531 10.488281 -4.320312 10.667969 -4.386719 C 11.59375 -4.683594 12.269531 -5.292969 12.648438 -6.183594 C 13.027344 -7.023438 13.027344 -7.914062 12.847656 -8.804688 C 12.597656 -9.960938 11.808594 -10.6875 10.785156 -11.148438 C 10.421875 -11.296875 10.074219 -11.492188 9.664062 -11.527344 C 9.367188 -11.558594 9.070312 -11.574219 8.773438 -11.574219 Z M 6.117188 -9.710938 C 6.578125 -9.710938 7.023438 -9.746094 7.488281 -9.597656 C 7.785156 -9.515625 8.03125 -9.351562 8.195312 -9.085938 C 8.378906 -8.789062 8.558594 -8.476562 8.527344 -8.082031 C 8.527344 -7.847656 8.574219 -7.617188 8.574219 -7.386719 C 8.574219 -6.5625 8.164062 -6.167969 7.453125 -5.902344 C 7.273438 -5.820312 7.058594 -5.789062 6.84375 -5.804688 C 6.414062 -5.820312 6.003906 -5.773438 5.523438 -5.835938 C 5.476562 -7.125 5.425781 -8.394531 5.507812 -9.664062 C 5.722656 -9.777344 5.9375 -9.730469 6.117188 -9.710938 Z M 6.117188 -9.710938 "/></g></g></g><g fill="#17053f" fill-opacity="1"><g transform="translate(65.243272, 23.314145)"><g><path d="M 7.964844 -11.742188 C 7.585938 -11.773438 7.207031 -11.757812 6.828125 -11.722656 C 6.511719 -11.691406 6.183594 -11.660156 5.871094 -11.574219 C 5.574219 -11.511719 5.195312 -11.394531 4.996094 -11.328125 C 4.484375 -11.179688 4.253906 -11.03125 3.757812 -10.851562 C 3.148438 -10.601562 2.671875 -10.15625 2.277344 -9.664062 C 1.996094 -9.332031 1.746094 -8.953125 1.515625 -8.574219 C 1.203125 -8.03125 1.007812 -7.46875 0.839844 -6.875 C 0.742188 -6.496094 0.691406 -4.964844 0.792969 -4.617188 C 0.921875 -4.171875 1.238281 -3.148438 1.484375 -2.753906 C 1.632812 -2.523438 1.78125 -2.277344 1.980469 -2.09375 C 2.292969 -1.78125 2.472656 -1.386719 2.871094 -1.15625 C 3.066406 -1.039062 3.265625 -0.90625 3.445312 -0.757812 C 3.742188 -0.527344 4.121094 -0.460938 4.46875 -0.296875 C 4.863281 -0.0820312 5.328125 -0.0664062 5.753906 0.0507812 C 6.199219 0.148438 6.660156 0.148438 7.105469 0.214844 C 7.371094 0.246094 7.636719 0.230469 7.898438 0.230469 C 8.328125 0.230469 8.492188 0.214844 8.953125 0.132812 C 9.367188 0.0664062 9.796875 0.0664062 10.207031 -0.0820312 C 10.539062 -0.214844 10.867188 -0.328125 11.164062 -0.511719 C 11.691406 -0.808594 12.203125 -1.136719 12.582031 -1.632812 C 12.910156 -2.042969 13.191406 -2.488281 13.421875 -2.96875 C 13.605469 -3.363281 13.734375 -3.792969 13.851562 -4.222656 C 14.066406 -4.996094 14.164062 -5.773438 14.066406 -6.53125 C 14.066406 -7.074219 13.902344 -7.519531 13.769531 -7.980469 C 13.585938 -8.640625 13.226562 -9.203125 12.761719 -9.695312 C 12.402344 -10.09375 11.972656 -10.421875 11.527344 -10.71875 C 11.378906 -10.816406 11.230469 -10.984375 11.082031 -11.03125 C 10.6875 -11.164062 10.339844 -11.410156 9.910156 -11.460938 C 9.5625 -11.511719 9.21875 -11.675781 8.855469 -11.691406 Z M 7.320312 -10.042969 C 7.570312 -10.125 8.195312 -10.027344 8.34375 -9.828125 C 8.589844 -9.5 8.722656 -9.152344 8.855469 -8.722656 C 9.117188 -8.144531 9.003906 -7.601562 9.117188 -6.976562 C 9.152344 -6.746094 9.152344 -6.496094 9.152344 -6.265625 C 9.152344 -5.605469 9.167969 -4.964844 9.101562 -4.304688 C 9.035156 -3.644531 8.90625 -3 8.722656 -2.375 C 8.609375 -2.011719 8.378906 -1.730469 8.0625 -1.535156 C 7.847656 -1.386719 7.585938 -1.402344 7.320312 -1.5 C 6.859375 -1.648438 6.597656 -1.996094 6.363281 -2.390625 C 6.019531 -2.984375 5.902344 -3.644531 5.773438 -4.304688 C 5.722656 -4.519531 5.722656 -4.765625 5.707031 -4.996094 C 5.671875 -5.359375 5.605469 -5.789062 5.65625 -6.152344 C 5.738281 -6.910156 5.789062 -7.585938 6.019531 -8.3125 C 6.152344 -8.691406 6.25 -9.070312 6.464844 -9.398438 C 6.628906 -9.679688 6.992188 -9.945312 7.320312 -10.042969 Z M 7.320312 -10.042969 "/></g></g></g></svg>