<svg xmlns="http://www.w3.org/2000/svg" xmlns:xlink="http://www.w3.org/1999/xlink" width="160" zoomAndPan="magnify" viewBox="0 0 120 37.5" height="50" preserveAspectRatio="xMidYMid meet" version="1.0"><defs><g/><clipPath id="f96aef20c3"><path d="M 2.195312 2.144531 L 117.65625 2.144531 L 117.65625 34.710938 L 2.195312 34.710938 Z M 2.195312 2.144531 " clip-rule="nonzero"/></clipPath><clipPath id="26585119e5"><path d="M 3.6875 2.144531 L 116.304688 2.144531 C 116.695312 2.144531 117.074219 2.300781 117.351562 2.578125 C 117.628906 2.855469 117.785156 3.234375 117.785156 3.625 L 117.785156 33.371094 C 117.785156 33.761719 117.628906 34.140625 117.351562 34.417969 C 117.074219 34.695312 116.695312 34.851562 116.304688 34.851562 L 3.6875 34.851562 C 3.292969 34.851562 2.917969 34.695312 2.640625 34.417969 C 2.363281 34.140625 2.207031 33.761719 2.207031 33.371094 L 2.207031 3.625 C 2.207031 3.234375 2.363281 2.855469 2.640625 2.578125 C 2.917969 2.300781 3.292969 2.144531 3.6875 2.144531 Z M 3.6875 2.144531 " clip-rule="nonzero"/></clipPath></defs><g clip-path="url(#f96aef20c3)"><g clip-path="url(#26585119e5)"><path stroke-linecap="butt" transform="matrix(0.740132, 0, 0, 0.740132, 2.207448, 2.146382)" fill="none" stroke-linejoin="miter" d="M 1.999714 -0.00250121 L 154.158054 -0.00250121 C 154.685832 -0.00250121 155.197776 0.20861 155.572499 0.583332 C 155.947221 0.958054 156.158332 1.469999 156.158332 1.997777 L 156.158332 42.188056 C 156.158332 42.715834 155.947221 43.227778 155.572499 43.602501 C 155.197776 43.977223 154.685832 44.188334 154.158054 44.188334 L 1.999714 44.188334 C 1.466659 44.188334 0.959992 43.977223 0.58527 43.602501 C 0.210548 43.227778 -0.000563518 42.715834 -0.000563518 42.188056 L -0.000563518 1.997777 C -0.000563518 1.469999 0.210548 0.958054 0.58527 0.583332 C 0.959992 0.20861 1.466659 -0.00250121 1.999714 -0.00250121 Z M 1.999714 -0.00250121 " stroke="#ffc107" stroke-width="4" stroke-opacity="1" stroke-miterlimit="4"/></g></g><g fill="#17053f" fill-opacity="1"><g transform="translate(6.62138, 23.314145)"><g><path d="M 10.800781 -11.558594 C 10.390625 -11.511719 9.992188 -11.558594 9.597656 -11.511719 C 9.203125 -11.460938 8.804688 -11.511719 8.410156 -11.527344 C 8.128906 -11.527344 7.832031 -11.542969 7.550781 -11.511719 C 7.289062 -11.476562 5.457031 -11.511719 5.0625 -11.460938 C 4.75 -11.425781 4.417969 -11.476562 4.105469 -11.492188 C 3.992188 -11.511719 3.875 -11.476562 3.777344 -11.476562 C 3.332031 -11.460938 2.886719 -11.527344 2.441406 -11.492188 C 2.191406 -11.476562 1.929688 -11.527344 1.664062 -11.527344 C 1.449219 -11.527344 1.21875 -11.542969 1.023438 -11.394531 C 1.007812 -11.246094 0.972656 -11.097656 0.988281 -10.949219 C 1.070312 -10.175781 0.972656 -9.382812 0.988281 -8.589844 C 1.007812 -8.246094 1.007812 -7.914062 1.007812 -7.570312 C 1.007812 -7.125 1.023438 -6.679688 1.039062 -6.234375 C 1.039062 -5.984375 1.007812 -5.707031 1.023438 -5.457031 C 1.054688 -5.179688 1.070312 -4.914062 1.054688 -4.632812 C 1.054688 -4.222656 1.054688 -3.808594 1.089844 -3.398438 C 1.121094 -2.871094 1.023438 -2.324219 1.070312 -1.78125 C 1.089844 -1.417969 1.039062 -1.039062 1.039062 -0.660156 C 1.039062 -0.527344 1.039062 -0.230469 1.023438 -0.0976562 C 0.988281 0.0976562 1.484375 -0.015625 2.144531 -0.015625 C 2.457031 -0.03125 2.753906 -0.03125 3.050781 -0.015625 C 3.511719 0 3.972656 0.0507812 4.4375 0 C 4.683594 -0.015625 4.914062 0.015625 5.144531 0 C 5.375 -0.015625 5.476562 -0.0664062 5.476562 -0.3125 C 5.492188 -0.496094 5.492188 -0.691406 5.507812 -0.875 C 5.558594 -1.699219 5.492188 -2.507812 5.492188 -3.332031 C 5.492188 -3.742188 5.476562 -4.15625 5.492188 -4.550781 C 5.773438 -4.648438 6.035156 -4.617188 6.300781 -4.601562 C 6.710938 -4.585938 7.140625 -4.632812 7.550781 -4.585938 C 7.898438 -4.550781 8.246094 -4.601562 8.574219 -4.617188 L 9.925781 -4.617188 C 10.027344 -4.617188 10.324219 -4.632812 10.324219 -4.714844 L 10.339844 -5.09375 C 10.273438 -5.6875 10.421875 -5.984375 10.273438 -6.449219 C 8.707031 -6.332031 7.105469 -6.332031 5.574219 -6.332031 C 5.492188 -7.519531 5.605469 -8.671875 5.492188 -9.84375 C 5.640625 -9.84375 5.738281 -9.859375 5.835938 -9.859375 C 6.613281 -9.878906 7.386719 -9.859375 8.164062 -9.894531 C 8.804688 -9.910156 9.464844 -9.910156 10.125 -9.945312 C 10.339844 -9.945312 10.570312 -9.960938 10.800781 -9.894531 C 10.867188 -9.878906 10.933594 -9.910156 10.984375 -9.976562 C 11.03125 -10.421875 10.933594 -10.851562 11.046875 -11.296875 C 11.015625 -11.425781 10.917969 -11.511719 10.800781 -11.558594 Z M 10.800781 -11.558594 "/></g></g></g><g fill="#17053f" fill-opacity="1"><g transform="translate(17.447767, 23.314145)"><g><path d="M 7.980469 -11.675781 C 7.519531 -11.675781 7.058594 -11.640625 6.613281 -11.640625 C 6.199219 -11.640625 5.804688 -11.625 5.390625 -11.675781 C 5.210938 -11.691406 5.03125 -11.660156 4.863281 -11.640625 C 4.601562 -11.046875 4.4375 -10.453125 4.1875 -9.894531 C 3.925781 -9.285156 3.777344 -8.640625 3.464844 -8.046875 C 3.230469 -7.617188 3.167969 -7.125 2.984375 -6.679688 C 2.851562 -6.382812 2.785156 -6.050781 2.65625 -5.773438 C 2.359375 -5.160156 2.109375 -4.519531 1.847656 -3.890625 C 1.714844 -3.578125 1.632812 -3.265625 1.484375 -2.96875 C 1.253906 -2.539062 1.105469 -2.078125 0.957031 -1.632812 C 0.824219 -1.203125 0.609375 -0.808594 0.445312 -0.394531 C 0.378906 -0.214844 0.414062 -0.117188 0.476562 0 C 0.988281 -0.015625 1.484375 -0.0507812 2.0625 -0.03125 C 2.226562 -0.296875 2.308594 -0.691406 2.472656 -1.039062 C 2.65625 -1.417969 2.785156 -1.796875 2.953125 -2.210938 C 4.371094 -2.128906 5.789062 -2.324219 7.222656 -2.191406 C 7.488281 -1.449219 7.800781 -0.710938 8.046875 0.03125 C 8.195312 0.0976562 8.328125 0 8.441406 0.015625 C 9.203125 0.03125 9.960938 0.015625 10.71875 -0.03125 C 11.195312 -0.0664062 11.675781 0 12.152344 -0.0820312 C 12.300781 -0.117188 12.5 -0.015625 12.613281 -0.230469 C 11.03125 -3.972656 9.777344 -7.847656 8.164062 -11.609375 C 8.128906 -11.625 8.046875 -11.675781 7.980469 -11.675781 Z M 5.179688 -7.964844 C 5.6875 -6.613281 6.117188 -5.226562 6.628906 -3.859375 C 5.589844 -3.824219 4.585938 -3.757812 3.578125 -3.824219 C 4.140625 -5.179688 4.535156 -6.613281 5.179688 -7.964844 Z M 5.179688 -7.964844 "/></g></g></g><g fill="#17053f" fill-opacity="1"><g transform="translate(29.790275, 23.314145)"><g><path d="M 7.421875 -11.757812 C 7.105469 -11.757812 6.792969 -11.691406 6.480469 -11.675781 C 6.003906 -11.640625 5.523438 -11.511719 5.0625 -11.363281 C 4.351562 -11.164062 3.695312 -10.835938 3.082031 -10.4375 C 2.917969 -10.324219 2.738281 -10.242188 2.621094 -10.09375 C 2.390625 -9.828125 2.144531 -9.597656 1.945312 -9.300781 C 1.648438 -8.871094 1.351562 -8.441406 1.136719 -7.949219 C 1.070312 -7.800781 0.988281 -7.636719 0.957031 -7.46875 C 0.921875 -7.207031 0.859375 -6.941406 0.808594 -6.679688 C 0.742188 -6.347656 0.742188 -6.019531 0.742188 -5.6875 C 0.742188 -5.410156 0.808594 -5.144531 0.824219 -4.863281 C 0.839844 -4.535156 1.21875 -3.230469 1.300781 -3.066406 C 1.550781 -2.523438 2.210938 -1.5 2.539062 -1.320312 C 2.785156 -1.171875 3 -0.972656 3.25 -0.839844 C 3.875 -0.496094 4.5 -0.199219 5.195312 -0.03125 C 5.773438 0.0976562 6.363281 0.230469 6.992188 0.214844 C 7.453125 0.214844 7.914062 0.28125 8.378906 0.246094 C 9.003906 0.179688 9.613281 0.0976562 10.207031 -0.0976562 C 10.800781 -0.296875 11.378906 -0.5625 11.9375 -0.824219 C 12.253906 -0.972656 12.515625 -1.171875 12.8125 -1.335938 C 13.078125 -1.484375 13.09375 -1.699219 12.929688 -1.929688 C 12.761719 -2.128906 12.632812 -2.339844 12.464844 -2.523438 C 12.351562 -2.671875 12.269531 -2.835938 12.152344 -2.96875 C 12.070312 -2.984375 11.988281 -2.953125 11.890625 -2.902344 C 11.625 -2.6875 11.363281 -2.472656 11.046875 -2.324219 C 10.488281 -2.042969 9.894531 -1.847656 9.300781 -1.714844 C 9.101562 -1.664062 8.886719 -1.648438 8.722656 -1.664062 C 8.378906 -1.714844 8.03125 -1.714844 7.683594 -1.8125 C 7.273438 -1.929688 6.925781 -2.128906 6.5625 -2.339844 C 6.449219 -2.40625 6.332031 -2.488281 6.25 -2.605469 C 5.855469 -3.101562 5.539062 -3.546875 5.390625 -4.269531 C 5.328125 -4.601562 5.160156 -4.898438 5.261719 -6.363281 C 5.328125 -6.859375 5.492188 -7.421875 5.671875 -7.882812 C 5.820312 -8.230469 6.019531 -8.542969 6.265625 -8.820312 C 6.464844 -9.035156 6.597656 -9.300781 6.859375 -9.464844 C 7.089844 -9.613281 7.339844 -9.746094 7.601562 -9.828125 C 7.867188 -9.910156 8.082031 -9.976562 8.410156 -9.976562 C 8.773438 -9.976562 9.101562 -9.859375 9.449219 -9.761719 C 10.007812 -9.613281 10.390625 -9.300781 10.601562 -8.757812 C 10.734375 -8.425781 10.75 -8.410156 11.097656 -8.425781 C 11.164062 -8.441406 11.328125 -8.441406 11.378906 -8.441406 C 11.722656 -8.441406 11.972656 -8.394531 12.316406 -8.410156 C 12.449219 -8.410156 12.648438 -8.378906 12.699219 -8.410156 C 12.761719 -8.441406 12.664062 -8.691406 12.648438 -8.789062 C 12.597656 -9.085938 12.464844 -9.332031 12.367188 -9.597656 C 12.316406 -9.746094 12.234375 -9.859375 12.152344 -9.992188 C 11.742188 -10.570312 11.128906 -10.898438 10.519531 -11.214844 C 9.730469 -11.609375 8.855469 -11.707031 7.964844 -11.722656 C 7.785156 -11.742188 7.601562 -11.757812 7.421875 -11.757812 Z M 7.421875 -11.757812 "/></g></g></g><g fill="#17053f" fill-opacity="1"><g transform="translate(42.841404, 23.314145)"><g><path d="M 10.601562 -11.542969 L 10.472656 -11.542969 C 9.945312 -11.542969 9.414062 -11.574219 8.90625 -11.527344 C 8.378906 -11.476562 7.847656 -11.542969 7.339844 -11.511719 C 6.808594 -11.460938 6.265625 -11.527344 5.738281 -11.492188 C 5.375 -11.476562 4.996094 -11.492188 4.632812 -11.476562 C 3.59375 -11.425781 2.554688 -11.511719 1.515625 -11.460938 C 1.367188 -11.460938 1.285156 -11.492188 1.136719 -11.445312 C 1.105469 -11.394531 1.023438 -11.378906 0.988281 -11.34375 C 1.007812 -11.128906 1.070312 -9.910156 1.039062 -8.359375 C 1.007812 -7.898438 1.007812 -7.4375 0.988281 -6.976562 C 0.988281 -6.511719 1.007812 -6.035156 1.007812 -5.574219 C 1.007812 -5.128906 1.039062 -4.699219 1.070312 -4.253906 C 1.105469 -3.972656 1.089844 -3.695312 1.089844 -3.414062 C 1.089844 -3.066406 1.105469 -2.703125 1.070312 -2.375 C 1.039062 -2.027344 1.039062 -1.714844 1.070312 -1.386719 C 1.105469 -0.921875 1.121094 -0.445312 1.089844 0.015625 C 1.089844 0.0820312 1.535156 0.015625 1.683594 0.015625 C 2.109375 0.015625 2.523438 0.0507812 2.933594 0.0820312 C 3.296875 0.0976562 4.667969 0.015625 4.863281 0.015625 C 5.789062 0.015625 6.710938 0.03125 7.617188 0 C 8.328125 -0.015625 9.035156 -0.0664062 9.746094 -0.015625 C 10.304688 0.015625 10.851562 -0.0820312 11.410156 -0.0664062 C 11.640625 -0.0507812 11.757812 -0.179688 11.742188 -0.414062 L 11.742188 -1.648438 C 11.394531 -1.832031 11.066406 -1.664062 10.734375 -1.664062 C 10.191406 -1.664062 9.628906 -1.683594 9.085938 -1.617188 C 8.820312 -1.597656 8.542969 -1.648438 8.292969 -1.597656 C 7.867188 -1.535156 7.453125 -1.550781 7.023438 -1.515625 C 6.695312 -1.5 6.332031 -1.515625 5.984375 -1.535156 C 5.835938 -1.550781 5.671875 -1.484375 5.539062 -1.582031 C 5.492188 -2.722656 5.390625 -3.859375 5.476562 -5.011719 L 6.695312 -5.011719 C 6.925781 -5.011719 7.15625 -5.011719 7.386719 -5.03125 C 7.980469 -5.046875 8.558594 -5.078125 9.152344 -5.078125 C 9.464844 -5.078125 9.777344 -5.09375 10.09375 -5.09375 C 10.257812 -5.09375 10.355469 -5.226562 10.355469 -5.390625 C 10.339844 -5.753906 10.324219 -6.117188 10.339844 -6.496094 C 10.355469 -6.726562 10.222656 -6.859375 9.992188 -6.875 C 9.710938 -6.894531 9.433594 -6.875 9.152344 -6.859375 C 8.574219 -6.84375 7.996094 -6.792969 7.421875 -6.792969 C 7.15625 -6.808594 6.894531 -6.828125 6.628906 -6.777344 C 6.25 -6.726562 5.886719 -6.84375 5.507812 -6.792969 C 5.390625 -7.800781 5.507812 -8.886719 5.476562 -9.878906 C 7.339844 -10.042969 9.21875 -9.925781 11.082031 -9.960938 C 11.097656 -10.042969 11.128906 -10.125 11.113281 -10.207031 C 11.082031 -10.503906 11.046875 -10.800781 11.097656 -11.113281 C 11.128906 -11.425781 10.933594 -11.574219 10.601562 -11.542969 Z M 10.601562 -11.542969 "/></g></g></g><g fill="#17053f" fill-opacity="1"><g transform="translate(54.359938, 23.314145)"><g><path d="M 1.136719 -11.542969 C 1.054688 -11.492188 1.023438 -11.425781 1.070312 -11.3125 C 1.089844 -11.261719 1.089844 -11.179688 1.070312 -11.128906 C 1.039062 -10.769531 1.039062 -10.421875 1.023438 -10.058594 C 1.023438 -9.5 1.054688 -8.9375 1.007812 -8.378906 C 0.972656 -7.898438 1.007812 -7.421875 1.007812 -6.941406 C 1.023438 -6.578125 1.070312 -6.214844 1.054688 -5.855469 C 1.023438 -5.277344 1.070312 -4.699219 1.070312 -4.121094 C 1.054688 -3.660156 1.070312 -3.183594 1.089844 -2.722656 C 1.105469 -2.359375 1.089844 -1.996094 1.136719 -1.632812 C 1.1875 -1.1875 1.089844 -0.0820312 1.136719 0.0507812 C 1.1875 0.0507812 1.847656 -0.03125 2.078125 -0.015625 C 2.308594 0.015625 2.539062 0.015625 2.769531 0.015625 C 3 0.015625 3.230469 -0.015625 3.464844 -0.015625 C 3.792969 -0.015625 4.121094 0 4.4375 0 C 4.75 -0.015625 5.0625 -0.015625 5.390625 -0.0507812 C 5.773438 -0.0820312 6.167969 -0.03125 6.578125 -0.03125 C 7.371094 -0.03125 8.164062 0.015625 8.953125 -0.015625 C 9.265625 -0.015625 9.582031 0.015625 9.878906 0 C 10.257812 -0.015625 10.621094 0 11 -0.015625 C 11.542969 -0.0507812 12.085938 -0.0664062 12.597656 -0.378906 C 12.976562 -0.59375 13.292969 -0.859375 13.472656 -1.238281 C 13.753906 -1.78125 13.933594 -2.339844 13.917969 -2.96875 C 13.902344 -3.613281 13.785156 -4.203125 13.390625 -4.714844 C 13.175781 -4.980469 12.960938 -5.261719 12.664062 -5.390625 C 12.335938 -5.558594 11.972656 -5.671875 11.609375 -5.738281 C 11.363281 -5.773438 11.113281 -5.820312 10.851562 -5.855469 C 11.066406 -5.921875 11.261719 -5.96875 11.460938 -6.035156 C 12.253906 -6.332031 12.8125 -6.828125 12.996094 -7.699219 C 13.058594 -7.980469 13.09375 -8.277344 13.078125 -8.574219 C 13.042969 -8.886719 12.960938 -9.183594 12.894531 -9.5 C 12.761719 -10.074219 12.449219 -10.539062 11.972656 -10.898438 C 11.742188 -11.097656 11.460938 -11.214844 11.164062 -11.328125 C 10.882812 -11.425781 10.621094 -11.511719 10.304688 -11.527344 C 9.480469 -11.558594 6.382812 -11.625 5.308594 -11.527344 C 4.601562 -11.476562 3.90625 -11.542969 3.199219 -11.511719 C 2.507812 -11.492188 1.832031 -11.574219 1.136719 -11.542969 Z M 6.957031 -10.109375 C 7.320312 -10.09375 7.683594 -10.007812 8.015625 -9.777344 C 8.246094 -9.613281 8.359375 -9.351562 8.441406 -9.085938 C 8.589844 -8.65625 8.609375 -8.230469 8.542969 -7.765625 C 8.460938 -7.320312 8.261719 -6.976562 7.832031 -6.808594 C 7.652344 -6.726562 7.4375 -6.710938 7.238281 -6.695312 C 6.792969 -6.660156 6.347656 -6.660156 5.902344 -6.660156 C 5.820312 -6.660156 5.738281 -6.660156 5.640625 -6.679688 C 5.625 -7.816406 5.589844 -8.921875 5.574219 -10.007812 C 5.605469 -10.058594 5.640625 -10.058594 5.671875 -10.058594 C 6.101562 -10.074219 6.53125 -10.109375 6.957031 -10.109375 Z M 7.191406 -4.980469 C 7.617188 -4.980469 8.046875 -4.964844 8.378906 -4.617188 C 8.640625 -4.320312 8.789062 -3.972656 8.839844 -3.578125 C 8.839844 -3.464844 8.886719 -3.347656 8.886719 -3.230469 C 8.855469 -2.851562 8.789062 -2.488281 8.65625 -2.144531 C 8.625 -2.042969 8.558594 -1.980469 8.476562 -1.894531 C 8.179688 -1.597656 7.816406 -1.535156 7.421875 -1.582031 C 7.058594 -1.617188 6.679688 -1.632812 6.316406 -1.632812 C 6.085938 -1.617188 5.855469 -1.632812 5.605469 -1.648438 L 5.605469 -4.929688 C 5.804688 -4.914062 5.984375 -4.929688 6.183594 -4.929688 C 6.511719 -4.964844 6.859375 -4.964844 7.191406 -4.980469 Z M 7.191406 -4.980469 "/></g></g></g><g fill="#17053f" fill-opacity="1"><g transform="translate(68.300964, 23.314145)"><g><path d="M 7.964844 -11.742188 C 7.585938 -11.773438 7.207031 -11.757812 6.828125 -11.722656 C 6.511719 -11.691406 6.183594 -11.660156 5.871094 -11.574219 C 5.574219 -11.511719 5.195312 -11.394531 4.996094 -11.328125 C 4.484375 -11.179688 4.253906 -11.03125 3.757812 -10.851562 C 3.148438 -10.601562 2.671875 -10.15625 2.277344 -9.664062 C 1.996094 -9.332031 1.746094 -8.953125 1.515625 -8.574219 C 1.203125 -8.03125 1.007812 -7.46875 0.839844 -6.875 C 0.742188 -6.496094 0.691406 -4.964844 0.792969 -4.617188 C 0.921875 -4.171875 1.238281 -3.148438 1.484375 -2.753906 C 1.632812 -2.523438 1.78125 -2.277344 1.980469 -2.09375 C 2.292969 -1.78125 2.472656 -1.386719 2.871094 -1.15625 C 3.066406 -1.039062 3.265625 -0.90625 3.445312 -0.757812 C 3.742188 -0.527344 4.121094 -0.460938 4.46875 -0.296875 C 4.863281 -0.0820312 5.328125 -0.0664062 5.753906 0.0507812 C 6.199219 0.148438 6.660156 0.148438 7.105469 0.214844 C 7.371094 0.246094 7.636719 0.230469 7.898438 0.230469 C 8.328125 0.230469 8.492188 0.214844 8.953125 0.132812 C 9.367188 0.0664062 9.796875 0.0664062 10.207031 -0.0820312 C 10.539062 -0.214844 10.867188 -0.328125 11.164062 -0.511719 C 11.691406 -0.808594 12.203125 -1.136719 12.582031 -1.632812 C 12.910156 -2.042969 13.191406 -2.488281 13.421875 -2.96875 C 13.605469 -3.363281 13.734375 -3.792969 13.851562 -4.222656 C 14.066406 -4.996094 14.164062 -5.773438 14.066406 -6.53125 C 14.066406 -7.074219 13.902344 -7.519531 13.769531 -7.980469 C 13.585938 -8.640625 13.226562 -9.203125 12.761719 -9.695312 C 12.402344 -10.09375 11.972656 -10.421875 11.527344 -10.71875 C 11.378906 -10.816406 11.230469 -10.984375 11.082031 -11.03125 C 10.6875 -11.164062 10.339844 -11.410156 9.910156 -11.460938 C 9.5625 -11.511719 9.21875 -11.675781 8.855469 -11.691406 Z M 7.320312 -10.042969 C 7.570312 -10.125 8.195312 -10.027344 8.34375 -9.828125 C 8.589844 -9.5 8.722656 -9.152344 8.855469 -8.722656 C 9.117188 -8.144531 9.003906 -7.601562 9.117188 -6.976562 C 9.152344 -6.746094 9.152344 -6.496094 9.152344 -6.265625 C 9.152344 -5.605469 9.167969 -4.964844 9.101562 -4.304688 C 9.035156 -3.644531 8.90625 -3 8.722656 -2.375 C 8.609375 -2.011719 8.378906 -1.730469 8.0625 -1.535156 C 7.847656 -1.386719 7.585938 -1.402344 7.320312 -1.5 C 6.859375 -1.648438 6.597656 -1.996094 6.363281 -2.390625 C 6.019531 -2.984375 5.902344 -3.644531 5.773438 -4.304688 C 5.722656 -4.519531 5.722656 -4.765625 5.707031 -4.996094 C 5.671875 -5.359375 5.605469 -5.789062 5.65625 -6.152344 C 5.738281 -6.910156 5.789062 -7.585938 6.019531 -8.3125 C 6.152344 -8.691406 6.25 -9.070312 6.464844 -9.398438 C 6.628906 -9.679688 6.992188 -9.945312 7.320312 -10.042969 Z M 7.320312 -10.042969 "/></g></g></g><g fill="#17053f" fill-opacity="1"><g transform="translate(82.423262, 23.314145)"><g><path d="M 7.964844 -11.742188 C 7.585938 -11.773438 7.207031 -11.757812 6.828125 -11.722656 C 6.511719 -11.691406 6.183594 -11.660156 5.871094 -11.574219 C 5.574219 -11.511719 5.195312 -11.394531 4.996094 -11.328125 C 4.484375 -11.179688 4.253906 -11.03125 3.757812 -10.851562 C 3.148438 -10.601562 2.671875 -10.15625 2.277344 -9.664062 C 1.996094 -9.332031 1.746094 -8.953125 1.515625 -8.574219 C 1.203125 -8.03125 1.007812 -7.46875 0.839844 -6.875 C 0.742188 -6.496094 0.691406 -4.964844 0.792969 -4.617188 C 0.921875 -4.171875 1.238281 -3.148438 1.484375 -2.753906 C 1.632812 -2.523438 1.78125 -2.277344 1.980469 -2.09375 C 2.292969 -1.78125 2.472656 -1.386719 2.871094 -1.15625 C 3.066406 -1.039062 3.265625 -0.90625 3.445312 -0.757812 C 3.742188 -0.527344 4.121094 -0.460938 4.46875 -0.296875 C 4.863281 -0.0820312 5.328125 -0.0664062 5.753906 0.0507812 C 6.199219 0.148438 6.660156 0.148438 7.105469 0.214844 C 7.371094 0.246094 7.636719 0.230469 7.898438 0.230469 C 8.328125 0.230469 8.492188 0.214844 8.953125 0.132812 C 9.367188 0.0664062 9.796875 0.0664062 10.207031 -0.0820312 C 10.539062 -0.214844 10.867188 -0.328125 11.164062 -0.511719 C 11.691406 -0.808594 12.203125 -1.136719 12.582031 -1.632812 C 12.910156 -2.042969 13.191406 -2.488281 13.421875 -2.96875 C 13.605469 -3.363281 13.734375 -3.792969 13.851562 -4.222656 C 14.066406 -4.996094 14.164062 -5.773438 14.066406 -6.53125 C 14.066406 -7.074219 13.902344 -7.519531 13.769531 -7.980469 C 13.585938 -8.640625 13.226562 -9.203125 12.761719 -9.695312 C 12.402344 -10.09375 11.972656 -10.421875 11.527344 -10.71875 C 11.378906 -10.816406 11.230469 -10.984375 11.082031 -11.03125 C 10.6875 -11.164062 10.339844 -11.410156 9.910156 -11.460938 C 9.5625 -11.511719 9.21875 -11.675781 8.855469 -11.691406 Z M 7.320312 -10.042969 C 7.570312 -10.125 8.195312 -10.027344 8.34375 -9.828125 C 8.589844 -9.5 8.722656 -9.152344 8.855469 -8.722656 C 9.117188 -8.144531 9.003906 -7.601562 9.117188 -6.976562 C 9.152344 -6.746094 9.152344 -6.496094 9.152344 -6.265625 C 9.152344 -5.605469 9.167969 -4.964844 9.101562 -4.304688 C 9.035156 -3.644531 8.90625 -3 8.722656 -2.375 C 8.609375 -2.011719 8.378906 -1.730469 8.0625 -1.535156 C 7.847656 -1.386719 7.585938 -1.402344 7.320312 -1.5 C 6.859375 -1.648438 6.597656 -1.996094 6.363281 -2.390625 C 6.019531 -2.984375 5.902344 -3.644531 5.773438 -4.304688 C 5.722656 -4.519531 5.722656 -4.765625 5.707031 -4.996094 C 5.671875 -5.359375 5.605469 -5.789062 5.65625 -6.152344 C 5.738281 -6.910156 5.789062 -7.585938 6.019531 -8.3125 C 6.152344 -8.691406 6.25 -9.070312 6.464844 -9.398438 C 6.628906 -9.679688 6.992188 -9.945312 7.320312 -10.042969 Z M 7.320312 -10.042969 "/></g></g></g><g fill="#17053f" fill-opacity="1"><g transform="translate(96.545561, 23.314145)"><g><path d="M 12.019531 -11.675781 C 11.773438 -11.707031 11.492188 -11.675781 11.261719 -11.609375 C 10.949219 -11.527344 10.636719 -11.425781 10.355469 -11.296875 C 9.976562 -11.097656 9.679688 -10.769531 9.367188 -10.488281 C 9.203125 -10.324219 9.054688 -10.140625 8.90625 -9.976562 C 8.707031 -9.777344 8.492188 -9.582031 8.3125 -9.351562 C 8.097656 -9.085938 7.867188 -8.804688 7.601562 -8.589844 C 7.238281 -8.3125 6.992188 -7.914062 6.628906 -7.636719 C 6.414062 -7.453125 6.265625 -7.191406 6.035156 -7.023438 C 5.820312 -6.875 5.65625 -6.660156 5.457031 -6.464844 C 5.410156 -7.023438 5.441406 -7.570312 5.425781 -8.097656 C 5.410156 -8.773438 5.410156 -9.433594 5.410156 -10.109375 C 5.410156 -10.488281 5.425781 -10.882812 5.425781 -11.277344 C 5.425781 -11.378906 5.441406 -11.460938 5.390625 -11.527344 C 3.941406 -11.476562 2.488281 -11.527344 1.023438 -11.558594 C 0.988281 -11.3125 1.054688 -11.082031 1.023438 -10.867188 C 0.972656 -10.390625 1.054688 -9.910156 1.023438 -9.414062 C 1.007812 -9.136719 1.054688 -8.839844 1.054688 -8.542969 C 1.054688 -8.144531 1.007812 -7.75 1.054688 -7.371094 C 1.105469 -6.894531 1.054688 -6.429688 1.039062 -5.953125 C 1.039062 -5.722656 1.054688 -5.492188 1.054688 -5.261719 C 1.054688 -4.996094 1.070312 -4.75 1.039062 -4.484375 C 1.023438 -4.253906 0.988281 -4.007812 0.988281 -3.757812 C 0.988281 -3.480469 1.007812 -3.199219 1.007812 -2.917969 C 1.023438 -2.457031 1.039062 -1.980469 1.039062 -1.515625 C 1.023438 -1.105469 1.105469 -0.675781 1.023438 -0.265625 C 1.007812 -0.148438 1.089844 -0.0507812 1.21875 -0.0507812 C 1.484375 -0.03125 1.746094 -0.03125 2.011719 -0.03125 C 2.738281 -0.0820312 3.445312 -0.03125 4.15625 -0.015625 C 4.601562 -0.015625 5.03125 0 5.441406 -0.03125 C 5.539062 -0.117188 5.574219 -0.179688 5.574219 -0.28125 C 5.558594 -0.476562 5.539062 -0.691406 5.539062 -0.890625 C 5.507812 -1.535156 5.507812 -2.191406 5.492188 -2.851562 L 5.492188 -4.140625 C 5.625 -4.105469 5.707031 -4.023438 5.789062 -3.925781 C 5.984375 -3.660156 6.152344 -3.378906 6.347656 -3.117188 C 6.597656 -2.804688 6.808594 -2.441406 7.042969 -2.09375 C 7.171875 -1.878906 7.339844 -1.683594 7.453125 -1.449219 C 7.535156 -1.269531 7.667969 -1.105469 7.785156 -0.921875 C 7.949219 -0.660156 8.144531 -0.460938 8.394531 -0.117188 C 8.410156 -0.0820312 8.460938 -0.03125 8.507812 -0.03125 C 8.640625 -0.015625 8.757812 0 8.886719 -0.015625 C 9.203125 -0.0664062 9.449219 -0.015625 9.761719 -0.03125 C 9.976562 -0.03125 10.175781 0.03125 10.371094 0.03125 C 11.128906 -0.03125 11.890625 -0.03125 12.648438 -0.015625 C 12.863281 -0.015625 13.390625 -0.03125 13.457031 -0.0507812 C 13.585938 -0.0820312 13.621094 -0.179688 13.554688 -0.3125 L 13.457031 -0.445312 C 12.996094 -0.972656 12.597656 -1.550781 12.152344 -2.078125 C 11.773438 -2.554688 11.425781 -3.066406 11.066406 -3.5625 C 10.734375 -3.992188 10.421875 -4.453125 10.074219 -4.882812 C 9.761719 -5.261719 9.449219 -5.65625 9.152344 -6.050781 C 8.921875 -6.347656 8.707031 -6.644531 8.492188 -6.957031 C 8.609375 -7.089844 8.789062 -7.140625 8.871094 -7.289062 C 8.988281 -7.503906 9.203125 -7.617188 9.332031 -7.800781 C 9.515625 -8.015625 9.679688 -8.261719 9.894531 -8.425781 C 10.191406 -8.65625 10.40625 -8.953125 10.703125 -9.183594 C 10.984375 -9.414062 11.261719 -9.664062 11.625 -9.796875 C 12.070312 -9.960938 12.484375 -9.925781 12.894531 -9.695312 C 12.996094 -9.710938 13.09375 -9.777344 13.078125 -9.894531 C 13.042969 -10.339844 13.09375 -10.785156 13.058594 -11.230469 C 12.960938 -11.410156 12.8125 -11.410156 12.664062 -11.527344 C 12.5 -11.660156 12.21875 -11.660156 12.019531 -11.675781 Z M 12.019531 -11.675781 "/></g></g></g></svg>