<svg xmlns="http://www.w3.org/2000/svg" xmlns:xlink="http://www.w3.org/1999/xlink" width="160" zoomAndPan="magnify" viewBox="0 0 120 37.5" height="50" preserveAspectRatio="xMidYMid meet" version="1.0"><defs><g/><clipPath id="94dca8cc7f"><path d="M 2.195312 2.144531 L 117.65625 2.144531 L 117.65625 34.710938 L 2.195312 34.710938 Z M 2.195312 2.144531 " clip-rule="nonzero"/></clipPath><clipPath id="bb835d8212"><path d="M 3.6875 2.144531 L 116.304688 2.144531 C 116.695312 2.144531 117.074219 2.300781 117.351562 2.578125 C 117.628906 2.855469 117.785156 3.234375 117.785156 3.625 L 117.785156 33.371094 C 117.785156 33.761719 117.628906 34.140625 117.351562 34.417969 C 117.074219 34.695312 116.695312 34.851562 116.304688 34.851562 L 3.6875 34.851562 C 3.292969 34.851562 2.917969 34.695312 2.640625 34.417969 C 2.363281 34.140625 2.207031 33.761719 2.207031 33.371094 L 2.207031 3.625 C 2.207031 3.234375 2.363281 2.855469 2.640625 2.578125 C 2.917969 2.300781 3.292969 2.144531 3.6875 2.144531 Z M 3.6875 2.144531 " clip-rule="nonzero"/></clipPath></defs><g clip-path="url(#94dca8cc7f)"><g clip-path="url(#bb835d8212)"><path stroke-linecap="butt" transform="matrix(0.740132, 0, 0, 0.740132, 2.207448, 2.146382)" fill="none" stroke-linejoin="miter" d="M 1.999714 -0.00250121 L 154.158054 -0.00250121 C 154.685832 -0.00250121 155.197776 0.20861 155.572499 0.583332 C 155.947221 0.958054 156.158332 1.469999 156.158332 1.997777 L 156.158332 42.188056 C 156.158332 42.715834 155.947221 43.227778 155.572499 43.602501 C 155.197776 43.977223 154.685832 44.188334 154.158054 44.188334 L 1.999714 44.188334 C 1.466659 44.188334 0.959992 43.977223 0.58527 43.602501 C 0.210548 43.227778 -0.000563518 42.715834 -0.000563518 42.188056 L -0.000563518 1.997777 C -0.000563518 1.469999 0.210548 0.958054 0.58527 0.583332 C 0.959992 0.20861 1.466659 -0.00250121 1.999714 -0.00250121 Z M 1.999714 -0.00250121 " stroke="#ffc107" stroke-width="4" stroke-opacity="1" stroke-miterlimit="4"/></g></g><g fill="#17053f" fill-opacity="1"><g transform="translate(6.443913, 22.574013)"><g><path d="M 1.566406 -11.558594 C 1.121094 -11.542969 1.007812 -11.445312 0.988281 -10.984375 C 0.988281 -10.042969 1.054688 -9.101562 1.054688 -8.164062 C 1.054688 -6.761719 0.972656 -5.359375 1.039062 -3.972656 C 1.070312 -2.933594 1.070312 -1.878906 1.070312 -0.839844 C 1.070312 -0.59375 1.039062 -0.328125 1.089844 -0.03125 C 2.523438 0 3.90625 0.015625 5.292969 0.0507812 C 5.375 0.0507812 5.441406 0.015625 5.523438 -0.0664062 C 5.558594 -1.1875 5.492188 -2.339844 5.574219 -3.464844 C 5.804688 -3.578125 6.003906 -3.546875 6.199219 -3.546875 C 6.726562 -3.578125 7.253906 -3.511719 7.765625 -3.546875 C 8.492188 -3.578125 9.203125 -3.578125 9.910156 -3.628906 C 10.785156 -3.695312 11.558594 -4.054688 12.234375 -4.585938 C 12.402344 -4.699219 12.566406 -4.816406 12.648438 -5.011719 C 12.910156 -5.589844 13.339844 -6.117188 13.355469 -6.808594 C 13.355469 -7.058594 13.457031 -7.320312 13.457031 -7.585938 C 13.457031 -8.410156 13.144531 -9.152344 12.714844 -9.828125 C 12.234375 -10.554688 11.542969 -10.964844 10.734375 -11.179688 C 9.730469 -11.460938 8.691406 -11.542969 7.652344 -11.542969 C 7.488281 -11.542969 7.304688 -11.492188 7.140625 -11.492188 C 6.183594 -11.492188 5.226562 -11.511719 4.269531 -11.492188 C 3.378906 -11.460938 2.472656 -11.574219 1.566406 -11.558594 Z M 6.894531 -9.777344 C 6.976562 -9.761719 7.058594 -9.746094 7.140625 -9.746094 C 7.46875 -9.761719 7.734375 -9.582031 7.914062 -9.332031 C 8.113281 -9.101562 8.277344 -8.820312 8.34375 -8.507812 C 8.507812 -7.847656 8.527344 -7.171875 8.277344 -6.511719 C 8.03125 -5.820312 7.46875 -5.308594 6.613281 -5.34375 C 6.28125 -5.34375 5.9375 -5.308594 5.558594 -5.375 C 5.492188 -6.859375 5.523438 -8.292969 5.539062 -9.777344 C 6.003906 -9.84375 6.449219 -9.859375 6.894531 -9.777344 Z M 6.894531 -9.777344 "/></g></g></g><g fill="#17053f" fill-opacity="1"><g transform="translate(19.923508, 22.574013)"><g><path d="M 5.375 -11.574219 C 5.0625 -11.527344 4.765625 -11.511719 4.453125 -11.527344 C 4.105469 -11.542969 3.742188 -11.542969 3.378906 -11.527344 C 3.167969 -11.511719 2.953125 -11.511719 2.738281 -11.527344 C 2.472656 -11.542969 2.210938 -11.609375 1.945312 -11.542969 C 1.632812 -11.476562 1.320312 -11.542969 0.988281 -11.492188 C 0.988281 -11.476562 1.023438 -10.800781 1.023438 -10.503906 C 1.023438 -10.242188 0.988281 -9.976562 1.007812 -9.710938 C 1.007812 -9.449219 1.054688 -9.203125 1.070312 -8.9375 C 1.105469 -8.574219 1.070312 -8.195312 1.070312 -7.816406 C 1.089844 -7.304688 1.070312 -6.792969 1.070312 -6.28125 C 1.070312 -5.855469 1.039062 -5.441406 1.054688 -5.03125 C 1.070312 -4.269531 1.039062 -3.511719 1.023438 -2.753906 C 1.007812 -2.339844 1.023438 -1.929688 1.054688 -1.5 C 1.089844 -1.121094 1.039062 -0.726562 1.007812 -0.328125 C 1.007812 -0.179688 1.039062 -0.0664062 1.171875 0.015625 C 1.664062 -0.0664062 2.160156 -0.03125 2.65625 -0.015625 C 2.984375 0 3.296875 0.0507812 3.628906 0.03125 C 4.253906 0.015625 4.882812 -0.0820312 5.523438 -0.0820312 C 5.671875 -0.0820312 5.773438 -0.214844 5.722656 -0.363281 C 5.707031 -0.429688 5.6875 -0.496094 5.6875 -0.5625 C 5.6875 -1.105469 5.707031 -1.648438 5.6875 -2.175781 C 5.6875 -2.671875 5.707031 -3.167969 5.671875 -3.660156 C 5.625 -4.371094 5.671875 -5.078125 5.6875 -5.789062 C 5.6875 -6.382812 5.707031 -6.976562 5.6875 -7.570312 C 5.671875 -7.933594 5.707031 -8.292969 5.6875 -8.65625 C 5.671875 -9.285156 5.738281 -9.925781 5.707031 -10.554688 C 5.6875 -10.785156 5.6875 -11.03125 5.707031 -11.261719 C 5.722656 -11.527344 5.625 -11.59375 5.375 -11.574219 Z M 5.375 -11.574219 "/></g></g></g><g fill="#17053f" fill-opacity="1"><g transform="translate(25.970832, 22.574013)"><g><path d="M 12.402344 -11.574219 C 12.105469 -11.542969 11.808594 -11.558594 11.511719 -11.542969 C 11.328125 -11.542969 11.148438 -11.492188 10.949219 -11.445312 C 11.046875 -9.070312 10.949219 -6.710938 11 -4.320312 C 9.136719 -6.597656 7.371094 -8.953125 5.605469 -11.261719 C 5.574219 -11.363281 5.492188 -11.425781 5.410156 -11.511719 C 3.890625 -11.542969 2.523438 -11.394531 1.023438 -11.460938 C 0.972656 -11.3125 0.988281 -11.230469 0.988281 -11.128906 C 1.054688 -10.554688 1.054688 -9.992188 1.054688 -9.414062 C 1.054688 -8.921875 1.023438 -8.425781 1.054688 -7.933594 C 1.089844 -7.652344 1.105469 -7.371094 1.089844 -7.089844 C 1.039062 -6.578125 1.054688 -6.070312 1.070312 -5.574219 C 1.105469 -4.796875 1.15625 -4.039062 1.15625 -3.265625 C 1.136719 -2.738281 1.136719 -2.226562 1.105469 -1.699219 C 1.089844 -1.1875 1.089844 -0.726562 1.089844 -0.214844 C 1.089844 -0.132812 1.089844 -0.03125 1.1875 0.03125 C 1.765625 -0.132812 2.375 0.0820312 2.917969 -0.0976562 C 2.851562 -0.890625 2.933594 -1.664062 2.871094 -2.441406 C 2.820312 -3.214844 2.804688 -4.007812 2.769531 -4.78125 C 2.753906 -5.574219 2.785156 -6.347656 2.722656 -7.140625 C 4.601562 -4.816406 6.398438 -2.441406 8.097656 0 C 8.128906 0.03125 10.175781 -0.015625 10.539062 0 C 11.128906 0.015625 11.542969 -0.03125 12.136719 -0.03125 C 12.21875 -0.03125 12.433594 0 12.5 -0.015625 C 12.632812 -0.03125 12.679688 -0.117188 12.679688 -0.230469 C 12.679688 -0.363281 12.679688 -0.496094 12.664062 -0.625 C 12.597656 -1.320312 12.679688 -1.996094 12.648438 -2.6875 C 12.613281 -3.101562 12.648438 -3.527344 12.632812 -3.941406 C 12.597656 -4.566406 12.582031 -5.195312 12.597656 -5.804688 C 12.632812 -6.480469 12.597656 -7.15625 12.613281 -7.832031 C 12.632812 -8.3125 12.613281 -8.789062 12.597656 -9.285156 C 12.582031 -9.53125 12.566406 -9.796875 12.582031 -10.042969 C 12.613281 -10.519531 12.632812 -11 12.632812 -11.476562 C 12.566406 -11.558594 12.5 -11.59375 12.402344 -11.574219 Z M 12.402344 -11.574219 "/></g></g></g><g fill="#17053f" fill-opacity="1"><g transform="translate(38.95604, 22.574013)"><g><path d="M 10.636719 -11.609375 C 9.546875 -11.574219 8.441406 -11.574219 7.355469 -11.527344 C 6.035156 -11.476562 4.714844 -11.558594 3.378906 -11.460938 C 2.6875 -11.425781 1.980469 -11.460938 1.285156 -11.445312 C 1.089844 -11.445312 0.890625 -11.476562 0.710938 -11.378906 C 0.59375 -10.867188 0.792969 -10.371094 0.660156 -9.878906 C 0.808594 -9.710938 0.988281 -9.710938 1.171875 -9.730469 C 1.597656 -9.777344 2.027344 -9.796875 2.457031 -9.761719 C 2.804688 -9.746094 3.167969 -9.777344 3.496094 -9.710938 C 3.59375 -9.613281 3.578125 -9.53125 3.578125 -9.449219 C 3.59375 -8.738281 3.695312 -8.046875 3.628906 -7.355469 C 3.578125 -6.828125 3.628906 -6.300781 3.628906 -5.789062 C 3.613281 -4.765625 3.59375 -3.757812 3.660156 -2.738281 C 3.695312 -1.980469 3.710938 -1.203125 3.613281 -0.429688 C 3.59375 -0.246094 3.578125 -0.0664062 3.757812 0.0507812 C 5.210938 -0.0820312 6.679688 0.0820312 8.128906 -0.015625 C 8.230469 -0.199219 8.210938 -0.347656 8.210938 -0.476562 C 8.195312 -0.824219 8.128906 -1.15625 8.144531 -1.484375 C 8.195312 -2.375 8.164062 -3.265625 8.128906 -4.15625 C 8.113281 -4.550781 8.210938 -4.945312 8.210938 -5.34375 C 8.210938 -5.804688 8.179688 -6.265625 8.164062 -6.726562 C 8.113281 -7.402344 8.144531 -8.082031 8.082031 -8.738281 C 8.0625 -9.054688 8.03125 -9.367188 8.128906 -9.695312 C 9.054688 -9.730469 9.992188 -9.828125 10.949219 -9.84375 C 11.195312 -10.40625 10.898438 -10.964844 11.015625 -11.476562 C 10.898438 -11.609375 10.769531 -11.609375 10.636719 -11.609375 Z M 10.636719 -11.609375 "/></g></g></g><g fill="#17053f" fill-opacity="1"><g transform="translate(49.864827, 22.574013)"><g><path d="M 10.601562 -11.542969 L 10.472656 -11.542969 C 9.945312 -11.542969 9.414062 -11.574219 8.90625 -11.527344 C 8.378906 -11.476562 7.847656 -11.542969 7.339844 -11.511719 C 6.808594 -11.460938 6.265625 -11.527344 5.738281 -11.492188 C 5.375 -11.476562 4.996094 -11.492188 4.632812 -11.476562 C 3.59375 -11.425781 2.554688 -11.511719 1.515625 -11.460938 C 1.367188 -11.460938 1.285156 -11.492188 1.136719 -11.445312 C 1.105469 -11.394531 1.023438 -11.378906 0.988281 -11.34375 C 1.007812 -11.128906 1.070312 -9.910156 1.039062 -8.359375 C 1.007812 -7.898438 1.007812 -7.4375 0.988281 -6.976562 C 0.988281 -6.511719 1.007812 -6.035156 1.007812 -5.574219 C 1.007812 -5.128906 1.039062 -4.699219 1.070312 -4.253906 C 1.105469 -3.972656 1.089844 -3.695312 1.089844 -3.414062 C 1.089844 -3.066406 1.105469 -2.703125 1.070312 -2.375 C 1.039062 -2.027344 1.039062 -1.714844 1.070312 -1.386719 C 1.105469 -0.921875 1.121094 -0.445312 1.089844 0.015625 C 1.089844 0.0820312 1.535156 0.015625 1.683594 0.015625 C 2.109375 0.015625 2.523438 0.0507812 2.933594 0.0820312 C 3.296875 0.0976562 4.667969 0.015625 4.863281 0.015625 C 5.789062 0.015625 6.710938 0.03125 7.617188 0 C 8.328125 -0.015625 9.035156 -0.0664062 9.746094 -0.015625 C 10.304688 0.015625 10.851562 -0.0820312 11.410156 -0.0664062 C 11.640625 -0.0507812 11.757812 -0.179688 11.742188 -0.414062 L 11.742188 -1.648438 C 11.394531 -1.832031 11.066406 -1.664062 10.734375 -1.664062 C 10.191406 -1.664062 9.628906 -1.683594 9.085938 -1.617188 C 8.820312 -1.597656 8.542969 -1.648438 8.292969 -1.597656 C 7.867188 -1.535156 7.453125 -1.550781 7.023438 -1.515625 C 6.695312 -1.5 6.332031 -1.515625 5.984375 -1.535156 C 5.835938 -1.550781 5.671875 -1.484375 5.539062 -1.582031 C 5.492188 -2.722656 5.390625 -3.859375 5.476562 -5.011719 L 6.695312 -5.011719 C 6.925781 -5.011719 7.15625 -5.011719 7.386719 -5.03125 C 7.980469 -5.046875 8.558594 -5.078125 9.152344 -5.078125 C 9.464844 -5.078125 9.777344 -5.09375 10.09375 -5.09375 C 10.257812 -5.09375 10.355469 -5.226562 10.355469 -5.390625 C 10.339844 -5.753906 10.324219 -6.117188 10.339844 -6.496094 C 10.355469 -6.726562 10.222656 -6.859375 9.992188 -6.875 C 9.710938 -6.894531 9.433594 -6.875 9.152344 -6.859375 C 8.574219 -6.84375 7.996094 -6.792969 7.421875 -6.792969 C 7.15625 -6.808594 6.894531 -6.828125 6.628906 -6.777344 C 6.25 -6.726562 5.886719 -6.84375 5.507812 -6.792969 C 5.390625 -7.800781 5.507812 -8.886719 5.476562 -9.878906 C 7.339844 -10.042969 9.21875 -9.925781 11.082031 -9.960938 C 11.097656 -10.042969 11.128906 -10.125 11.113281 -10.207031 C 11.082031 -10.503906 11.046875 -10.800781 11.097656 -11.113281 C 11.128906 -11.425781 10.933594 -11.574219 10.601562 -11.542969 Z M 10.601562 -11.542969 "/></g></g></g><g fill="#17053f" fill-opacity="1"><g transform="translate(61.383361, 22.574013)"><g><path d="M 8.773438 -11.574219 C 7.519531 -11.59375 6.265625 -11.425781 5.011719 -11.476562 C 4.417969 -11.492188 3.824219 -11.460938 3.230469 -11.460938 C 2.621094 -11.460938 2.011719 -11.511719 1.402344 -11.476562 C 1.269531 -11.476562 1.15625 -11.460938 1.054688 -11.3125 C 1.054688 -10.40625 1.039062 -9.464844 1.054688 -8.527344 L 1.054688 -2.851562 C 1.039062 -1.929688 0.972656 -0.988281 1.007812 -0.03125 L 5.523438 -0.03125 C 5.523438 -1.367188 5.390625 -2.65625 5.476562 -3.957031 C 6.628906 -2.65625 7.667969 -1.300781 8.90625 -0.03125 C 8.988281 -0.03125 9.117188 -0.0507812 9.265625 -0.03125 C 9.910156 0.015625 10.554688 -0.0507812 11.195312 0.03125 C 11.972656 0.0976562 12.730469 0.0976562 13.503906 0.0664062 C 13.636719 0.0664062 13.71875 0.015625 13.800781 -0.148438 C 13.226562 -0.824219 12.582031 -1.46875 11.972656 -2.144531 C 11.363281 -2.820312 10.75 -3.511719 10.125 -4.222656 C 10.324219 -4.269531 10.488281 -4.320312 10.667969 -4.386719 C 11.59375 -4.683594 12.269531 -5.292969 12.648438 -6.183594 C 13.027344 -7.023438 13.027344 -7.914062 12.847656 -8.804688 C 12.597656 -9.960938 11.808594 -10.6875 10.785156 -11.148438 C 10.421875 -11.296875 10.074219 -11.492188 9.664062 -11.527344 C 9.367188 -11.558594 9.070312 -11.574219 8.773438 -11.574219 Z M 6.117188 -9.710938 C 6.578125 -9.710938 7.023438 -9.746094 7.488281 -9.597656 C 7.785156 -9.515625 8.03125 -9.351562 8.195312 -9.085938 C 8.378906 -8.789062 8.558594 -8.476562 8.527344 -8.082031 C 8.527344 -7.847656 8.574219 -7.617188 8.574219 -7.386719 C 8.574219 -6.5625 8.164062 -6.167969 7.453125 -5.902344 C 7.273438 -5.820312 7.058594 -5.789062 6.84375 -5.804688 C 6.414062 -5.820312 6.003906 -5.773438 5.523438 -5.835938 C 5.476562 -7.125 5.425781 -8.394531 5.507812 -9.664062 C 5.722656 -9.777344 5.9375 -9.730469 6.117188 -9.710938 Z M 6.117188 -9.710938 "/></g></g></g><g fill="#17053f" fill-opacity="1"><g transform="translate(74.9124, 22.574013)"><g><path d="M 10.601562 -11.542969 L 10.472656 -11.542969 C 9.945312 -11.542969 9.414062 -11.574219 8.90625 -11.527344 C 8.378906 -11.476562 7.847656 -11.542969 7.339844 -11.511719 C 6.808594 -11.460938 6.265625 -11.527344 5.738281 -11.492188 C 5.375 -11.476562 4.996094 -11.492188 4.632812 -11.476562 C 3.59375 -11.425781 2.554688 -11.511719 1.515625 -11.460938 C 1.367188 -11.460938 1.285156 -11.492188 1.136719 -11.445312 C 1.105469 -11.394531 1.023438 -11.378906 0.988281 -11.34375 C 1.007812 -11.128906 1.070312 -9.910156 1.039062 -8.359375 C 1.007812 -7.898438 1.007812 -7.4375 0.988281 -6.976562 C 0.988281 -6.511719 1.007812 -6.035156 1.007812 -5.574219 C 1.007812 -5.128906 1.039062 -4.699219 1.070312 -4.253906 C 1.105469 -3.972656 1.089844 -3.695312 1.089844 -3.414062 C 1.089844 -3.066406 1.105469 -2.703125 1.070312 -2.375 C 1.039062 -2.027344 1.039062 -1.714844 1.070312 -1.386719 C 1.105469 -0.921875 1.121094 -0.445312 1.089844 0.015625 C 1.089844 0.0820312 1.535156 0.015625 1.683594 0.015625 C 2.109375 0.015625 2.523438 0.0507812 2.933594 0.0820312 C 3.296875 0.0976562 4.667969 0.015625 4.863281 0.015625 C 5.789062 0.015625 6.710938 0.03125 7.617188 0 C 8.328125 -0.015625 9.035156 -0.0664062 9.746094 -0.015625 C 10.304688 0.015625 10.851562 -0.0820312 11.410156 -0.0664062 C 11.640625 -0.0507812 11.757812 -0.179688 11.742188 -0.414062 L 11.742188 -1.648438 C 11.394531 -1.832031 11.066406 -1.664062 10.734375 -1.664062 C 10.191406 -1.664062 9.628906 -1.683594 9.085938 -1.617188 C 8.820312 -1.597656 8.542969 -1.648438 8.292969 -1.597656 C 7.867188 -1.535156 7.453125 -1.550781 7.023438 -1.515625 C 6.695312 -1.5 6.332031 -1.515625 5.984375 -1.535156 C 5.835938 -1.550781 5.671875 -1.484375 5.539062 -1.582031 C 5.492188 -2.722656 5.390625 -3.859375 5.476562 -5.011719 L 6.695312 -5.011719 C 6.925781 -5.011719 7.15625 -5.011719 7.386719 -5.03125 C 7.980469 -5.046875 8.558594 -5.078125 9.152344 -5.078125 C 9.464844 -5.078125 9.777344 -5.09375 10.09375 -5.09375 C 10.257812 -5.09375 10.355469 -5.226562 10.355469 -5.390625 C 10.339844 -5.753906 10.324219 -6.117188 10.339844 -6.496094 C 10.355469 -6.726562 10.222656 -6.859375 9.992188 -6.875 C 9.710938 -6.894531 9.433594 -6.875 9.152344 -6.859375 C 8.574219 -6.84375 7.996094 -6.792969 7.421875 -6.792969 C 7.15625 -6.808594 6.894531 -6.828125 6.628906 -6.777344 C 6.25 -6.726562 5.886719 -6.84375 5.507812 -6.792969 C 5.390625 -7.800781 5.507812 -8.886719 5.476562 -9.878906 C 7.339844 -10.042969 9.21875 -9.925781 11.082031 -9.960938 C 11.097656 -10.042969 11.128906 -10.125 11.113281 -10.207031 C 11.082031 -10.503906 11.046875 -10.800781 11.097656 -11.113281 C 11.128906 -11.425781 10.933594 -11.574219 10.601562 -11.542969 Z M 10.601562 -11.542969 "/></g></g></g><g fill="#17053f" fill-opacity="1"><g transform="translate(86.430935, 22.574013)"><g><path d="M 4.816406 -11.757812 C 4.105469 -11.707031 3.464844 -11.492188 2.835938 -11.214844 C 2.539062 -11.082031 2.257812 -10.933594 2.027344 -10.703125 C 1.417969 -10.09375 1.070312 -9.367188 1.023438 -8.492188 C 0.972656 -7.570312 1.238281 -6.710938 1.929688 -6.117188 C 2.472656 -5.640625 2.917969 -5.03125 3.644531 -4.75 C 3.90625 -4.632812 4.140625 -4.4375 4.386719 -4.289062 C 4.816406 -4.054688 5.242188 -3.792969 5.65625 -3.527344 C 6.050781 -3.265625 6.449219 -2.984375 6.828125 -2.671875 C 7.125 -2.40625 7.089844 -1.714844 6.628906 -1.597656 C 5.9375 -1.402344 5.261719 -1.402344 4.601562 -1.632812 C 4.238281 -1.664062 3.808594 -1.945312 3.429688 -2.144531 C 2.984375 -2.359375 2.523438 -2.738281 2.210938 -3.132812 C 2.128906 -3.230469 1.996094 -3.316406 1.914062 -3.378906 C 1.664062 -3.398438 1.566406 -3.265625 1.46875 -3.148438 C 1.300781 -2.953125 1.15625 -2.753906 1.023438 -2.554688 C 0.921875 -2.425781 0.625 -2.078125 0.675781 -1.960938 C 0.792969 -1.699219 1.203125 -1.417969 1.417969 -1.238281 C 2.144531 -0.59375 2.984375 -0.199219 3.90625 0.03125 C 5.011719 0.296875 6.132812 0.296875 7.253906 0.148438 C 8.230469 0.03125 9.136719 -0.265625 9.910156 -0.875 C 10.191406 -1.089844 10.453125 -1.335938 10.585938 -1.648438 C 10.769531 -2.144531 10.917969 -2.636719 10.917969 -3.199219 C 10.882812 -4.15625 10.539062 -4.945312 9.84375 -5.589844 C 9.398438 -6.035156 8.839844 -6.332031 8.34375 -6.726562 C 7.949219 -7.023438 7.519531 -7.253906 7.105469 -7.535156 C 6.660156 -7.832031 6.199219 -8.113281 5.753906 -8.425781 C 5.589844 -8.542969 5.441406 -8.707031 5.34375 -8.886719 C 5.09375 -9.316406 5.242188 -9.710938 5.6875 -9.859375 C 5.835938 -9.910156 5.96875 -9.945312 6.117188 -9.945312 C 6.578125 -9.976562 7.007812 -9.925781 7.4375 -9.777344 C 7.980469 -9.597656 8.425781 -9.285156 8.65625 -8.738281 C 8.707031 -8.640625 8.738281 -8.527344 8.886719 -8.441406 C 9.433594 -8.460938 10.027344 -8.34375 10.601562 -8.441406 C 10.636719 -8.691406 10.601562 -8.855469 10.539062 -9.035156 C 10.4375 -9.25 10.289062 -9.433594 10.175781 -9.628906 C 9.648438 -10.488281 8.953125 -11.113281 7.980469 -11.425781 C 6.957031 -11.757812 5.902344 -11.839844 4.816406 -11.757812 Z M 4.816406 -11.757812 "/></g></g></g><g fill="#17053f" fill-opacity="1"><g transform="translate(97.224369, 22.574013)"><g><path d="M 10.636719 -11.609375 C 9.546875 -11.574219 8.441406 -11.574219 7.355469 -11.527344 C 6.035156 -11.476562 4.714844 -11.558594 3.378906 -11.460938 C 2.6875 -11.425781 1.980469 -11.460938 1.285156 -11.445312 C 1.089844 -11.445312 0.890625 -11.476562 0.710938 -11.378906 C 0.59375 -10.867188 0.792969 -10.371094 0.660156 -9.878906 C 0.808594 -9.710938 0.988281 -9.710938 1.171875 -9.730469 C 1.597656 -9.777344 2.027344 -9.796875 2.457031 -9.761719 C 2.804688 -9.746094 3.167969 -9.777344 3.496094 -9.710938 C 3.59375 -9.613281 3.578125 -9.53125 3.578125 -9.449219 C 3.59375 -8.738281 3.695312 -8.046875 3.628906 -7.355469 C 3.578125 -6.828125 3.628906 -6.300781 3.628906 -5.789062 C 3.613281 -4.765625 3.59375 -3.757812 3.660156 -2.738281 C 3.695312 -1.980469 3.710938 -1.203125 3.613281 -0.429688 C 3.59375 -0.246094 3.578125 -0.0664062 3.757812 0.0507812 C 5.210938 -0.0820312 6.679688 0.0820312 8.128906 -0.015625 C 8.230469 -0.199219 8.210938 -0.347656 8.210938 -0.476562 C 8.195312 -0.824219 8.128906 -1.15625 8.144531 -1.484375 C 8.195312 -2.375 8.164062 -3.265625 8.128906 -4.15625 C 8.113281 -4.550781 8.210938 -4.945312 8.210938 -5.34375 C 8.210938 -5.804688 8.179688 -6.265625 8.164062 -6.726562 C 8.113281 -7.402344 8.144531 -8.082031 8.082031 -8.738281 C 8.0625 -9.054688 8.03125 -9.367188 8.128906 -9.695312 C 9.054688 -9.730469 9.992188 -9.828125 10.949219 -9.84375 C 11.195312 -10.40625 10.898438 -10.964844 11.015625 -11.476562 C 10.898438 -11.609375 10.769531 -11.609375 10.636719 -11.609375 Z M 10.636719 -11.609375 "/></g></g></g><g fill="#17053f" fill-opacity="1"><g transform="translate(108.142614, 22.574013)"><g/></g></g></svg>