<svg xmlns="http://www.w3.org/2000/svg" xmlns:xlink="http://www.w3.org/1999/xlink" width="160" zoomAndPan="magnify" viewBox="0 0 120 37.5" height="50" preserveAspectRatio="xMidYMid meet" version="1.0"><defs><g/><clipPath id="b09a905008"><path d="M 2.195312 2.144531 L 117.65625 2.144531 L 117.65625 34.710938 L 2.195312 34.710938 Z M 2.195312 2.144531 " clip-rule="nonzero"/></clipPath><clipPath id="0bb118b8aa"><path d="M 3.6875 2.144531 L 116.304688 2.144531 C 116.695312 2.144531 117.074219 2.300781 117.351562 2.578125 C 117.628906 2.855469 117.785156 3.234375 117.785156 3.625 L 117.785156 33.371094 C 117.785156 33.761719 117.628906 34.140625 117.351562 34.417969 C 117.074219 34.695312 116.695312 34.851562 116.304688 34.851562 L 3.6875 34.851562 C 3.292969 34.851562 2.917969 34.695312 2.640625 34.417969 C 2.363281 34.140625 2.207031 33.761719 2.207031 33.371094 L 2.207031 3.625 C 2.207031 3.234375 2.363281 2.855469 2.640625 2.578125 C 2.917969 2.300781 3.292969 2.144531 3.6875 2.144531 Z M 3.6875 2.144531 " clip-rule="nonzero"/></clipPath></defs><g clip-path="url(#b09a905008)"><g clip-path="url(#0bb118b8aa)"><path stroke-linecap="butt" transform="matrix(0.740132, 0, 0, 0.740132, 2.207448, 2.146382)" fill="none" stroke-linejoin="miter" d="M 1.999714 -0.00250121 L 154.158054 -0.00250121 C 154.685832 -0.00250121 155.197776 0.20861 155.572499 0.583332 C 155.947221 0.958054 156.158332 1.469999 156.158332 1.997777 L 156.158332 42.188056 C 156.158332 42.715834 155.947221 43.227778 155.572499 43.602501 C 155.197776 43.977223 154.685832 44.188334 154.158054 44.188334 L 1.999714 44.188334 C 1.466659 44.188334 0.959992 43.977223 0.58527 43.602501 C 0.210548 43.227778 -0.000563518 42.715834 -0.000563518 42.188056 L -0.000563518 1.997777 C -0.000563518 1.469999 0.210548 0.958054 0.58527 0.583332 C 0.959992 0.20861 1.466659 -0.00250121 1.999714 -0.00250121 Z M 1.999714 -0.00250121 " stroke="#ffc107" stroke-width="4" stroke-opacity="1" stroke-miterlimit="4"/></g></g><g fill="#17053f" fill-opacity="1"><g transform="translate(41.105538, 23.314145)"><g><path d="M 4.816406 -11.757812 C 4.105469 -11.707031 3.464844 -11.492188 2.835938 -11.214844 C 2.539062 -11.082031 2.257812 -10.933594 2.027344 -10.703125 C 1.417969 -10.09375 1.070312 -9.367188 1.023438 -8.492188 C 0.972656 -7.570312 1.238281 -6.710938 1.929688 -6.117188 C 2.472656 -5.640625 2.917969 -5.03125 3.644531 -4.75 C 3.90625 -4.632812 4.140625 -4.4375 4.386719 -4.289062 C 4.816406 -4.054688 5.242188 -3.792969 5.65625 -3.527344 C 6.050781 -3.265625 6.449219 -2.984375 6.828125 -2.671875 C 7.125 -2.40625 7.089844 -1.714844 6.628906 -1.597656 C 5.9375 -1.402344 5.261719 -1.402344 4.601562 -1.632812 C 4.238281 -1.664062 3.808594 -1.945312 3.429688 -2.144531 C 2.984375 -2.359375 2.523438 -2.738281 2.210938 -3.132812 C 2.128906 -3.230469 1.996094 -3.316406 1.914062 -3.378906 C 1.664062 -3.398438 1.566406 -3.265625 1.46875 -3.148438 C 1.300781 -2.953125 1.15625 -2.753906 1.023438 -2.554688 C 0.921875 -2.425781 0.625 -2.078125 0.675781 -1.960938 C 0.792969 -1.699219 1.203125 -1.417969 1.417969 -1.238281 C 2.144531 -0.59375 2.984375 -0.199219 3.90625 0.03125 C 5.011719 0.296875 6.132812 0.296875 7.253906 0.148438 C 8.230469 0.03125 9.136719 -0.265625 9.910156 -0.875 C 10.191406 -1.089844 10.453125 -1.335938 10.585938 -1.648438 C 10.769531 -2.144531 10.917969 -2.636719 10.917969 -3.199219 C 10.882812 -4.15625 10.539062 -4.945312 9.84375 -5.589844 C 9.398438 -6.035156 8.839844 -6.332031 8.34375 -6.726562 C 7.949219 -7.023438 7.519531 -7.253906 7.105469 -7.535156 C 6.660156 -7.832031 6.199219 -8.113281 5.753906 -8.425781 C 5.589844 -8.542969 5.441406 -8.707031 5.34375 -8.886719 C 5.09375 -9.316406 5.242188 -9.710938 5.6875 -9.859375 C 5.835938 -9.910156 5.96875 -9.945312 6.117188 -9.945312 C 6.578125 -9.976562 7.007812 -9.925781 7.4375 -9.777344 C 7.980469 -9.597656 8.425781 -9.285156 8.65625 -8.738281 C 8.707031 -8.640625 8.738281 -8.527344 8.886719 -8.441406 C 9.433594 -8.460938 10.027344 -8.34375 10.601562 -8.441406 C 10.636719 -8.691406 10.601562 -8.855469 10.539062 -9.035156 C 10.4375 -9.25 10.289062 -9.433594 10.175781 -9.628906 C 9.648438 -10.488281 8.953125 -11.113281 7.980469 -11.425781 C 6.957031 -11.757812 5.902344 -11.839844 4.816406 -11.757812 Z M 4.816406 -11.757812 "/></g></g></g><g fill="#17053f" fill-opacity="1"><g transform="translate(51.898971, 23.314145)"><g><path d="M 10.601562 -11.542969 L 10.472656 -11.542969 C 9.945312 -11.542969 9.414062 -11.574219 8.90625 -11.527344 C 8.378906 -11.476562 7.847656 -11.542969 7.339844 -11.511719 C 6.808594 -11.460938 6.265625 -11.527344 5.738281 -11.492188 C 5.375 -11.476562 4.996094 -11.492188 4.632812 -11.476562 C 3.59375 -11.425781 2.554688 -11.511719 1.515625 -11.460938 C 1.367188 -11.460938 1.285156 -11.492188 1.136719 -11.445312 C 1.105469 -11.394531 1.023438 -11.378906 0.988281 -11.34375 C 1.007812 -11.128906 1.070312 -9.910156 1.039062 -8.359375 C 1.007812 -7.898438 1.007812 -7.4375 0.988281 -6.976562 C 0.988281 -6.511719 1.007812 -6.035156 1.007812 -5.574219 C 1.007812 -5.128906 1.039062 -4.699219 1.070312 -4.253906 C 1.105469 -3.972656 1.089844 -3.695312 1.089844 -3.414062 C 1.089844 -3.066406 1.105469 -2.703125 1.070312 -2.375 C 1.039062 -2.027344 1.039062 -1.714844 1.070312 -1.386719 C 1.105469 -0.921875 1.121094 -0.445312 1.089844 0.015625 C 1.089844 0.0820312 1.535156 0.015625 1.683594 0.015625 C 2.109375 0.015625 2.523438 0.0507812 2.933594 0.0820312 C 3.296875 0.0976562 4.667969 0.015625 4.863281 0.015625 C 5.789062 0.015625 6.710938 0.03125 7.617188 0 C 8.328125 -0.015625 9.035156 -0.0664062 9.746094 -0.015625 C 10.304688 0.015625 10.851562 -0.0820312 11.410156 -0.0664062 C 11.640625 -0.0507812 11.757812 -0.179688 11.742188 -0.414062 L 11.742188 -1.648438 C 11.394531 -1.832031 11.066406 -1.664062 10.734375 -1.664062 C 10.191406 -1.664062 9.628906 -1.683594 9.085938 -1.617188 C 8.820312 -1.597656 8.542969 -1.648438 8.292969 -1.597656 C 7.867188 -1.535156 7.453125 -1.550781 7.023438 -1.515625 C 6.695312 -1.5 6.332031 -1.515625 5.984375 -1.535156 C 5.835938 -1.550781 5.671875 -1.484375 5.539062 -1.582031 C 5.492188 -2.722656 5.390625 -3.859375 5.476562 -5.011719 L 6.695312 -5.011719 C 6.925781 -5.011719 7.15625 -5.011719 7.386719 -5.03125 C 7.980469 -5.046875 8.558594 -5.078125 9.152344 -5.078125 C 9.464844 -5.078125 9.777344 -5.09375 10.09375 -5.09375 C 10.257812 -5.09375 10.355469 -5.226562 10.355469 -5.390625 C 10.339844 -5.753906 10.324219 -6.117188 10.339844 -6.496094 C 10.355469 -6.726562 10.222656 -6.859375 9.992188 -6.875 C 9.710938 -6.894531 9.433594 -6.875 9.152344 -6.859375 C 8.574219 -6.84375 7.996094 -6.792969 7.421875 -6.792969 C 7.15625 -6.808594 6.894531 -6.828125 6.628906 -6.777344 C 6.25 -6.726562 5.886719 -6.84375 5.507812 -6.792969 C 5.390625 -7.800781 5.507812 -8.886719 5.476562 -9.878906 C 7.339844 -10.042969 9.21875 -9.925781 11.082031 -9.960938 C 11.097656 -10.042969 11.128906 -10.125 11.113281 -10.207031 C 11.082031 -10.503906 11.046875 -10.800781 11.097656 -11.113281 C 11.128906 -11.425781 10.933594 -11.574219 10.601562 -11.542969 Z M 10.601562 -11.542969 "/></g></g></g><g fill="#17053f" fill-opacity="1"><g transform="translate(63.417504, 23.314145)"><g><path d="M 7.964844 -11.742188 C 7.585938 -11.773438 7.207031 -11.757812 6.828125 -11.722656 C 6.511719 -11.691406 6.183594 -11.660156 5.871094 -11.574219 C 5.574219 -11.511719 5.195312 -11.394531 4.996094 -11.328125 C 4.484375 -11.179688 4.253906 -11.03125 3.757812 -10.851562 C 3.148438 -10.601562 2.671875 -10.15625 2.277344 -9.664062 C 1.996094 -9.332031 1.746094 -8.953125 1.515625 -8.574219 C 1.203125 -8.03125 1.007812 -7.46875 0.839844 -6.875 C 0.742188 -6.496094 0.691406 -4.964844 0.792969 -4.617188 C 0.921875 -4.171875 1.238281 -3.148438 1.484375 -2.753906 C 1.632812 -2.523438 1.78125 -2.277344 1.980469 -2.09375 C 2.292969 -1.78125 2.472656 -1.386719 2.871094 -1.15625 C 3.066406 -1.039062 3.265625 -0.90625 3.445312 -0.757812 C 3.742188 -0.527344 4.121094 -0.460938 4.46875 -0.296875 C 4.863281 -0.0820312 5.328125 -0.0664062 5.753906 0.0507812 C 6.199219 0.148438 6.660156 0.148438 7.105469 0.214844 C 7.371094 0.246094 7.636719 0.230469 7.898438 0.230469 C 8.328125 0.230469 8.492188 0.214844 8.953125 0.132812 C 9.367188 0.0664062 9.796875 0.0664062 10.207031 -0.0820312 C 10.539062 -0.214844 10.867188 -0.328125 11.164062 -0.511719 C 11.691406 -0.808594 12.203125 -1.136719 12.582031 -1.632812 C 12.910156 -2.042969 13.191406 -2.488281 13.421875 -2.96875 C 13.605469 -3.363281 13.734375 -3.792969 13.851562 -4.222656 C 14.066406 -4.996094 14.164062 -5.773438 14.066406 -6.53125 C 14.066406 -7.074219 13.902344 -7.519531 13.769531 -7.980469 C 13.585938 -8.640625 13.226562 -9.203125 12.761719 -9.695312 C 12.402344 -10.09375 11.972656 -10.421875 11.527344 -10.71875 C 11.378906 -10.816406 11.230469 -10.984375 11.082031 -11.03125 C 10.6875 -11.164062 10.339844 -11.410156 9.910156 -11.460938 C 9.5625 -11.511719 9.21875 -11.675781 8.855469 -11.691406 Z M 7.320312 -10.042969 C 7.570312 -10.125 8.195312 -10.027344 8.34375 -9.828125 C 8.589844 -9.5 8.722656 -9.152344 8.855469 -8.722656 C 9.117188 -8.144531 9.003906 -7.601562 9.117188 -6.976562 C 9.152344 -6.746094 9.152344 -6.496094 9.152344 -6.265625 C 9.152344 -5.605469 9.167969 -4.964844 9.101562 -4.304688 C 9.035156 -3.644531 8.90625 -3 8.722656 -2.375 C 8.609375 -2.011719 8.378906 -1.730469 8.0625 -1.535156 C 7.847656 -1.386719 7.585938 -1.402344 7.320312 -1.5 C 6.859375 -1.648438 6.597656 -1.996094 6.363281 -2.390625 C 6.019531 -2.984375 5.902344 -3.644531 5.773438 -4.304688 C 5.722656 -4.519531 5.722656 -4.765625 5.707031 -4.996094 C 5.671875 -5.359375 5.605469 -5.789062 5.65625 -6.152344 C 5.738281 -6.910156 5.789062 -7.585938 6.019531 -8.3125 C 6.152344 -8.691406 6.25 -9.070312 6.464844 -9.398438 C 6.628906 -9.679688 6.992188 -9.945312 7.320312 -10.042969 Z M 7.320312 -10.042969 "/></g></g></g></svg>