<svg xmlns="http://www.w3.org/2000/svg" xmlns:xlink="http://www.w3.org/1999/xlink" width="160" zoomAndPan="magnify" viewBox="0 0 120 37.5" height="50" preserveAspectRatio="xMidYMid meet" version="1.0"><defs><g/><clipPath id="4ee50e9c76"><path d="M 2.195312 2.144531 L 117.65625 2.144531 L 117.65625 34.710938 L 2.195312 34.710938 Z M 2.195312 2.144531 " clip-rule="nonzero"/></clipPath><clipPath id="858e348f35"><path d="M 3.6875 2.144531 L 116.304688 2.144531 C 116.695312 2.144531 117.074219 2.300781 117.351562 2.578125 C 117.628906 2.855469 117.785156 3.234375 117.785156 3.625 L 117.785156 33.371094 C 117.785156 33.761719 117.628906 34.140625 117.351562 34.417969 C 117.074219 34.695312 116.695312 34.851562 116.304688 34.851562 L 3.6875 34.851562 C 3.292969 34.851562 2.917969 34.695312 2.640625 34.417969 C 2.363281 34.140625 2.207031 33.761719 2.207031 33.371094 L 2.207031 3.625 C 2.207031 3.234375 2.363281 2.855469 2.640625 2.578125 C 2.917969 2.300781 3.292969 2.144531 3.6875 2.144531 Z M 3.6875 2.144531 " clip-rule="nonzero"/></clipPath></defs><g clip-path="url(#4ee50e9c76)"><g clip-path="url(#858e348f35)"><path stroke-linecap="butt" transform="matrix(0.740132, 0, 0, 0.740132, 2.207448, 2.146382)" fill="none" stroke-linejoin="miter" d="M 1.999714 -0.00250121 L 154.158054 -0.00250121 C 154.685832 -0.00250121 155.197776 0.20861 155.572499 0.583332 C 155.947221 0.958054 156.158332 1.469999 156.158332 1.997777 L 156.158332 42.188056 C 156.158332 42.715834 155.947221 43.227778 155.572499 43.602501 C 155.197776 43.977223 154.685832 44.188334 154.158054 44.188334 L 1.999714 44.188334 C 1.466659 44.188334 0.959992 43.977223 0.58527 43.602501 C 0.210548 43.227778 -0.000563518 42.715834 -0.000563518 42.188056 L -0.000563518 1.997777 C -0.000563518 1.469999 0.210548 0.958054 0.58527 0.583332 C 0.959992 0.20861 1.466659 -0.00250121 1.999714 -0.00250121 Z M 1.999714 -0.00250121 " stroke="#ffc107" stroke-width="4" stroke-opacity="1" stroke-miterlimit="4"/></g></g><g fill="#17053f" fill-opacity="1"><g transform="translate(17.54347, 23.314145)"><g><path d="M 4.816406 -11.757812 C 4.105469 -11.707031 3.464844 -11.492188 2.835938 -11.214844 C 2.539062 -11.082031 2.257812 -10.933594 2.027344 -10.703125 C 1.417969 -10.09375 1.070312 -9.367188 1.023438 -8.492188 C 0.972656 -7.570312 1.238281 -6.710938 1.929688 -6.117188 C 2.472656 -5.640625 2.917969 -5.03125 3.644531 -4.75 C 3.90625 -4.632812 4.140625 -4.4375 4.386719 -4.289062 C 4.816406 -4.054688 5.242188 -3.792969 5.65625 -3.527344 C 6.050781 -3.265625 6.449219 -2.984375 6.828125 -2.671875 C 7.125 -2.40625 7.089844 -1.714844 6.628906 -1.597656 C 5.9375 -1.402344 5.261719 -1.402344 4.601562 -1.632812 C 4.238281 -1.664062 3.808594 -1.945312 3.429688 -2.144531 C 2.984375 -2.359375 2.523438 -2.738281 2.210938 -3.132812 C 2.128906 -3.230469 1.996094 -3.316406 1.914062 -3.378906 C 1.664062 -3.398438 1.566406 -3.265625 1.46875 -3.148438 C 1.300781 -2.953125 1.15625 -2.753906 1.023438 -2.554688 C 0.921875 -2.425781 0.625 -2.078125 0.675781 -1.960938 C 0.792969 -1.699219 1.203125 -1.417969 1.417969 -1.238281 C 2.144531 -0.59375 2.984375 -0.199219 3.90625 0.03125 C 5.011719 0.296875 6.132812 0.296875 7.253906 0.148438 C 8.230469 0.03125 9.136719 -0.265625 9.910156 -0.875 C 10.191406 -1.089844 10.453125 -1.335938 10.585938 -1.648438 C 10.769531 -2.144531 10.917969 -2.636719 10.917969 -3.199219 C 10.882812 -4.15625 10.539062 -4.945312 9.84375 -5.589844 C 9.398438 -6.035156 8.839844 -6.332031 8.34375 -6.726562 C 7.949219 -7.023438 7.519531 -7.253906 7.105469 -7.535156 C 6.660156 -7.832031 6.199219 -8.113281 5.753906 -8.425781 C 5.589844 -8.542969 5.441406 -8.707031 5.34375 -8.886719 C 5.09375 -9.316406 5.242188 -9.710938 5.6875 -9.859375 C 5.835938 -9.910156 5.96875 -9.945312 6.117188 -9.945312 C 6.578125 -9.976562 7.007812 -9.925781 7.4375 -9.777344 C 7.980469 -9.597656 8.425781 -9.285156 8.65625 -8.738281 C 8.707031 -8.640625 8.738281 -8.527344 8.886719 -8.441406 C 9.433594 -8.460938 10.027344 -8.34375 10.601562 -8.441406 C 10.636719 -8.691406 10.601562 -8.855469 10.539062 -9.035156 C 10.4375 -9.25 10.289062 -9.433594 10.175781 -9.628906 C 9.648438 -10.488281 8.953125 -11.113281 7.980469 -11.425781 C 6.957031 -11.757812 5.902344 -11.839844 4.816406 -11.757812 Z M 4.816406 -11.757812 "/></g></g></g><g fill="#17053f" fill-opacity="1"><g transform="translate(28.336903, 23.314145)"><g><path d="M 2.636719 -11.527344 C 2.128906 -11.527344 1.632812 -11.460938 1.121094 -11.445312 C 0.941406 -11.445312 1.007812 -11.015625 1.007812 -10.882812 C 0.988281 -10.472656 1.039062 -10.058594 1.007812 -9.628906 C 0.972656 -9.203125 1.007812 -8.773438 1.007812 -7.816406 C 1.070312 -7.402344 0.988281 -7.007812 1.023438 -6.597656 C 1.089844 -5.953125 1.007812 -5.308594 1.023438 -4.648438 C 1.054688 -4.074219 1.023438 -3.496094 1.054688 -2.917969 C 1.054688 -2.722656 1.089844 -2.507812 1.054688 -2.308594 C 1.039062 -2.109375 1.039062 -1.914062 1.054688 -1.714844 C 1.105469 -1.253906 1.023438 -0.808594 1.039062 -0.363281 C 1.054688 -0.0976562 1.007812 -0.015625 1.21875 0.0820312 C 1.253906 0.0664062 1.351562 0.0507812 1.386719 0.0507812 C 2.738281 0.03125 4.105469 -0.0507812 5.476562 -0.015625 C 5.574219 -0.015625 5.589844 -0.132812 5.605469 -0.164062 C 5.492188 -1.699219 5.539062 -3.199219 5.574219 -4.699219 C 5.6875 -4.75 8.046875 -4.765625 8.128906 -4.734375 C 8.128906 -4.617188 8.113281 -4.484375 8.128906 -4.351562 C 8.195312 -3.84375 8.179688 -3.347656 8.164062 -2.820312 C 8.144531 -2.441406 8.113281 -2.042969 8.128906 -1.664062 C 8.144531 -1.1875 8.082031 -0.710938 8.128906 -0.246094 C 8.164062 -0.0664062 8.230469 0.0507812 8.394531 0 C 8.65625 -0.0507812 8.9375 -0.015625 9.203125 0 C 9.664062 0 10.125 -0.0507812 10.570312 0 C 10.964844 0.0507812 11.363281 -0.03125 11.757812 -0.015625 C 12.019531 0 12.285156 -0.015625 12.566406 -0.03125 C 12.582031 -0.117188 12.648438 -0.214844 12.632812 -0.28125 C 12.582031 -0.691406 12.582031 -1.089844 12.582031 -1.5 C 12.597656 -1.980469 12.582031 -2.457031 12.613281 -2.933594 C 12.632812 -3.613281 12.648438 -4.269531 12.648438 -4.945312 C 12.664062 -5.226562 12.582031 -5.492188 12.582031 -5.773438 C 12.597656 -6.132812 12.632812 -6.511719 12.613281 -6.894531 C 12.566406 -7.652344 12.648438 -8.394531 12.582031 -9.152344 C 12.53125 -9.648438 12.632812 -10.15625 12.597656 -10.652344 C 12.582031 -10.898438 12.648438 -11.148438 12.597656 -11.394531 C 12.433594 -11.511719 12.253906 -11.542969 12.070312 -11.511719 C 11.789062 -11.460938 11.511719 -11.511719 11.214844 -11.492188 C 10.933594 -11.476562 10.636719 -11.511719 10.355469 -11.476562 C 10.027344 -11.445312 9.695312 -11.460938 9.382812 -11.410156 C 8.96875 -11.363281 8.574219 -11.527344 8.128906 -11.394531 C 8.082031 -9.796875 8.210938 -8.210938 8.097656 -6.613281 C 8.03125 -6.613281 7.964844 -6.628906 7.914062 -6.628906 C 7.617188 -6.597656 7.339844 -6.578125 7.058594 -6.5625 L 6.347656 -6.5625 C 6.070312 -6.53125 5.902344 -6.597656 5.625 -6.5625 C 5.640625 -6.679688 5.640625 -6.777344 5.640625 -6.875 C 5.625 -7.339844 5.605469 -7.785156 5.605469 -8.246094 C 5.605469 -8.328125 5.589844 -8.425781 5.589844 -8.507812 C 5.574219 -8.839844 5.507812 -9.167969 5.539062 -9.5 C 5.589844 -9.976562 5.605469 -10.453125 5.589844 -10.933594 C 5.574219 -11.113281 5.589844 -11.3125 5.476562 -11.460938 C 5.425781 -11.511719 5.359375 -11.492188 5.292969 -11.492188 L 4.023438 -11.492188 C 3.5625 -11.492188 3.101562 -11.527344 2.636719 -11.527344 Z M 2.636719 -11.527344 "/></g></g></g><g fill="#17053f" fill-opacity="1"><g transform="translate(41.289147, 23.314145)"><g><path d="M 7.964844 -11.742188 C 7.585938 -11.773438 7.207031 -11.757812 6.828125 -11.722656 C 6.511719 -11.691406 6.183594 -11.660156 5.871094 -11.574219 C 5.574219 -11.511719 5.195312 -11.394531 4.996094 -11.328125 C 4.484375 -11.179688 4.253906 -11.03125 3.757812 -10.851562 C 3.148438 -10.601562 2.671875 -10.15625 2.277344 -9.664062 C 1.996094 -9.332031 1.746094 -8.953125 1.515625 -8.574219 C 1.203125 -8.03125 1.007812 -7.46875 0.839844 -6.875 C 0.742188 -6.496094 0.691406 -4.964844 0.792969 -4.617188 C 0.921875 -4.171875 1.238281 -3.148438 1.484375 -2.753906 C 1.632812 -2.523438 1.78125 -2.277344 1.980469 -2.09375 C 2.292969 -1.78125 2.472656 -1.386719 2.871094 -1.15625 C 3.066406 -1.039062 3.265625 -0.90625 3.445312 -0.757812 C 3.742188 -0.527344 4.121094 -0.460938 4.46875 -0.296875 C 4.863281 -0.0820312 5.328125 -0.0664062 5.753906 0.0507812 C 6.199219 0.148438 6.660156 0.148438 7.105469 0.214844 C 7.371094 0.246094 7.636719 0.230469 7.898438 0.230469 C 8.328125 0.230469 8.492188 0.214844 8.953125 0.132812 C 9.367188 0.0664062 9.796875 0.0664062 10.207031 -0.0820312 C 10.539062 -0.214844 10.867188 -0.328125 11.164062 -0.511719 C 11.691406 -0.808594 12.203125 -1.136719 12.582031 -1.632812 C 12.910156 -2.042969 13.191406 -2.488281 13.421875 -2.96875 C 13.605469 -3.363281 13.734375 -3.792969 13.851562 -4.222656 C 14.066406 -4.996094 14.164062 -5.773438 14.066406 -6.53125 C 14.066406 -7.074219 13.902344 -7.519531 13.769531 -7.980469 C 13.585938 -8.640625 13.226562 -9.203125 12.761719 -9.695312 C 12.402344 -10.09375 11.972656 -10.421875 11.527344 -10.71875 C 11.378906 -10.816406 11.230469 -10.984375 11.082031 -11.03125 C 10.6875 -11.164062 10.339844 -11.410156 9.910156 -11.460938 C 9.5625 -11.511719 9.21875 -11.675781 8.855469 -11.691406 Z M 7.320312 -10.042969 C 7.570312 -10.125 8.195312 -10.027344 8.34375 -9.828125 C 8.589844 -9.5 8.722656 -9.152344 8.855469 -8.722656 C 9.117188 -8.144531 9.003906 -7.601562 9.117188 -6.976562 C 9.152344 -6.746094 9.152344 -6.496094 9.152344 -6.265625 C 9.152344 -5.605469 9.167969 -4.964844 9.101562 -4.304688 C 9.035156 -3.644531 8.90625 -3 8.722656 -2.375 C 8.609375 -2.011719 8.378906 -1.730469 8.0625 -1.535156 C 7.847656 -1.386719 7.585938 -1.402344 7.320312 -1.5 C 6.859375 -1.648438 6.597656 -1.996094 6.363281 -2.390625 C 6.019531 -2.984375 5.902344 -3.644531 5.773438 -4.304688 C 5.722656 -4.519531 5.722656 -4.765625 5.707031 -4.996094 C 5.671875 -5.359375 5.605469 -5.789062 5.65625 -6.152344 C 5.738281 -6.910156 5.789062 -7.585938 6.019531 -8.3125 C 6.152344 -8.691406 6.25 -9.070312 6.464844 -9.398438 C 6.628906 -9.679688 6.992188 -9.945312 7.320312 -10.042969 Z M 7.320312 -10.042969 "/></g></g></g><g fill="#17053f" fill-opacity="1"><g transform="translate(55.411443, 23.314145)"><g><path d="M 1.566406 -11.558594 C 1.121094 -11.542969 1.007812 -11.445312 0.988281 -10.984375 C 0.988281 -10.042969 1.054688 -9.101562 1.054688 -8.164062 C 1.054688 -6.761719 0.972656 -5.359375 1.039062 -3.972656 C 1.070312 -2.933594 1.070312 -1.878906 1.070312 -0.839844 C 1.070312 -0.59375 1.039062 -0.328125 1.089844 -0.03125 C 2.523438 0 3.90625 0.015625 5.292969 0.0507812 C 5.375 0.0507812 5.441406 0.015625 5.523438 -0.0664062 C 5.558594 -1.1875 5.492188 -2.339844 5.574219 -3.464844 C 5.804688 -3.578125 6.003906 -3.546875 6.199219 -3.546875 C 6.726562 -3.578125 7.253906 -3.511719 7.765625 -3.546875 C 8.492188 -3.578125 9.203125 -3.578125 9.910156 -3.628906 C 10.785156 -3.695312 11.558594 -4.054688 12.234375 -4.585938 C 12.402344 -4.699219 12.566406 -4.816406 12.648438 -5.011719 C 12.910156 -5.589844 13.339844 -6.117188 13.355469 -6.808594 C 13.355469 -7.058594 13.457031 -7.320312 13.457031 -7.585938 C 13.457031 -8.410156 13.144531 -9.152344 12.714844 -9.828125 C 12.234375 -10.554688 11.542969 -10.964844 10.734375 -11.179688 C 9.730469 -11.460938 8.691406 -11.542969 7.652344 -11.542969 C 7.488281 -11.542969 7.304688 -11.492188 7.140625 -11.492188 C 6.183594 -11.492188 5.226562 -11.511719 4.269531 -11.492188 C 3.378906 -11.460938 2.472656 -11.574219 1.566406 -11.558594 Z M 6.894531 -9.777344 C 6.976562 -9.761719 7.058594 -9.746094 7.140625 -9.746094 C 7.46875 -9.761719 7.734375 -9.582031 7.914062 -9.332031 C 8.113281 -9.101562 8.277344 -8.820312 8.34375 -8.507812 C 8.507812 -7.847656 8.527344 -7.171875 8.277344 -6.511719 C 8.03125 -5.820312 7.46875 -5.308594 6.613281 -5.34375 C 6.28125 -5.34375 5.9375 -5.308594 5.558594 -5.375 C 5.492188 -6.859375 5.523438 -8.292969 5.539062 -9.777344 C 6.003906 -9.84375 6.449219 -9.859375 6.894531 -9.777344 Z M 6.894531 -9.777344 "/></g></g></g><g fill="#17053f" fill-opacity="1"><g transform="translate(68.891039, 23.314145)"><g><path d="M 5.375 -11.574219 C 5.0625 -11.527344 4.765625 -11.511719 4.453125 -11.527344 C 4.105469 -11.542969 3.742188 -11.542969 3.378906 -11.527344 C 3.167969 -11.511719 2.953125 -11.511719 2.738281 -11.527344 C 2.472656 -11.542969 2.210938 -11.609375 1.945312 -11.542969 C 1.632812 -11.476562 1.320312 -11.542969 0.988281 -11.492188 C 0.988281 -11.476562 1.023438 -10.800781 1.023438 -10.503906 C 1.023438 -10.242188 0.988281 -9.976562 1.007812 -9.710938 C 1.007812 -9.449219 1.054688 -9.203125 1.070312 -8.9375 C 1.105469 -8.574219 1.070312 -8.195312 1.070312 -7.816406 C 1.089844 -7.304688 1.070312 -6.792969 1.070312 -6.28125 C 1.070312 -5.855469 1.039062 -5.441406 1.054688 -5.03125 C 1.070312 -4.269531 1.039062 -3.511719 1.023438 -2.753906 C 1.007812 -2.339844 1.023438 -1.929688 1.054688 -1.5 C 1.089844 -1.121094 1.039062 -0.726562 1.007812 -0.328125 C 1.007812 -0.179688 1.039062 -0.0664062 1.171875 0.015625 C 1.664062 -0.0664062 2.160156 -0.03125 2.65625 -0.015625 C 2.984375 0 3.296875 0.0507812 3.628906 0.03125 C 4.253906 0.015625 4.882812 -0.0820312 5.523438 -0.0820312 C 5.671875 -0.0820312 5.773438 -0.214844 5.722656 -0.363281 C 5.707031 -0.429688 5.6875 -0.496094 5.6875 -0.5625 C 5.6875 -1.105469 5.707031 -1.648438 5.6875 -2.175781 C 5.6875 -2.671875 5.707031 -3.167969 5.671875 -3.660156 C 5.625 -4.371094 5.671875 -5.078125 5.6875 -5.789062 C 5.6875 -6.382812 5.707031 -6.976562 5.6875 -7.570312 C 5.671875 -7.933594 5.707031 -8.292969 5.6875 -8.65625 C 5.671875 -9.285156 5.738281 -9.925781 5.707031 -10.554688 C 5.6875 -10.785156 5.6875 -11.03125 5.707031 -11.261719 C 5.722656 -11.527344 5.625 -11.59375 5.375 -11.574219 Z M 5.375 -11.574219 "/></g></g></g><g fill="#17053f" fill-opacity="1"><g transform="translate(74.938364, 23.314145)"><g><path d="M 10.800781 -11.558594 C 10.390625 -11.511719 9.992188 -11.558594 9.597656 -11.511719 C 9.203125 -11.460938 8.804688 -11.511719 8.410156 -11.527344 C 8.128906 -11.527344 7.832031 -11.542969 7.550781 -11.511719 C 7.289062 -11.476562 5.457031 -11.511719 5.0625 -11.460938 C 4.75 -11.425781 4.417969 -11.476562 4.105469 -11.492188 C 3.992188 -11.511719 3.875 -11.476562 3.777344 -11.476562 C 3.332031 -11.460938 2.886719 -11.527344 2.441406 -11.492188 C 2.191406 -11.476562 1.929688 -11.527344 1.664062 -11.527344 C 1.449219 -11.527344 1.21875 -11.542969 1.023438 -11.394531 C 1.007812 -11.246094 0.972656 -11.097656 0.988281 -10.949219 C 1.070312 -10.175781 0.972656 -9.382812 0.988281 -8.589844 C 1.007812 -8.246094 1.007812 -7.914062 1.007812 -7.570312 C 1.007812 -7.125 1.023438 -6.679688 1.039062 -6.234375 C 1.039062 -5.984375 1.007812 -5.707031 1.023438 -5.457031 C 1.054688 -5.179688 1.070312 -4.914062 1.054688 -4.632812 C 1.054688 -4.222656 1.054688 -3.808594 1.089844 -3.398438 C 1.121094 -2.871094 1.023438 -2.324219 1.070312 -1.78125 C 1.089844 -1.417969 1.039062 -1.039062 1.039062 -0.660156 C 1.039062 -0.527344 1.039062 -0.230469 1.023438 -0.0976562 C 0.988281 0.0976562 1.484375 -0.015625 2.144531 -0.015625 C 2.457031 -0.03125 2.753906 -0.03125 3.050781 -0.015625 C 3.511719 0 3.972656 0.0507812 4.4375 0 C 4.683594 -0.015625 4.914062 0.015625 5.144531 0 C 5.375 -0.015625 5.476562 -0.0664062 5.476562 -0.3125 C 5.492188 -0.496094 5.492188 -0.691406 5.507812 -0.875 C 5.558594 -1.699219 5.492188 -2.507812 5.492188 -3.332031 C 5.492188 -3.742188 5.476562 -4.15625 5.492188 -4.550781 C 5.773438 -4.648438 6.035156 -4.617188 6.300781 -4.601562 C 6.710938 -4.585938 7.140625 -4.632812 7.550781 -4.585938 C 7.898438 -4.550781 8.246094 -4.601562 8.574219 -4.617188 L 9.925781 -4.617188 C 10.027344 -4.617188 10.324219 -4.632812 10.324219 -4.714844 L 10.339844 -5.09375 C 10.273438 -5.6875 10.421875 -5.984375 10.273438 -6.449219 C 8.707031 -6.332031 7.105469 -6.332031 5.574219 -6.332031 C 5.492188 -7.519531 5.605469 -8.671875 5.492188 -9.84375 C 5.640625 -9.84375 5.738281 -9.859375 5.835938 -9.859375 C 6.613281 -9.878906 7.386719 -9.859375 8.164062 -9.894531 C 8.804688 -9.910156 9.464844 -9.910156 10.125 -9.945312 C 10.339844 -9.945312 10.570312 -9.960938 10.800781 -9.894531 C 10.867188 -9.878906 10.933594 -9.910156 10.984375 -9.976562 C 11.03125 -10.421875 10.933594 -10.851562 11.046875 -11.296875 C 11.015625 -11.425781 10.917969 -11.511719 10.800781 -11.558594 Z M 10.800781 -11.558594 "/></g></g></g><g fill="#17053f" fill-opacity="1"><g transform="translate(85.764753, 23.314145)"><g><path d="M 12.152344 -11.574219 C 11.558594 -11.757812 11.03125 -11.640625 10.519531 -11.410156 C 10.289062 -11.296875 10.125 -11.128906 9.992188 -10.898438 C 9.664062 -10.324219 9.367188 -9.746094 9.117188 -9.136719 C 8.820312 -8.394531 8.476562 -7.683594 8.097656 -6.957031 C 7.964844 -6.660156 7.914062 -6.332031 7.683594 -6.085938 C 7.652344 -6.117188 7.617188 -6.117188 7.601562 -6.132812 C 6.808594 -7.898438 5.96875 -9.628906 5.210938 -11.410156 C 4.996094 -11.558594 4.765625 -11.542969 4.535156 -11.527344 C 4.371094 -11.527344 4.222656 -11.511719 4.054688 -11.511719 C 2.933594 -11.527344 1.8125 -11.527344 0.675781 -11.542969 C 0.5625 -11.542969 0.476562 -11.574219 0.414062 -11.445312 C 0.394531 -11.363281 0.414062 -11.3125 0.445312 -11.246094 C 0.691406 -10.769531 1.023438 -10.339844 1.269531 -9.859375 C 1.550781 -9.351562 1.78125 -8.789062 2.0625 -8.277344 C 2.621094 -7.171875 3.199219 -6.101562 3.792969 -5.03125 C 4.023438 -4.648438 4.121094 -4.253906 4.140625 -3.808594 C 4.1875 -2.65625 4.15625 -1.515625 4.171875 -0.347656 C 4.171875 -0.214844 4.121094 -0.0664062 4.269531 0.0664062 C 4.519531 0.03125 4.816406 -0.015625 5.113281 0 C 5.640625 0.015625 6.167969 -0.0664062 6.695312 -0.015625 C 7.371094 0.0664062 8.03125 0.0507812 8.707031 -0.0507812 C 8.839844 -0.265625 8.789062 -0.445312 8.789062 -0.644531 C 8.773438 -1.039062 8.691406 -1.433594 8.707031 -1.8125 L 8.757812 -3.859375 C 8.757812 -4.054688 8.789062 -4.269531 8.886719 -4.453125 C 9.183594 -5.03125 9.398438 -5.65625 9.679688 -6.25 C 10.140625 -7.207031 10.539062 -8.195312 11.03125 -9.136719 C 11.246094 -9.546875 11.460938 -9.945312 12.085938 -9.859375 C 12.136719 -9.859375 12.167969 -9.878906 12.21875 -9.945312 C 12.136719 -10.453125 12.234375 -11.015625 12.152344 -11.574219 Z M 12.152344 -11.574219 "/></g></g></g></svg>