<svg xmlns="http://www.w3.org/2000/svg" xmlns:xlink="http://www.w3.org/1999/xlink" width="160" zoomAndPan="magnify" viewBox="0 0 120 37.5" height="50" preserveAspectRatio="xMidYMid meet" version="1.0"><defs><g/><clipPath id="e3a52e4c2e"><path d="M 2.195312 2.144531 L 117.65625 2.144531 L 117.65625 34.710938 L 2.195312 34.710938 Z M 2.195312 2.144531 " clip-rule="nonzero"/></clipPath><clipPath id="f2722101ea"><path d="M 3.6875 2.144531 L 116.304688 2.144531 C 116.695312 2.144531 117.074219 2.300781 117.351562 2.578125 C 117.628906 2.855469 117.785156 3.234375 117.785156 3.625 L 117.785156 33.371094 C 117.785156 33.761719 117.628906 34.140625 117.351562 34.417969 C 117.074219 34.695312 116.695312 34.851562 116.304688 34.851562 L 3.6875 34.851562 C 3.292969 34.851562 2.917969 34.695312 2.640625 34.417969 C 2.363281 34.140625 2.207031 33.761719 2.207031 33.371094 L 2.207031 3.625 C 2.207031 3.234375 2.363281 2.855469 2.640625 2.578125 C 2.917969 2.300781 3.292969 2.144531 3.6875 2.144531 Z M 3.6875 2.144531 " clip-rule="nonzero"/></clipPath></defs><g clip-path="url(#e3a52e4c2e)"><g clip-path="url(#f2722101ea)"><path stroke-linecap="butt" transform="matrix(0.740132, 0, 0, 0.740132, 2.207448, 2.146382)" fill="none" stroke-linejoin="miter" d="M 1.999714 -0.00250121 L 154.158054 -0.00250121 C 154.685832 -0.00250121 155.197776 0.20861 155.572499 0.583332 C 155.947221 0.958054 156.158332 1.469999 156.158332 1.997777 L 156.158332 42.188056 C 156.158332 42.715834 155.947221 43.227778 155.572499 43.602501 C 155.197776 43.977223 154.685832 44.188334 154.158054 44.188334 L 1.999714 44.188334 C 1.466659 44.188334 0.959992 43.977223 0.58527 43.602501 C 0.210548 43.227778 -0.000563518 42.715834 -0.000563518 42.188056 L -0.000563518 1.997777 C -0.000563518 1.469999 0.210548 0.958054 0.58527 0.583332 C 0.959992 0.20861 1.466659 -0.00250121 1.999714 -0.00250121 Z M 1.999714 -0.00250121 " stroke="#ffc107" stroke-width="4" stroke-opacity="1" stroke-miterlimit="4"/></g></g><g fill="#17053f" fill-opacity="1"><g transform="translate(6.81203, 21.504935)"><g><path d="M 16.078125 -9.871094 C 15.644531 -9.769531 15.28125 -9.601562 15 -9.210938 C 14.539062 -8.550781 14.339844 -7.792969 14.1875 -7.039062 C 14.074219 -6.449219 13.933594 -5.875 13.851562 -5.300781 C 13.765625 -4.78125 13.597656 -4.289062 13.515625 -3.769531 C 13.484375 -3.601562 13.472656 -3.40625 13.359375 -3.238281 C 13.332031 -3.265625 13.304688 -3.28125 13.304688 -3.292969 C 13.066406 -4.039062 12.8125 -4.78125 12.601562 -5.539062 C 12.433594 -6.140625 12.28125 -6.757812 12.113281 -7.359375 C 12.085938 -7.457031 12.054688 -7.542969 12.042969 -7.640625 C 11.886719 -8.242188 11.71875 -8.847656 11.578125 -9.449219 C 11.550781 -9.617188 11.46875 -9.714844 11.3125 -9.8125 C 10.164062 -9.769531 8.984375 -9.871094 7.824219 -9.730469 C 7.792969 -9.632812 7.78125 -9.5625 7.753906 -9.492188 C 7.515625 -8.675781 7.402344 -7.835938 7.191406 -7.023438 C 6.910156 -5.957031 6.671875 -4.863281 6.40625 -3.800781 C 6.363281 -3.632812 6.351562 -3.449219 6.210938 -3.292969 C 6.167969 -3.378906 6.140625 -3.421875 6.125 -3.492188 C 5.859375 -4.515625 5.523438 -5.539062 5.328125 -6.589844 C 5.144531 -7.570312 4.824219 -8.523438 4.640625 -9.503906 C 4.613281 -9.714844 4.5 -9.800781 4.289062 -9.785156 C 3.980469 -9.757812 3.671875 -9.800781 3.378906 -9.785156 C 2.957031 -9.769531 2.539062 -9.757812 2.117188 -9.757812 C 1.640625 -9.742188 1.175781 -9.757812 0.699219 -9.757812 C 0.589844 -9.757812 0.433594 -9.785156 0.351562 -9.699219 C 0.351562 -9.589844 0.363281 -9.449219 0.40625 -9.351562 C 0.5625 -8.859375 0.628906 -8.382812 0.828125 -7.894531 C 0.925781 -7.667969 0.996094 -7.429688 1.050781 -7.207031 C 1.246094 -6.238281 1.527344 -5.300781 1.824219 -4.359375 C 2.003906 -3.757812 2.199219 -3.152344 2.382812 -2.550781 L 3 -0.421875 C 3.042969 -0.265625 3.113281 -0.125 3.222656 -0.015625 C 3.378906 0.015625 3.53125 0 3.671875 0 C 4.148438 0.015625 4.625 0 5.101562 0.0273438 C 5.59375 0.0703125 6.097656 0.0546875 6.589844 0.0546875 C 6.757812 0.0546875 6.882812 -0.0429688 6.910156 -0.195312 C 6.96875 -0.601562 7.121094 -0.996094 7.207031 -1.386719 C 7.332031 -1.90625 7.445312 -2.425781 7.597656 -2.929688 L 8.101562 -4.554688 C 8.269531 -5.089844 8.425781 -5.621094 8.550781 -6.183594 C 8.636719 -6.152344 8.664062 -6.125 8.664062 -6.085938 C 8.859375 -5.328125 9.113281 -4.585938 9.28125 -3.828125 C 9.378906 -3.324219 9.503906 -2.816406 9.660156 -2.328125 C 9.898438 -1.625 10.121094 -0.925781 10.261719 -0.195312 C 10.289062 -0.113281 10.332031 -0.0546875 10.359375 -0.0429688 C 11.648438 -0.0546875 12.898438 0.0976562 14.117188 -0.0859375 C 14.214844 -0.210938 14.242188 -0.335938 14.269531 -0.476562 C 14.4375 -1.21875 14.621094 -1.976562 14.847656 -2.707031 C 15.042969 -3.390625 15.140625 -4.09375 15.292969 -4.78125 C 15.519531 -5.804688 15.742188 -6.828125 16.023438 -7.824219 C 16.066406 -7.960938 16.121094 -8.101562 16.21875 -8.214844 C 16.402344 -8.4375 16.695312 -8.480469 16.933594 -8.4375 C 16.933594 -8.539062 16.976562 -8.621094 16.976562 -8.746094 L 16.976562 -9.335938 C 16.992188 -9.519531 17.003906 -9.6875 16.90625 -9.855469 C 16.625 -9.882812 16.347656 -9.9375 16.078125 -9.871094 Z M 16.078125 -9.871094 "/></g></g></g><g fill="#17053f" fill-opacity="1"><g transform="translate(23.581241, 21.504935)"><g><path d="M 6.769531 -9.980469 C 6.449219 -10.007812 6.125 -9.996094 5.804688 -9.96875 C 5.539062 -9.9375 5.257812 -9.910156 4.992188 -9.839844 C 4.738281 -9.785156 4.414062 -9.6875 4.246094 -9.632812 C 3.8125 -9.503906 3.617188 -9.378906 3.195312 -9.222656 C 2.675781 -9.015625 2.269531 -8.636719 1.933594 -8.214844 C 1.695312 -7.933594 1.484375 -7.613281 1.289062 -7.289062 C 1.023438 -6.828125 0.855469 -6.351562 0.714844 -5.847656 C 0.628906 -5.523438 0.589844 -4.21875 0.671875 -3.925781 C 0.785156 -3.546875 1.050781 -2.675781 1.261719 -2.339844 C 1.386719 -2.144531 1.515625 -1.933594 1.683594 -1.78125 C 1.949219 -1.515625 2.101562 -1.175781 2.4375 -0.980469 C 2.609375 -0.882812 2.777344 -0.769531 2.929688 -0.644531 C 3.183594 -0.449219 3.503906 -0.390625 3.800781 -0.253906 C 4.136719 -0.0703125 4.527344 -0.0546875 4.894531 0.0429688 C 5.269531 0.125 5.664062 0.125 6.042969 0.183594 C 6.265625 0.210938 6.492188 0.195312 6.714844 0.195312 C 7.078125 0.195312 7.21875 0.183594 7.613281 0.113281 C 7.960938 0.0546875 8.328125 0.0546875 8.675781 -0.0703125 C 8.957031 -0.183594 9.238281 -0.28125 9.492188 -0.433594 C 9.9375 -0.6875 10.375 -0.96875 10.695312 -1.386719 C 10.976562 -1.738281 11.214844 -2.117188 11.410156 -2.523438 C 11.566406 -2.859375 11.675781 -3.222656 11.777344 -3.589844 C 11.957031 -4.246094 12.042969 -4.90625 11.957031 -5.550781 C 11.957031 -6.015625 11.816406 -6.394531 11.707031 -6.785156 C 11.550781 -7.347656 11.242188 -7.824219 10.851562 -8.242188 C 10.542969 -8.578125 10.175781 -8.859375 9.800781 -9.113281 C 9.671875 -9.195312 9.546875 -9.335938 9.421875 -9.378906 C 9.085938 -9.492188 8.789062 -9.699219 8.425781 -9.742188 C 8.132812 -9.785156 7.835938 -9.925781 7.527344 -9.9375 Z M 6.222656 -8.539062 C 6.433594 -8.609375 6.96875 -8.523438 7.09375 -8.355469 C 7.304688 -8.074219 7.414062 -7.78125 7.527344 -7.414062 C 7.753906 -6.925781 7.652344 -6.460938 7.753906 -5.929688 C 7.78125 -5.734375 7.78125 -5.523438 7.78125 -5.328125 C 7.78125 -4.765625 7.792969 -4.21875 7.738281 -3.660156 C 7.683594 -3.097656 7.570312 -2.550781 7.414062 -2.019531 C 7.316406 -1.710938 7.121094 -1.472656 6.855469 -1.304688 C 6.671875 -1.175781 6.449219 -1.191406 6.222656 -1.277344 C 5.832031 -1.402344 5.609375 -1.695312 5.410156 -2.03125 C 5.117188 -2.539062 5.019531 -3.097656 4.90625 -3.660156 C 4.863281 -3.839844 4.863281 -4.050781 4.851562 -4.246094 C 4.824219 -4.554688 4.765625 -4.921875 4.808594 -5.230469 C 4.878906 -5.875 4.921875 -6.449219 5.117188 -7.066406 C 5.230469 -7.386719 5.3125 -7.710938 5.496094 -7.992188 C 5.636719 -8.230469 5.945312 -8.453125 6.222656 -8.539062 Z M 6.222656 -8.539062 "/></g></g></g><g fill="#17053f" fill-opacity="1"><g transform="translate(35.587109, 21.504935)"><g><path d="M 7.457031 -9.839844 C 6.394531 -9.855469 5.328125 -9.714844 4.261719 -9.757812 C 3.757812 -9.769531 3.253906 -9.742188 2.746094 -9.742188 C 2.230469 -9.742188 1.710938 -9.785156 1.191406 -9.757812 C 1.078125 -9.757812 0.980469 -9.742188 0.898438 -9.617188 C 0.898438 -8.847656 0.882812 -8.046875 0.898438 -7.246094 L 0.898438 -2.425781 C 0.882812 -1.640625 0.828125 -0.839844 0.855469 -0.0273438 L 4.695312 -0.0273438 C 4.695312 -1.164062 4.585938 -2.257812 4.652344 -3.363281 C 5.636719 -2.257812 6.519531 -1.109375 7.570312 -0.0273438 C 7.640625 -0.0273438 7.753906 -0.0429688 7.878906 -0.0273438 C 8.425781 0.015625 8.972656 -0.0429688 9.519531 0.0273438 C 10.175781 0.0859375 10.824219 0.0859375 11.480469 0.0546875 C 11.59375 0.0546875 11.664062 0.015625 11.734375 -0.125 C 11.242188 -0.699219 10.695312 -1.246094 10.175781 -1.824219 C 9.660156 -2.398438 9.140625 -2.984375 8.609375 -3.589844 C 8.777344 -3.632812 8.914062 -3.671875 9.070312 -3.730469 C 9.855469 -3.980469 10.429688 -4.5 10.753906 -5.257812 C 11.074219 -5.972656 11.074219 -6.730469 10.921875 -7.484375 C 10.710938 -8.46875 10.039062 -9.085938 9.167969 -9.476562 C 8.859375 -9.601562 8.566406 -9.769531 8.214844 -9.800781 C 7.960938 -9.828125 7.710938 -9.839844 7.457031 -9.839844 Z M 5.199219 -8.257812 C 5.59375 -8.257812 5.972656 -8.285156 6.363281 -8.160156 C 6.617188 -8.089844 6.828125 -7.949219 6.96875 -7.722656 C 7.121094 -7.472656 7.277344 -7.207031 7.246094 -6.871094 C 7.246094 -6.671875 7.289062 -6.476562 7.289062 -6.28125 C 7.289062 -5.578125 6.9375 -5.242188 6.335938 -5.019531 C 6.183594 -4.949219 6 -4.921875 5.816406 -4.933594 C 5.453125 -4.949219 5.101562 -4.90625 4.695312 -4.960938 C 4.652344 -6.054688 4.613281 -7.136719 4.683594 -8.214844 C 4.863281 -8.3125 5.046875 -8.269531 5.199219 -8.257812 Z M 5.199219 -8.257812 "/></g></g></g><g fill="#17053f" fill-opacity="1"><g transform="translate(47.088625, 21.504935)"><g><path d="M 3.042969 -9.828125 C 2.578125 -9.871094 2.117188 -9.800781 1.640625 -9.8125 C 1.386719 -9.828125 1.136719 -9.855469 0.882812 -9.785156 C 0.839844 -9.699219 0.855469 -9.503906 0.855469 -9.433594 C 0.839844 -9.027344 0.882812 -8.761719 0.882812 -8.355469 L 0.882812 -7.007812 C 0.882812 -6.730469 0.882812 -6.433594 0.871094 -6.152344 C 0.855469 -5.832031 0.855469 -5.523438 0.871094 -5.214844 C 0.871094 -4.835938 0.882812 -4.457031 0.855469 -4.078125 C 0.828125 -3.8125 0.855469 -3.546875 0.871094 -3.265625 L 0.910156 -2.480469 L 0.910156 -1.445312 C 0.910156 -1.136719 0.925781 -0.839844 0.898438 -0.53125 C 0.882812 -0.363281 0.839844 -0.238281 0.953125 0 C 1.347656 -0.0429688 1.753906 -0.015625 2.160156 -0.0429688 C 2.636719 -0.0703125 3.113281 0 3.601562 -0.0273438 C 4.429688 -0.0703125 5.269531 -0.015625 6.097656 0 C 6.644531 0.015625 7.175781 -0.0546875 7.722656 -0.0429688 C 8.019531 -0.0429688 8.3125 -0.140625 8.621094 -0.167969 C 8.972656 -0.210938 9.292969 -0.335938 9.617188 -0.503906 C 9.910156 -0.660156 10.164062 -0.882812 10.414062 -1.109375 C 10.78125 -1.445312 11.046875 -1.835938 11.230469 -2.269531 C 11.46875 -2.832031 11.636719 -3.40625 11.664062 -4.023438 C 11.707031 -4.542969 11.761719 -4.992188 11.761719 -5.496094 C 11.761719 -5.859375 11.636719 -6.335938 11.636719 -6.53125 C 11.636719 -6.589844 11.609375 -6.644531 11.59375 -6.699219 C 11.4375 -7.050781 11.328125 -7.429688 11.132812 -7.753906 C 10.992188 -7.976562 10.851562 -8.1875 10.683594 -8.382812 C 10.515625 -8.59375 10.261719 -8.707031 10.066406 -8.875 C 9.855469 -9.070312 9.617188 -9.222656 9.363281 -9.335938 C 9 -9.476562 8.636719 -9.644531 8.230469 -9.671875 C 7.949219 -9.699219 7.597656 -9.8125 7.316406 -9.800781 C 6.980469 -9.769531 6.222656 -9.828125 5.902344 -9.8125 C 5.523438 -9.785156 3.390625 -9.800781 3.042969 -9.828125 Z M 5.746094 -8.425781 C 6.378906 -8.398438 6.785156 -8.046875 7.066406 -7.5 C 7.21875 -7.21875 7.304688 -6.96875 7.386719 -6.660156 C 7.484375 -6.335938 7.554688 -5.945312 7.554688 -5.648438 C 7.570312 -5.300781 7.542969 -4.933594 7.570312 -4.570312 C 7.597656 -4.332031 7.570312 -3.253906 7.234375 -2.507812 C 7.109375 -2.230469 6.910156 -2.003906 6.660156 -1.808594 C 6.363281 -1.585938 6.054688 -1.515625 5.71875 -1.484375 C 5.425781 -1.457031 5.0625 -1.472656 4.765625 -1.472656 C 4.667969 -1.667969 4.738281 -1.878906 4.722656 -2.089844 C 4.710938 -2.566406 4.667969 -3.054688 4.667969 -3.53125 C 4.667969 -3.96875 4.710938 -5.578125 4.683594 -5.761719 C 4.652344 -5.957031 4.710938 -6.714844 4.683594 -7.191406 C 4.667969 -7.585938 4.753906 -7.960938 4.695312 -8.371094 C 4.808594 -8.398438 4.921875 -8.425781 5.03125 -8.425781 C 5.269531 -8.410156 5.507812 -8.425781 5.746094 -8.425781 Z M 5.746094 -8.425781 "/></g></g></g><g fill="#17053f" fill-opacity="1"><g transform="translate(58.870339, 21.504935)"><g><path d="M 1.332031 -9.828125 C 0.953125 -9.8125 0.855469 -9.730469 0.839844 -9.335938 C 0.839844 -8.539062 0.898438 -7.738281 0.898438 -6.9375 C 0.898438 -5.746094 0.828125 -4.554688 0.882812 -3.378906 C 0.910156 -2.496094 0.910156 -1.597656 0.910156 -0.714844 C 0.910156 -0.503906 0.882812 -0.28125 0.925781 -0.0273438 C 2.144531 0 3.324219 0.015625 4.5 0.0429688 C 4.570312 0.0429688 4.625 0.015625 4.695312 -0.0546875 C 4.722656 -1.007812 4.667969 -1.992188 4.738281 -2.945312 C 4.933594 -3.042969 5.101562 -3.015625 5.269531 -3.015625 C 5.71875 -3.042969 6.167969 -2.984375 6.601562 -3.015625 C 7.21875 -3.042969 7.824219 -3.042969 8.425781 -3.085938 C 9.167969 -3.140625 9.828125 -3.449219 10.402344 -3.898438 C 10.542969 -3.996094 10.683594 -4.09375 10.753906 -4.261719 C 10.976562 -4.753906 11.339844 -5.199219 11.355469 -5.789062 C 11.355469 -6 11.4375 -6.222656 11.4375 -6.449219 C 11.4375 -7.148438 11.171875 -7.78125 10.808594 -8.355469 C 10.402344 -8.972656 9.8125 -9.324219 9.125 -9.503906 C 8.269531 -9.742188 7.386719 -9.8125 6.503906 -9.8125 C 6.363281 -9.8125 6.210938 -9.769531 6.070312 -9.769531 C 5.257812 -9.769531 4.445312 -9.785156 3.632812 -9.769531 C 2.875 -9.742188 2.101562 -9.839844 1.332031 -9.828125 Z M 5.859375 -8.3125 C 5.929688 -8.300781 6 -8.285156 6.070312 -8.285156 C 6.351562 -8.300781 6.574219 -8.144531 6.730469 -7.933594 C 6.898438 -7.738281 7.039062 -7.5 7.09375 -7.234375 C 7.234375 -6.671875 7.246094 -6.097656 7.039062 -5.539062 C 6.828125 -4.949219 6.351562 -4.515625 5.621094 -4.542969 C 5.339844 -4.542969 5.046875 -4.515625 4.722656 -4.570312 C 4.667969 -5.832031 4.695312 -7.050781 4.710938 -8.3125 C 5.101562 -8.371094 5.480469 -8.382812 5.859375 -8.3125 Z M 5.859375 -8.3125 "/></g></g></g><g fill="#17053f" fill-opacity="1"><g transform="translate(70.329824, 21.504935)"><g><path d="M 7.457031 -9.839844 C 6.394531 -9.855469 5.328125 -9.714844 4.261719 -9.757812 C 3.757812 -9.769531 3.253906 -9.742188 2.746094 -9.742188 C 2.230469 -9.742188 1.710938 -9.785156 1.191406 -9.757812 C 1.078125 -9.757812 0.980469 -9.742188 0.898438 -9.617188 C 0.898438 -8.847656 0.882812 -8.046875 0.898438 -7.246094 L 0.898438 -2.425781 C 0.882812 -1.640625 0.828125 -0.839844 0.855469 -0.0273438 L 4.695312 -0.0273438 C 4.695312 -1.164062 4.585938 -2.257812 4.652344 -3.363281 C 5.636719 -2.257812 6.519531 -1.109375 7.570312 -0.0273438 C 7.640625 -0.0273438 7.753906 -0.0429688 7.878906 -0.0273438 C 8.425781 0.015625 8.972656 -0.0429688 9.519531 0.0273438 C 10.175781 0.0859375 10.824219 0.0859375 11.480469 0.0546875 C 11.59375 0.0546875 11.664062 0.015625 11.734375 -0.125 C 11.242188 -0.699219 10.695312 -1.246094 10.175781 -1.824219 C 9.660156 -2.398438 9.140625 -2.984375 8.609375 -3.589844 C 8.777344 -3.632812 8.914062 -3.671875 9.070312 -3.730469 C 9.855469 -3.980469 10.429688 -4.5 10.753906 -5.257812 C 11.074219 -5.972656 11.074219 -6.730469 10.921875 -7.484375 C 10.710938 -8.46875 10.039062 -9.085938 9.167969 -9.476562 C 8.859375 -9.601562 8.566406 -9.769531 8.214844 -9.800781 C 7.960938 -9.828125 7.710938 -9.839844 7.457031 -9.839844 Z M 5.199219 -8.257812 C 5.59375 -8.257812 5.972656 -8.285156 6.363281 -8.160156 C 6.617188 -8.089844 6.828125 -7.949219 6.96875 -7.722656 C 7.121094 -7.472656 7.277344 -7.207031 7.246094 -6.871094 C 7.246094 -6.671875 7.289062 -6.476562 7.289062 -6.28125 C 7.289062 -5.578125 6.9375 -5.242188 6.335938 -5.019531 C 6.183594 -4.949219 6 -4.921875 5.816406 -4.933594 C 5.453125 -4.949219 5.101562 -4.90625 4.695312 -4.960938 C 4.652344 -6.054688 4.613281 -7.136719 4.683594 -8.214844 C 4.863281 -8.3125 5.046875 -8.269531 5.199219 -8.257812 Z M 5.199219 -8.257812 "/></g></g></g><g fill="#17053f" fill-opacity="1"><g transform="translate(81.831343, 21.504935)"><g><path d="M 9.015625 -9.8125 L 8.902344 -9.8125 C 8.453125 -9.8125 8.003906 -9.839844 7.570312 -9.800781 C 7.121094 -9.757812 6.671875 -9.8125 6.238281 -9.785156 C 5.789062 -9.742188 5.328125 -9.800781 4.878906 -9.769531 C 4.570312 -9.757812 4.246094 -9.769531 3.9375 -9.757812 C 3.054688 -9.714844 2.171875 -9.785156 1.289062 -9.742188 C 1.164062 -9.742188 1.09375 -9.769531 0.96875 -9.730469 C 0.9375 -9.6875 0.871094 -9.671875 0.839844 -9.644531 C 0.855469 -9.460938 0.910156 -8.425781 0.882812 -7.109375 C 0.855469 -6.714844 0.855469 -6.324219 0.839844 -5.929688 C 0.839844 -5.539062 0.855469 -5.132812 0.855469 -4.738281 C 0.855469 -4.359375 0.882812 -3.996094 0.910156 -3.617188 C 0.9375 -3.378906 0.925781 -3.140625 0.925781 -2.902344 C 0.925781 -2.609375 0.9375 -2.300781 0.910156 -2.019531 C 0.882812 -1.722656 0.882812 -1.457031 0.910156 -1.175781 C 0.9375 -0.785156 0.953125 -0.378906 0.925781 0.015625 C 0.925781 0.0703125 1.304688 0.015625 1.429688 0.015625 C 1.792969 0.015625 2.144531 0.0429688 2.496094 0.0703125 C 2.804688 0.0859375 3.96875 0.015625 4.136719 0.015625 C 4.921875 0.015625 5.707031 0.0273438 6.476562 0 C 7.078125 -0.015625 7.683594 -0.0546875 8.285156 -0.015625 C 8.761719 0.015625 9.222656 -0.0703125 9.699219 -0.0546875 C 9.898438 -0.0429688 9.996094 -0.152344 9.980469 -0.351562 L 9.980469 -1.402344 C 9.6875 -1.554688 9.40625 -1.414062 9.125 -1.414062 C 8.664062 -1.414062 8.1875 -1.429688 7.722656 -1.375 C 7.5 -1.359375 7.261719 -1.402344 7.050781 -1.359375 C 6.6875 -1.304688 6.335938 -1.316406 5.972656 -1.289062 C 5.691406 -1.277344 5.382812 -1.289062 5.089844 -1.304688 C 4.960938 -1.316406 4.824219 -1.261719 4.710938 -1.347656 C 4.667969 -2.3125 4.585938 -3.28125 4.652344 -4.261719 L 5.691406 -4.261719 C 5.886719 -4.261719 6.085938 -4.261719 6.28125 -4.277344 C 6.785156 -4.289062 7.277344 -4.316406 7.78125 -4.316406 C 8.046875 -4.316406 8.3125 -4.332031 8.578125 -4.332031 C 8.71875 -4.332031 8.804688 -4.445312 8.804688 -4.585938 C 8.789062 -4.894531 8.777344 -5.199219 8.789062 -5.523438 C 8.804688 -5.71875 8.691406 -5.832031 8.496094 -5.847656 C 8.257812 -5.859375 8.019531 -5.847656 7.78125 -5.832031 C 7.289062 -5.816406 6.800781 -5.777344 6.308594 -5.777344 C 6.085938 -5.789062 5.859375 -5.804688 5.636719 -5.761719 C 5.3125 -5.71875 5.003906 -5.816406 4.683594 -5.777344 C 4.585938 -6.632812 4.683594 -7.554688 4.652344 -8.398438 C 6.238281 -8.539062 7.835938 -8.4375 9.421875 -8.46875 C 9.433594 -8.539062 9.460938 -8.609375 9.449219 -8.675781 C 9.421875 -8.929688 9.394531 -9.183594 9.433594 -9.449219 C 9.460938 -9.714844 9.292969 -9.839844 9.015625 -9.8125 Z M 9.015625 -9.8125 "/></g></g></g><g fill="#17053f" fill-opacity="1"><g transform="translate(91.623655, 21.504935)"><g><path d="M 4.09375 -9.996094 C 3.492188 -9.953125 2.945312 -9.769531 2.410156 -9.53125 C 2.160156 -9.421875 1.921875 -9.292969 1.722656 -9.097656 C 1.207031 -8.578125 0.910156 -7.960938 0.871094 -7.21875 C 0.828125 -6.433594 1.050781 -5.707031 1.640625 -5.199219 C 2.101562 -4.792969 2.480469 -4.277344 3.097656 -4.039062 C 3.324219 -3.9375 3.519531 -3.769531 3.730469 -3.644531 C 4.09375 -3.449219 4.457031 -3.222656 4.808594 -3 C 5.144531 -2.777344 5.480469 -2.539062 5.804688 -2.269531 C 6.054688 -2.046875 6.027344 -1.457031 5.636719 -1.359375 C 5.046875 -1.191406 4.472656 -1.191406 3.910156 -1.386719 C 3.601562 -1.414062 3.238281 -1.652344 2.914062 -1.824219 C 2.539062 -2.003906 2.144531 -2.328125 1.878906 -2.664062 C 1.808594 -2.746094 1.695312 -2.816406 1.625 -2.875 C 1.414062 -2.886719 1.332031 -2.777344 1.246094 -2.675781 C 1.109375 -2.507812 0.980469 -2.339844 0.871094 -2.171875 C 0.785156 -2.0625 0.53125 -1.765625 0.574219 -1.667969 C 0.671875 -1.445312 1.023438 -1.207031 1.207031 -1.050781 C 1.824219 -0.503906 2.539062 -0.167969 3.324219 0.0273438 C 4.261719 0.253906 5.214844 0.253906 6.167969 0.125 C 6.996094 0.0273438 7.765625 -0.222656 8.425781 -0.742188 C 8.664062 -0.925781 8.886719 -1.136719 9 -1.402344 C 9.15625 -1.824219 9.28125 -2.242188 9.28125 -2.71875 C 9.253906 -3.53125 8.957031 -4.207031 8.371094 -4.753906 C 7.992188 -5.132812 7.515625 -5.382812 7.09375 -5.71875 C 6.757812 -5.972656 6.394531 -6.167969 6.042969 -6.40625 C 5.664062 -6.660156 5.269531 -6.898438 4.894531 -7.164062 C 4.753906 -7.261719 4.625 -7.402344 4.542969 -7.554688 C 4.332031 -7.921875 4.457031 -8.257812 4.835938 -8.382812 C 4.960938 -8.425781 5.074219 -8.453125 5.199219 -8.453125 C 5.59375 -8.480469 5.957031 -8.4375 6.324219 -8.3125 C 6.785156 -8.160156 7.164062 -7.894531 7.359375 -7.429688 C 7.402344 -7.347656 7.429688 -7.246094 7.554688 -7.175781 C 8.019531 -7.191406 8.523438 -7.09375 9.015625 -7.175781 C 9.042969 -7.386719 9.015625 -7.527344 8.957031 -7.683594 C 8.875 -7.863281 8.746094 -8.019531 8.648438 -8.1875 C 8.199219 -8.914062 7.613281 -9.449219 6.785156 -9.714844 C 5.914062 -9.996094 5.019531 -10.066406 4.09375 -9.996094 Z M 4.09375 -9.996094 "/></g></g></g><g fill="#17053f" fill-opacity="1"><g transform="translate(100.799538, 21.504935)"><g><path d="M 4.09375 -9.996094 C 3.492188 -9.953125 2.945312 -9.769531 2.410156 -9.53125 C 2.160156 -9.421875 1.921875 -9.292969 1.722656 -9.097656 C 1.207031 -8.578125 0.910156 -7.960938 0.871094 -7.21875 C 0.828125 -6.433594 1.050781 -5.707031 1.640625 -5.199219 C 2.101562 -4.792969 2.480469 -4.277344 3.097656 -4.039062 C 3.324219 -3.9375 3.519531 -3.769531 3.730469 -3.644531 C 4.09375 -3.449219 4.457031 -3.222656 4.808594 -3 C 5.144531 -2.777344 5.480469 -2.539062 5.804688 -2.269531 C 6.054688 -2.046875 6.027344 -1.457031 5.636719 -1.359375 C 5.046875 -1.191406 4.472656 -1.191406 3.910156 -1.386719 C 3.601562 -1.414062 3.238281 -1.652344 2.914062 -1.824219 C 2.539062 -2.003906 2.144531 -2.328125 1.878906 -2.664062 C 1.808594 -2.746094 1.695312 -2.816406 1.625 -2.875 C 1.414062 -2.886719 1.332031 -2.777344 1.246094 -2.675781 C 1.109375 -2.507812 0.980469 -2.339844 0.871094 -2.171875 C 0.785156 -2.0625 0.53125 -1.765625 0.574219 -1.667969 C 0.671875 -1.445312 1.023438 -1.207031 1.207031 -1.050781 C 1.824219 -0.503906 2.539062 -0.167969 3.324219 0.0273438 C 4.261719 0.253906 5.214844 0.253906 6.167969 0.125 C 6.996094 0.0273438 7.765625 -0.222656 8.425781 -0.742188 C 8.664062 -0.925781 8.886719 -1.136719 9 -1.402344 C 9.15625 -1.824219 9.28125 -2.242188 9.28125 -2.71875 C 9.253906 -3.53125 8.957031 -4.207031 8.371094 -4.753906 C 7.992188 -5.132812 7.515625 -5.382812 7.09375 -5.71875 C 6.757812 -5.972656 6.394531 -6.167969 6.042969 -6.40625 C 5.664062 -6.660156 5.269531 -6.898438 4.894531 -7.164062 C 4.753906 -7.261719 4.625 -7.402344 4.542969 -7.554688 C 4.332031 -7.921875 4.457031 -8.257812 4.835938 -8.382812 C 4.960938 -8.425781 5.074219 -8.453125 5.199219 -8.453125 C 5.59375 -8.480469 5.957031 -8.4375 6.324219 -8.3125 C 6.785156 -8.160156 7.164062 -7.894531 7.359375 -7.429688 C 7.402344 -7.347656 7.429688 -7.246094 7.554688 -7.175781 C 8.019531 -7.191406 8.523438 -7.09375 9.015625 -7.175781 C 9.042969 -7.386719 9.015625 -7.527344 8.957031 -7.683594 C 8.875 -7.863281 8.746094 -8.019531 8.648438 -8.1875 C 8.199219 -8.914062 7.613281 -9.449219 6.785156 -9.714844 C 5.914062 -9.996094 5.019531 -10.066406 4.09375 -9.996094 Z M 4.09375 -9.996094 "/></g></g></g></svg>